<svg width="16" height="16" viewBox="0 0 16 16" fill="none" xmlns="http://www.w3.org/2000/svg">
<path fill-rule="evenodd" clip-rule="evenodd" d="M12 10.1888C11.4933 10.1888 11.04 10.3845 10.6933 10.6913L5.94 7.98293C5.97333 7.83283 6 7.68273 6 7.5261C6 7.36948 5.97333 7.21938 5.94 7.06928L10.64 4.38705C11 4.71335 11.4733 4.91566 12 4.91566C13.1067 4.91566 14 4.04116 14 2.95783C14 1.8745 13.1067 1 12 1C10.8933 1 10 1.8745 10 2.95783C10 3.11446 10.0267 3.26456 10.06 3.41466L5.36 6.09689C5 5.77058 4.52667 5.56827 4 5.56827C2.89333 5.56827 2 6.44277 2 7.5261C2 8.60944 2.89333 9.48394 4 9.48394C4.52667 9.48394 5 9.28163 5.36 8.95532L10.1067 11.6702C10.0733 11.8072 10.0533 11.9508 10.0533 12.0944C10.0533 13.1451 10.9267 14 12 14C13.0733 14 13.9467 13.1451 13.9467 12.0944C13.9467 11.0437 13.0733 10.1888 12 10.1888Z" fill="#898989"/>
</svg>
