<svg width="48" height="48" fill="none" xmlns="http://www.w3.org/2000/svg"><rect x="3" y="6" width="42" height="36" rx="4" fill="#FCFCFC" stroke="#DEDEDE" stroke-width="1.6"/><path stroke="#EDEDED" stroke-width="2" stroke-linecap="round" d="M9 27h30M9 32h30M9 22h30"/><path stroke="#4AA1ED" stroke-width="2" stroke-linecap="round" d="M15 22h5"/><path stroke="#E7B6E4" stroke-width="2" stroke-linecap="round" d="M24 27h8"/><path stroke="#3C92DC" stroke-width="2" stroke-linecap="round" d="M14 32h8"/><path stroke="#EDEDED" stroke-width="2" stroke-linecap="round" d="M9 37h15"/><path d="M10.24 10.186a1 1 0 0 1 .58-.186h6.68a1 1 0 0 1 1 1v3a1 1 0 0 1-1 1h-6.68a1 1 0 0 1-.58-.186l-2.1-1.5a1 1 0 0 1 0-1.628l2.1-1.5Z" fill="#E7B6E4"/><path d="M23.24 10.186a1 1 0 0 1 .58-.186h6.68a1 1 0 0 1 1 1v3a1 1 0 0 1-1 1h-6.68a1 1 0 0 1-.58-.186l-2.1-1.5a1 1 0 0 1 0-1.628l2.1-1.5Z" fill="#4AA1ED"/><circle cx="11" cy="12.5" r="1" fill="#fff"/><circle cx="24" cy="12.5" r="1" fill="#fff"/></svg>
