<svg width="48" height="48" fill="none" xmlns="http://www.w3.org/2000/svg"><rect x="6.425" y="15.8" width="34.4" height="16.4" rx="3.2" fill="#fff" stroke="#D8D8D8" stroke-width="1.6"/><path d="M12.589 27h3.827v-1.142h-2.421v-4.676h-1.406V27Zm6.591.082c1.373 0 2.205-.906 2.205-2.25 0-1.346-.832-2.253-2.205-2.253-1.372 0-2.204.907-2.204 2.253 0 1.344.832 2.25 2.204 2.25Zm.009-1.048c-.514 0-.798-.488-.798-1.21 0-.725.284-1.216.798-1.216.497 0 .781.491.781 1.216 0 .721-.284 1.21-.781 1.21Zm4.942 2.693c1.315 0 2.213-.6 2.213-1.71v-4.38H24.96v.747h-.04c-.167-.401-.548-.805-1.235-.805-.912 0-1.739.702-1.739 2.233 0 1.483.787 2.128 1.744 2.128.642 0 1.071-.298 1.236-.701h.048v.767c0 .556-.34.758-.806.758-.446 0-.713-.17-.787-.44l-1.316.074c.103.764.821 1.33 2.066 1.33Zm.042-2.798c-.514 0-.8-.418-.8-1.116 0-.697.283-1.148.8-1.148.509 0 .804.44.804 1.148 0 .701-.298 1.116-.804 1.116ZM28.948 27h1.39v-4.364h-1.39V27Zm.696-4.872c.395 0 .713-.299.713-.665 0-.366-.318-.662-.713-.662-.392 0-.713.296-.713.662 0 .366.321.665.713.665Zm2.967 2.383c.003-.497.292-.792.733-.792.44 0 .701.29.699.772V27h1.389v-2.781c.003-.983-.597-1.64-1.514-1.64-.645 0-1.134.327-1.327.858h-.048v-.8h-1.321V27h1.389v-2.489Z" fill="#8E8E8E"/></svg>
