<svg width="48" height="48" fill="none" viewBox="0 0 48 48" xmlns="http://www.w3.org/2000/svg">
  <g>
    <path d="M4 19.35A2.35 2.35 0 016.35 17h9.396a2.35 2.35 0 012.35 2.35v9.396a2.35 2.35 0 01-2.35 2.35H6.349A2.35 2.35 0 014 28.745v-9.397z" fill="#B3B3B3"/>
    <path fill-rule="evenodd" clip-rule="evenodd" d="M4 19.35A2.35 2.35 0 016.35 17h9.396a2.35 2.35 0 012.35 2.35v9.396c0 .611-.234 1.168-.617 1.586-1.103-2.146-3.568-3.64-6.431-3.64-2.864 0-5.33 1.494-6.432 3.64A2.34 2.34 0 014 28.746v-9.397zm10.571 2.936a3.524 3.524 0 11-7.047 0 3.524 3.524 0 017.047 0z" fill="#EDEDED"/>
  </g>
  <rect x="3" y="16" width="16.095" height="16.095" rx="8.048" stroke="#FAFAFA" stroke-width="2"/>
  <g>
    <path d="M16.333 19.301a2.35 2.35 0 012.35-2.349h9.396a2.35 2.35 0 012.35 2.35v9.396a2.35 2.35 0 01-2.35 2.35h-9.396a2.35 2.35 0 01-2.35-2.35v-9.397z" fill="#B3B3B3"/>
    <path fill-rule="evenodd" clip-rule="evenodd" d="M16.333 19.301a2.35 2.35 0 012.35-2.349h9.396a2.35 2.35 0 012.35 2.35v9.396a2.34 2.34 0 01-.617 1.586c-1.102-2.146-3.567-3.64-6.431-3.64s-5.329 1.494-6.431 3.64a2.34 2.34 0 01-.617-1.586v-9.397zm10.572 2.938a3.524 3.524 0 11-7.048 0 3.524 3.524 0 017.048 0z" fill="#EDEDED"/>
  </g>
  <rect x="15.333" y="15.952" width="16.095" height="16.095" rx="8.048" stroke="#FAFAFA" stroke-width="2"/>
  <g>
    <path d="M30 19.35A2.35 2.35 0 0132.35 17h9.396a2.35 2.35 0 012.35 2.35v9.396a2.35 2.35 0 01-2.35 2.35h-9.397A2.35 2.35 0 0130 28.745v-9.397z" fill="#B3B3B3"/>
    <path fill-rule="evenodd" clip-rule="evenodd" d="M30 19.35A2.35 2.35 0 0132.35 17h9.396a2.35 2.35 0 012.35 2.35v9.396a2.34 2.34 0 01-.617 1.586c-1.103-2.146-3.568-3.64-6.431-3.64-2.864 0-5.33 1.494-6.432 3.64A2.34 2.34 0 0130 28.746v-9.397zm10.571 2.936a3.524 3.524 0 11-7.047 0 3.524 3.524 0 017.047 0z" fill="#EDEDED"/>
  </g>
  <rect x="29" y="16" width="16.095" height="16.095" rx="8.048" stroke="#FAFAFA" stroke-width="2"/>
</svg>
