<svg width="48" height="48" fill="none" xmlns="http://www.w3.org/2000/svg"><rect x="4" y="8" width="40" height="33" rx="2" fill="#fff"/><mask id="a" fill="#fff"><rect x="9" y="12" width="21" height="19" rx="1.39"/></mask><rect x="9" y="12" width="21" height="19" rx="1.39" fill="#82BF99" fill-opacity=".17" stroke="#82BF99" stroke-width="3.2" mask="url(#a)"/><mask id="b" fill="#fff"><rect x="8" y="11" width="4.1" height="4.088" rx=".569"/></mask><rect x="8" y="11" width="4.1" height="4.088" rx=".569" fill="#fff" stroke="#82BF99" stroke-width="3.2" mask="url(#b)"/><mask id="c" fill="#fff"><rect x="8" y="28" width="4.1" height="4.088" rx=".569"/></mask><rect x="8" y="28" width="4.1" height="4.088" rx=".569" fill="#fff" stroke="#82BF99" stroke-width="3.2" mask="url(#c)"/><mask id="d" fill="#fff"><rect x="27" y="11" width="4.1" height="4.088" rx=".569"/></mask><rect x="27" y="11" width="4.1" height="4.088" rx=".569" fill="#fff" stroke="#82BF99" stroke-width="3.2" mask="url(#d)"/><mask id="e" fill="#fff"><rect x="27" y="28" width="4.1" height="4.088" rx=".569"/></mask><rect x="27" y="28" width="4.1" height="4.088" rx=".569" fill="#fff" stroke="#82BF99" stroke-width="3.2" mask="url(#e)"/><path d="M10 8H6a2 2 0 0 0-2 2v4M38 41h4a2 2 0 0 0 2-2v-4M44 14v-4a2 2 0 0 0-2-2h-4M4 35v4a2 2 0 0 0 2 2h4" stroke="#D8D8D8" stroke-width="1.6" stroke-linecap="round"/><rect x="22.8" y="22.8" width="16.4" height="13.4" rx=".908" fill="#82BF99" fill-opacity=".17" stroke="#82BF99" stroke-width="1.6"/><mask id="f" fill="#fff"><rect x="21" y="21" width="4.1" height="4.088" rx=".569"/></mask><rect x="21" y="21" width="4.1" height="4.088" rx=".569" fill="#fff" stroke="#82BF99" stroke-width="3.2" mask="url(#f)"/><mask id="g" fill="#fff"><rect x="21" y="34" width="4.1" height="4.088" rx=".569"/></mask><rect x="21" y="34" width="4.1" height="4.088" rx=".569" fill="#fff" stroke="#82BF99" stroke-width="3.2" mask="url(#g)"/><mask id="h" fill="#fff"><rect x="37" y="21" width="4.1" height="4.088" rx=".569"/></mask><rect x="37" y="21" width="4.1" height="4.088" rx=".569" fill="#fff" stroke="#82BF99" stroke-width="3.2" mask="url(#h)"/><mask id="i" fill="#fff"><rect x="37" y="34.268" width="4.1" height="4.088" rx=".569"/></mask><rect x="37" y="34.268" width="4.1" height="4.088" rx=".569" fill="#fff" stroke="#82BF99" stroke-width="3.2" mask="url(#i)"/></svg>
