<svg width="48" height="48" viewBox="0 0 48 48" fill="none" xmlns="http://www.w3.org/2000/svg">
<path d="M4.7298 26H3.46418L5.76851 19.4545H7.23229L9.53982 26H8.27419L6.52597 20.7969H6.47483L4.7298 26ZM4.77135 23.4336H8.22306V24.386H4.77135V23.4336Z" fill="#949494"/>
<path d="M20.6881 26V19.4545H23.1938C23.6668 19.4545 24.0599 19.5291 24.3731 19.6783C24.6884 19.8253 24.9239 20.0266 25.0794 20.2823C25.2371 20.538 25.3159 20.8278 25.3159 21.1516C25.3159 21.418 25.2648 21.646 25.1625 21.8356C25.0602 22.0231 24.9228 22.1754 24.7502 22.2926C24.5776 22.4098 24.3848 22.494 24.1717 22.5451V22.609C24.404 22.6218 24.6266 22.6932 24.8397 22.8232C25.0549 22.951 25.2307 23.1321 25.3671 23.3665C25.5034 23.6009 25.5716 23.8842 25.5716 24.2166C25.5716 24.5554 25.4896 24.8601 25.3255 25.1307C25.1614 25.3991 24.9143 25.6112 24.584 25.7667C24.2538 25.9222 23.8383 26 23.3376 26H20.6881ZM21.8738 25.0092H23.149C23.5794 25.0092 23.8894 24.9272 24.0791 24.7631C24.2708 24.5969 24.3667 24.3839 24.3667 24.1239C24.3667 23.93 24.3188 23.7553 24.2229 23.5998C24.127 23.4421 23.9906 23.3185 23.8138 23.229C23.6369 23.1374 23.426 23.0916 23.181 23.0916H21.8738V25.0092ZM21.8738 22.2383H23.0467C23.2513 22.2383 23.4356 22.201 23.5997 22.1264C23.7637 22.0497 23.8926 21.9421 23.9864 21.8036C24.0823 21.663 24.1302 21.4968 24.1302 21.305C24.1302 21.0515 24.0407 20.8427 23.8617 20.6786C23.6849 20.5146 23.4217 20.4325 23.0723 20.4325H21.8738V22.2383Z" fill="#949494"/>
<path d="M42.404 21.663H41.2087C41.1746 21.467 41.1117 21.2933 41.0201 21.142C40.9285 20.9886 40.8145 20.8587 40.6781 20.7521C40.5418 20.6456 40.3862 20.5657 40.2115 20.5124C40.0389 20.457 39.8525 20.4293 39.6522 20.4293C39.2964 20.4293 38.981 20.5188 38.7062 20.6978C38.4313 20.8746 38.2161 21.1346 38.0606 21.4776C37.9051 21.8185 37.8273 22.2351 37.8273 22.7273C37.8273 23.228 37.9051 23.6499 38.0606 23.9929C38.2183 24.3338 38.4335 24.5916 38.7062 24.7663C38.981 24.9389 39.2953 25.0252 39.649 25.0252C39.845 25.0252 40.0283 24.9996 40.1987 24.9485C40.3713 24.8952 40.5258 24.8175 40.6622 24.7152C40.8006 24.6129 40.9168 24.4872 41.0105 24.3381C41.1064 24.1889 41.1725 24.0185 41.2087 23.8267L42.404 23.8331C42.3592 24.1442 42.2623 24.4361 42.1131 24.7088C41.9661 24.9815 41.7733 25.2223 41.5347 25.4311C41.296 25.6378 41.0169 25.7997 40.6973 25.9169C40.3777 26.032 40.0229 26.0895 39.633 26.0895C39.0578 26.0895 38.5443 25.9563 38.0926 25.69C37.6408 25.4237 37.285 25.0391 37.0251 24.5362C36.7651 24.0334 36.6352 23.4304 36.6352 22.7273C36.6352 22.022 36.7662 21.419 37.0283 20.9183C37.2903 20.4155 37.6472 20.0309 38.0989 19.7646C38.5506 19.4982 39.062 19.3651 39.633 19.3651C39.9974 19.3651 40.3362 19.4162 40.6494 19.5185C40.9626 19.6207 41.2417 19.771 41.4867 19.9691C41.7318 20.1651 41.9331 20.4059 42.0908 20.6914C42.2506 20.9748 42.355 21.2987 42.404 21.663Z" fill="#949494"/>
<line x1="17.6784" y1="19.424" x2="12.6784" y2="27.424" stroke="#E5E5E5" stroke-width="1.6"/>
<line x1="33.6784" y1="19.424" x2="28.6784" y2="27.424" stroke="#E5E5E5" stroke-width="1.6"/>
</svg>
