<svg width="48" height="48" fill="none" xmlns="http://www.w3.org/2000/svg"><path d="M45 42H3V16a1 1 0 0 1 1-1h40a1 1 0 0 1 1 1v26Z" fill="#fff"/><path d="M11 42V10M3 22h42M3 29h42M3 36h42M37 42V10" stroke="#DEDEDE" stroke-width="1.6"/><path d="M45 16H3V7a1 1 0 0 1 1-1h40a1 1 0 0 1 1 1v9Z" fill="#8E8E8E"/><rect x="3" y="6" width="42" height="36" rx="3" stroke="#8E8E8E" stroke-width="1.6"/><path d="M28 41h-9V16h9v25Z" fill="#FCF5E9"/><path d="M5.57 7.91V13h1.044V9.674h.043l1.317 3.301h.71l1.318-3.289h.043V13h1.044V7.91H9.76L8.36 11.33H8.3L6.899 7.91H5.57Zm8.872.887H16V13h1.064V8.797h1.559v-.888h-4.181v.888ZM23.117 13h1.05l.966-3.328h.04l.97 3.328h1.049l1.456-5.09h-1.176l-.842 3.544h-.045l-.927-3.545H24.65l-.93 3.537h-.042l-.843-3.537h-1.175L23.117 13Zm8.573-4.203h1.559V13h1.064V8.797h1.558v-.888h-4.18v.888ZM39.22 13h1.076v-2.103h2.071v-.887h-2.07V8.797h2.294v-.888H39.22V13Z" fill="#fff"/><path d="M28 41V16M19 41V16" stroke="#DEDEDE" stroke-width="1.6"/></svg>
