<svg width="32" height="32" viewBox="0 0 32 32" fill="none" xmlns="http://www.w3.org/2000/svg">
<g clip-path="url(#clip0_1_13530)">
<path d="M12.5752 25.9692V20.6359" stroke="black" stroke-opacity="0.6" stroke-linecap="round" stroke-linejoin="round"/>
<path d="M8.5752 25.9692V23.3026" stroke="black" stroke-opacity="0.6" stroke-linecap="round" stroke-linejoin="round"/>
<path d="M20.5757 25.9692V19.3028" stroke="black" stroke-opacity="0.6" stroke-linecap="round" stroke-linejoin="round"/>
<path d="M24.5762 25.9692V13.9689" stroke="black" stroke-opacity="0.6" stroke-linecap="round" stroke-linejoin="round"/>
<path d="M16.5757 25.9692V17.9695" stroke="black" stroke-opacity="0.6" stroke-linecap="round" stroke-linejoin="round"/>
<path d="M5.95947 19.2322L5.98689 19.1714" stroke="black" stroke-opacity="0.6" stroke-linecap="round" stroke-linejoin="round"/>
<path d="M6.98682 16.9574L8.59248 13.4033" stroke="black" stroke-opacity="0.6" stroke-linecap="round" stroke-linejoin="round" stroke-dasharray="0.1 1.82"/>
<path d="M9.09326 12.296L9.11993 12.236L9.17726 12.2706" stroke="black" stroke-opacity="0.6" stroke-linecap="round" stroke-linejoin="round"/>
<path d="M11.3667 13.616L12.5767 14.3595" stroke="black" stroke-opacity="0.6" stroke-linecap="round" stroke-linejoin="round" stroke-dasharray="0.1 1.93"/>
<path d="M13.6719 15.032L13.7279 15.0667L13.7599 15.008" stroke="black" stroke-opacity="0.6" stroke-linecap="round" stroke-linejoin="round"/>
<path d="M14.8066 13.0182L17.5907 7.72913" stroke="black" stroke-opacity="0.6" stroke-linecap="round" stroke-linejoin="round" stroke-dasharray="0.09 1.69"/>
<path d="M18.1147 6.73462L18.1454 6.67462L18.2014 6.71329" stroke="black" stroke-opacity="0.6" stroke-linecap="round" stroke-linejoin="round"/>
<path d="M20.2339 8.11084L21.3576 8.88339" stroke="black" stroke-opacity="0.6" stroke-linecap="round" stroke-linejoin="round" stroke-dasharray="0.1 1.85"/>
<path d="M22.3745 9.58264L22.4292 9.61997L22.4758 9.5733" stroke="black" stroke-opacity="0.6" stroke-linecap="round" stroke-linejoin="round"/>
<path d="M24.4702 7.57564L27.6712 4.36938" stroke="black" stroke-opacity="0.6" stroke-linecap="round" stroke-linejoin="round" stroke-dasharray="0.11 2.12"/>
<path d="M28.6685 3.37077L28.7155 3.32361" stroke="black" stroke-opacity="0.6" stroke-linecap="round" stroke-linejoin="round"/>
<path d="M2.00977 0.746643V31.3183" stroke="black" stroke-opacity="0.6" stroke-linecap="round" stroke-linejoin="round"/>
<path d="M31.2479 29.9848H0.67627" stroke="black" stroke-opacity="0.6" stroke-linecap="round" stroke-linejoin="round"/>
<path d="M7.34326 29.9848V31.3183" stroke="black" stroke-opacity="0.6" stroke-linecap="round" stroke-linejoin="round"/>
<path d="M12.6772 29.9848V31.3183" stroke="black" stroke-opacity="0.6" stroke-linecap="round" stroke-linejoin="round"/>
<path d="M18.0107 29.9848V31.3183" stroke="black" stroke-opacity="0.6" stroke-linecap="round" stroke-linejoin="round"/>
<path d="M23.3442 29.9848V31.3183" stroke="black" stroke-opacity="0.6" stroke-linecap="round" stroke-linejoin="round"/>
<path d="M28.6782 29.9848V31.3183" stroke="black" stroke-opacity="0.6" stroke-linecap="round" stroke-linejoin="round"/>
<path d="M2.00974 3.32367H0.67627" stroke="black" stroke-opacity="0.6" stroke-linecap="round" stroke-linejoin="round"/>
<path d="M2.00974 8.65735H0.67627" stroke="black" stroke-opacity="0.6" stroke-linecap="round" stroke-linejoin="round"/>
<path d="M2.00974 13.991H0.67627" stroke="black" stroke-opacity="0.6" stroke-linecap="round" stroke-linejoin="round"/>
<path d="M2.00974 19.3247H0.67627" stroke="black" stroke-opacity="0.6" stroke-linecap="round" stroke-linejoin="round"/>
<path d="M2.00974 24.6583H0.67627" stroke="black" stroke-opacity="0.6" stroke-linecap="round" stroke-linejoin="round"/>
</g>
<defs>
<clipPath id="clip0_1_13530">
<rect width="32" height="32" fill="black"/>
</clipPath>
</defs>
</svg>
