<svg width="12" height="12" viewBox="0 0 12 12" fill="none" xmlns="http://www.w3.org/2000/svg">
<path d="M4.05859 5.82496C4.50879 6.75465 5.26056 7.50449 6.19141 7.9523C6.26007 7.98481 6.33602 7.99888 6.41177 7.99313C6.48752 7.98738 6.56047 7.962 6.62344 7.91949L7.99062 7.00621C8.05103 6.96524 8.12083 6.94024 8.19351 6.93355C8.26619 6.92685 8.33938 6.93868 8.40625 6.96793L10.9656 8.06714C11.0531 8.10355 11.1262 8.1677 11.1736 8.24972C11.221 8.33174 11.2402 8.42708 11.2281 8.52105C11.147 9.15419 10.838 9.73608 10.3588 10.1578C9.87971 10.5796 9.26331 10.8123 8.625 10.8125C6.65245 10.8125 4.7607 10.0289 3.36589 8.63406C1.97109 7.23926 1.1875 5.3475 1.1875 3.37496C1.18764 2.73664 1.42037 2.12025 1.84212 1.64112C2.26388 1.16199 2.84577 0.852951 3.47891 0.771832C3.57288 0.759761 3.66822 0.778916 3.75024 0.826348C3.83225 0.873781 3.89641 0.94686 3.93281 1.03433L5.03203 3.59918C5.06062 3.66499 5.07257 3.73683 5.06685 3.80835C5.06113 3.87988 5.0379 3.9489 4.99922 4.00933L4.08594 5.39839C4.04528 5.46122 4.02141 5.53343 4.01663 5.60811C4.01184 5.68279 4.02629 5.75745 4.05859 5.82496V5.82496Z" stroke="#444444" stroke-linecap="round" stroke-linejoin="round"/>
</svg>
