<svg width="48" height="48" fill="none" xmlns="http://www.w3.org/2000/svg"><rect x="5.127" y="6.127" width="34.745" height="34.745" rx="17.373" fill="#fff" stroke="#757575" stroke-width="1.745"/><mask id="a" style="mask-type:alpha" maskUnits="userSpaceOnUse" x="9" y="10" width="27" height="27"><circle cx="22.5" cy="23.5" r="13.5" fill="#C4C4C4"/></mask><g mask="url(#a)"><rect x="7.419" y="8.419" width="46.118" height="32.618" rx="3.491" fill="#fff" stroke="#757575" stroke-width="1.745"/><circle cx="17.205" cy="18.205" r="4.295" fill="#EECA86"/><path d="M31.17 18.645a1.091 1.091 0 0 1 1.837-.02l10.844 16.522a1.091 1.091 0 0 1-.912 1.69h-21.17a1.09 1.09 0 0 1-.925-1.67L31.17 18.644Z" fill="#82BF99"/><path d="M20.17 28.45a1.09 1.09 0 0 1 1.784 0l4.807 6.832A1.09 1.09 0 0 1 25.87 37h-9.614a1.09 1.09 0 0 1-.892-1.718l4.807-6.832Z" fill="#82BF99"/></g></svg>
