<svg width="48" height="48" viewBox="0 0 48 48" fill="none" xmlns="http://www.w3.org/2000/svg">
<rect x="3.2" y="7.2" width="41.6" height="33.6" rx="4.8" fill="white" stroke="#D8D8D8" stroke-width="1.6"/>
<path d="M8.7298 17L9.26993 15.386H11.7309L12.2742 17H13.5398L11.2323 10.4545H9.76851L7.46418 17H8.7298ZM9.58953 14.4336L10.4748 11.7969H10.526L11.4113 14.4336H9.58953Z" fill="#787878"/>
<path d="M34 14.5996L36 12.9996L38 14.5996" stroke="#D8D8D8" stroke-width="1.6" stroke-linecap="square"/>
<path d="M7 22L7 34C7 35.1046 7.89543 36 9 36L39 36C40.1046 36 41 35.1046 41 34L41 22C41 20.8954 40.1046 20 39 20L9 20C7.89543 20 7 20.8954 7 22Z" fill="#E5E5E5"/>
</svg>
