<svg width="48" height="48" fill="none" xmlns="http://www.w3.org/2000/svg"><rect x="3" y="6" width="42" height="36" rx="3" fill="#FCFCFC" stroke="#D8D8D8" stroke-width="1.6"/><path stroke="#DEDEDE" stroke-width="2" stroke-linecap="round" d="M14 10h27M14 20h27M14 15h11"/><path stroke="#DEDEDE" stroke-width="1.6" d="M3 25.2h42"/><g clip-path="url(#a)"><rect x="6" y="30.25" width="9" height="6" rx=".75" fill="#BEBEBE"/><path d="M10.317 37.845a.75.75 0 0 1-1.134 0L7.802 36.25h3.897l-1.382 1.595Z" fill="#BEBEBE"/><path stroke="#fff" stroke-width=".75" d="M7.5 32.125h6M7.5 34.375h3"/></g><circle cx="8.5" cy="11.5" r="2.5" fill="#747FD8"/><circle cx="8.5" cy="20.5" r="2.5" fill="#ECBB40"/><path stroke="#D8D8D8" stroke-width="2" stroke-linecap="round" d="M20 34h10"/><path d="M36 29h2m2 0h-2m0 0v10m0 0h-2m2 0h2" stroke="#757575" stroke-width="1.6"/><defs><clipPath id="a"><path fill="#fff" transform="translate(6 29.5)" d="M0 0h9v9H0z"/></clipPath></defs></svg>
