<svg width="48" height="48" viewBox="0 0 48 48" fill="none" xmlns="http://www.w3.org/2000/svg">
<path d="M41 6H7C4.79086 6 3 7.79086 3 10V38C3 40.2091 4.79086 42 7 42H41C43.2091 42 45 40.2091 45 38V10C45 7.79086 43.2091 6 41 6Z" fill="white" stroke="#D8D8D8" stroke-width="1.6"/>
<path opacity="0.5" d="M40 30H9C8.73478 30 8.48043 30.1054 8.29289 30.2929C8.10536 30.4804 8 30.7348 8 31C8 31.2652 8.10536 31.5196 8.29289 31.7071C8.48043 31.8946 8.73478 32 9 32H40C40.2652 32 40.5196 31.8946 40.7071 31.7071C40.8946 31.5196 41 31.2652 41 31C41 30.7348 40.8946 30.4804 40.7071 30.2929C40.5196 30.1054 40.2652 30 40 30ZM29 35H9C8.73478 35 8.48043 35.1054 8.29289 35.2929C8.10536 35.4804 8 35.7348 8 36C8 36.2652 8.10536 36.5196 8.29289 36.7071C8.48043 36.8946 8.73478 37 9 37H29C29.2652 37 29.5196 36.8946 29.7071 36.7071C29.8946 36.5196 30 36.2652 30 36C30 35.7348 29.8946 35.4804 29.7071 35.2929C29.5196 35.1054 29.2652 35 29 35ZM40 25H9C8.73478 25 8.48043 25.1054 8.29289 25.2929C8.10536 25.4804 8 25.7348 8 26C8 26.2652 8.10536 26.5196 8.29289 26.7071C8.48043 26.8946 8.73478 27 9 27H40C40.2652 27 40.5196 26.8946 40.7071 26.7071C40.8946 26.5196 41 26.2652 41 26C41 25.7348 40.8946 25.4804 40.7071 25.2929C40.5196 25.1054 40.2652 25 40 25Z" fill="#D8D8D8"/>
<path fill-rule="evenodd" clip-rule="evenodd" d="M18.215 10.7148C18.1175 10.8132 18.0492 10.9367 18.0176 11.0715C17.986 11.2064 17.9923 11.3473 18.036 11.4788L18.652 13.3418C18.6909 13.4624 18.7603 13.5709 18.8534 13.6569C18.9464 13.7429 19.0601 13.8035 19.1834 13.8328C19.3066 13.8622 19.4354 13.8593 19.5572 13.8244C19.6791 13.7895 19.7899 13.7239 19.879 13.6338L20.133 13.3778L22.267 15.5278L18.535 19.2878C18.2388 19.5873 18.0727 19.9916 18.0727 20.4128C18.0727 20.834 18.2388 21.2383 18.535 21.5378C18.681 21.6853 18.8548 21.8025 19.0463 21.8824C19.2379 21.9624 19.4434 22.0035 19.651 22.0035C19.8585 22.0035 20.064 21.9624 20.2556 21.8824C20.4472 21.8025 20.621 21.6853 20.767 21.5378L24.499 17.7768L26.147 19.4368L26.035 19.5498C25.8957 19.6903 25.8176 19.88 25.8176 20.0778C25.8176 20.2756 25.8957 20.4653 26.035 20.6058L27.2 21.7798C27.2685 21.8489 27.35 21.9038 27.4399 21.9413C27.5297 21.9787 27.6261 21.998 27.7235 21.998C27.8208 21.998 27.9172 21.9787 28.007 21.9413C28.0969 21.9038 28.1784 21.8489 28.247 21.7798L29.688 20.3268C29.8269 20.1864 29.9048 19.9968 29.9048 19.7993C29.9048 19.6018 29.8269 19.4122 29.688 19.2718L28.523 18.0968C28.4544 18.0275 28.3728 17.9725 28.2829 17.9349C28.1929 17.8974 28.0964 17.8781 27.999 17.8781C27.9015 17.8781 27.805 17.8974 27.7151 17.9349C27.6251 17.9725 27.5435 18.0275 27.475 18.0968L27.285 18.2868L25.638 16.6268L26.48 15.7788C26.5612 15.6968 26.6332 15.6063 26.695 15.5088C27.1414 15.6021 27.6041 15.5821 28.0408 15.4505C28.4775 15.319 28.8743 15.0802 29.195 14.7558C29.5032 14.4447 29.7334 14.065 29.8669 13.6479C30.0003 13.2308 30.0333 12.7881 29.963 12.3558C29.885 11.8698 29.301 11.7808 28.955 12.1298L27.638 13.4558C27.5701 13.5241 27.4894 13.5784 27.4005 13.6154C27.3116 13.6524 27.2163 13.6714 27.12 13.6714C27.0237 13.6714 26.9283 13.6524 26.8394 13.6154C26.7505 13.5784 26.6698 13.5241 26.602 13.4558C26.4644 13.3167 26.3872 13.1289 26.3872 12.9333C26.3872 12.7376 26.4644 12.5499 26.602 12.4108L27.918 11.0848C28.264 10.7358 28.176 10.1468 27.693 10.0688C27.2629 9.99848 26.8222 10.0321 26.4078 10.167C25.9934 10.3018 25.6173 10.5339 25.311 10.8438C24.9971 11.1607 24.7642 11.5485 24.6319 11.9744C24.4996 12.4003 24.4718 12.8519 24.551 13.2908C24.442 13.3558 24.341 13.4358 24.247 13.5298L23.406 14.3778L21.272 12.2278L21.603 11.8938C21.6923 11.8036 21.7573 11.6923 21.7917 11.5701C21.8262 11.448 21.8291 11.3191 21.8001 11.1955C21.7711 11.072 21.7112 10.9578 21.626 10.8637C21.5408 10.7697 21.4331 10.6988 21.313 10.6578L19.465 10.0378C19.3344 9.99399 19.1942 9.98764 19.0602 10.0195C18.9263 10.0513 18.8039 10.12 18.707 10.2178L18.214 10.7138L18.215 10.7148ZM19.709 20.3548C20.017 20.6648 20.529 20.6518 20.854 20.3248C21.178 19.9978 21.191 19.4818 20.883 19.1708C20.575 18.8608 20.063 18.8738 19.738 19.2008C19.414 19.5268 19.401 20.0438 19.709 20.3538V20.3548Z" fill="#B3B3B3"/>
</svg>
