<svg width="48" height="48" fill="none" xmlns="http://www.w3.org/2000/svg"><rect x="1" y="15" width="46" height="18" rx="3" fill="#FCFCFC" stroke="#D8D8D8" stroke-width="1.6"/><path fill-rule="evenodd" clip-rule="evenodd" d="M15.4 22.5H6.6v4.737c0 .228.185.413.414.413h7.972a.414.414 0 0 0 .414-.413V22.5Zm-8.387-3.75h7.974c1.112 0 2.013.901 2.013 2.013v6.474a2.014 2.014 0 0 1-2.014 2.013H7.014A2.014 2.014 0 0 1 5 27.237v-6.474c0-1.112.901-2.013 2.013-2.013Zm2.353 5.375a.875.875 0 1 1-1.75 0 .875.875 0 0 1 1.75 0ZM8.49 27.25a.875.875 0 1 0 0-1.75.875.875 0 0 0 0 1.75Zm3.384-3.125a.875.875 0 1 1-1.75 0 .875.875 0 0 1 1.75 0ZM11 27.25a.875.875 0 1 0 0-1.75.875.875 0 0 0 0 1.75Zm3.55-3.125a.875.875 0 1 1-1.75 0 .875.875 0 0 1 1.75 0Z" fill="#B2B2B2"/><path stroke="#D8D8D8" stroke-width="2" stroke-linecap="round" d="M21 24h12"/><path d="M38 20h1.5m1.5 0h-1.5m0 0v8m0 0H38m1.5 0H41" stroke="#949494" stroke-width="1.6" stroke-linecap="round"/></svg>
