<svg width="48" height="48" fill="none" xmlns="http://www.w3.org/2000/svg"><rect x="1" y="5" width="46" height="18" rx="3" fill="#FCFCFC" stroke="#D8D8D8" stroke-width="1.6"/><g filter="url(#a)"><rect x="4" y="23" width="43" height="20" rx="3" fill="#FCFCFC"/><rect x="3.5" y="22.5" width="44" height="21" rx="3.5" stroke="#DEDEDE"/></g><path d="M7 27v3a1 1 0 0 0 1 1h5a1 1 0 0 0 1-1v-3a1 1 0 0 0-1-1H8a1 1 0 0 0-1 1Z" fill="#DEDEDE"/><path d="M7 35v3a1 1 0 0 0 1 1h16a1 1 0 0 0 1-1v-3a1 1 0 0 0-1-1H8a1 1 0 0 0-1 1Z" fill="#ECF5FD"/><path d="M21 34.206v4.588c0 .114.092.206.206.206H25.5a2.5 2.5 0 0 0 0-5h-4.294a.206.206 0 0 0-.206.206Z" fill="#3C92DC"/><path d="M22 27v3a1 1 0 0 0 1 1h20a1 1 0 0 0 1-1v-3a1 1 0 0 0-1-1H23a1 1 0 0 0-1 1Z" fill="#ECF5FD"/><path d="M31 35v3a1 1 0 0 0 1 1h11a1 1 0 0 0 1-1v-3a1 1 0 0 0-1-1H32a1 1 0 0 0-1 1Z" fill="#DEDEDE"/><path d="M22.794 26H18.5a2.5 2.5 0 0 0 0 5h4.294a.206.206 0 0 0 .206-.206v-4.588a.206.206 0 0 0-.206-.206Z" fill="#3C92DC"/><path fill-rule="evenodd" clip-rule="evenodd" d="M7.6 13.5v4.737c0 .228.185.413.414.413h7.972a.414.414 0 0 0 .414-.413V13.5H7.6Zm8.387-3.75H8.013A2.013 2.013 0 0 0 6 11.763v6.474c0 1.112.902 2.013 2.014 2.013h7.972A2.014 2.014 0 0 0 18 18.237v-6.474a2.013 2.013 0 0 0-2.013-2.013ZM15.7 15a.7.7 0 0 1-.7.7H9a.7.7 0 1 1 0-1.4h6a.7.7 0 0 1 .7.7ZM12 17.95a.7.7 0 1 0 0-1.4H9a.7.7 0 1 0 0 1.4h3Z" fill="#B2B2B2"/><path stroke="#D8D8D8" stroke-width="2" stroke-linecap="round" d="M22 14h12"/><path d="M39 10h1.5m1.5 0h-1.5m0 0v8m0 0H39m1.5 0H42" stroke="#949494" stroke-width="1.6" stroke-linecap="round"/><defs><filter id="a" x="3" y="22" width="45" height="23" filterUnits="userSpaceOnUse" color-interpolation-filters="sRGB"><feFlood flood-opacity="0" result="BackgroundImageFix"/><feColorMatrix in="SourceAlpha" values="0 0 0 0 0 0 0 0 0 0 0 0 0 0 0 0 0 0 127 0" result="hardAlpha"/><feOffset dy="1"/><feColorMatrix values="0 0 0 0 0.8625 0 0 0 0 0.8625 0 0 0 0 0.8625 0 0 0 1 0"/><feBlend in2="BackgroundImageFix" result="effect1_dropShadow_1785:13682"/><feBlend in="SourceGraphic" in2="effect1_dropShadow_1785:13682" result="shape"/></filter></defs></svg>
