<svg width="48" height="48" fill="none" xmlns="http://www.w3.org/2000/svg"><rect x="1" y="15" width="46" height="18" rx="3" fill="#FCFCFC" stroke="#D8D8D8" stroke-width="1.6"/><path fill-rule="evenodd" clip-rule="evenodd" d="M11.435 22.5H6.6v4.737c0 .228.185.414.414.414h2.134c.156.589.428 1.13.79 1.6H7.014A2.014 2.014 0 0 1 5 27.236v-6.473c0-1.112.901-2.014 2.013-2.014h7.974c1.112 0 2.013.902 2.013 2.014V23.672A4.491 4.491 0 0 0 13.5 22c-.744 0-1.446.181-2.065.5ZM8 24.75a.75.75 0 1 0 0-1.5.75.75 0 0 0 0 1.5Zm.75 1.5a.75.75 0 1 1-1.5 0 .75.75 0 0 1 1.5 0Z" fill="#B2B2B2"/><path fill-rule="evenodd" clip-rule="evenodd" d="M15.684 28.65a3.15 3.15 0 0 0 0-4.473 3.197 3.197 0 0 0-4.502 0 3.15 3.15 0 0 0 0 4.474 3.197 3.197 0 0 0 4.502 0Zm-1.875-3.553a.522.522 0 1 0-1.044 0v1.5c0 .245.17.458.41.51l1.636.356a.522.522 0 1 0 .223-1.02l-1.226-.267v-1.08Z" fill="#B2B2B2"/><path stroke="#D8D8D8" stroke-width="2" stroke-linecap="round" d="M21 24h12"/><path d="M38 20h1.5m1.5 0h-1.5m0 0v8m0 0H38m1.5 0H41" stroke="#949494" stroke-width="1.6" stroke-linecap="round"/></svg>
