<svg width="24" height="24" viewBox="0 0 24 24" fill="none" xmlns="http://www.w3.org/2000/svg">
<path fill-rule="evenodd" clip-rule="evenodd" d="M13 1C7.48 1 3 5.48 3 11C3 16.52 7.48 21 13 21C18.52 21 23 16.52 23 11C23 5.48 18.52 1 13 1ZM12 18.93C8.05 18.44 5 15.08 5 11C5 10.38 5.08 9.79 5.21 9.21L10 14V15C10 16.1 10.9 17 12 17V18.93ZM18.9 16.39C18.64 15.58 17.9 15 17 15H16V12C16 11.45 15.55 11 15 11H9V9H11C11.55 9 12 8.55 12 8V6H14C15.1 6 16 5.1 16 4V3.59C18.93 4.78 21 7.65 21 11C21 13.08 20.2 14.97 18.9 16.39Z" fill="#898989"/>
</svg>
