<svg width="16" height="16" viewBox="0 0 16 16" fill="none" xmlns="http://www.w3.org/2000/svg">
<path fill-rule="evenodd" clip-rule="evenodd" d="M8.5 1C4.912 1 2 3.912 2 7.5C2 11.088 4.912 14 8.5 14C12.088 14 15 11.088 15 7.5C15 3.912 12.088 1 8.5 1ZM7.85 12.6545C5.2825 12.336 3.3 10.152 3.3 7.5C3.3 7.097 3.352 6.7135 3.4365 6.3365L6.55 9.45V10.1C6.55 10.815 7.135 11.4 7.85 11.4V12.6545ZM12.335 11.0035C12.166 10.477 11.685 10.1 11.1 10.1H10.45V8.15C10.45 7.7925 10.1575 7.5 9.8 7.5H5.9V6.2H7.2C7.5575 6.2 7.85 5.9075 7.85 5.55V4.25H9.15C9.865 4.25 10.45 3.665 10.45 2.95V2.6835C12.3545 3.457 13.7 5.3225 13.7 7.5C13.7 8.852 13.18 10.0805 12.335 11.0035Z" fill="#898989"/>
</svg>
