<svg width="20" height="20" viewBox="0 0 20 20" fill="none" xmlns="http://www.w3.org/2000/svg">
<path fill-rule="evenodd" clip-rule="evenodd" d="M9.71321 0C4.44503 0 0.178955 4.48 0.178955 10C0.178955 15.52 4.44503 20 9.71321 20C14.9909 20 19.2665 15.52 19.2665 10C19.2665 4.48 14.9909 0 9.71321 0ZM9.72271 18C5.50435 18 2.08767 14.42 2.08767 10C2.08767 5.58 5.50435 2 9.72271 2C13.9411 2 17.3577 5.58 17.3577 10C17.3577 14.42 13.9411 18 9.72271 18ZM13.0628 9C13.855 9 14.4944 8.33 14.4944 7.5C14.4944 6.67 13.855 6 13.0628 6C12.2707 6 11.6313 6.67 11.6313 7.5C11.6313 8.33 12.2707 9 13.0628 9ZM6.38222 9C7.17436 9 7.81379 8.33 7.81379 7.5C7.81379 6.67 7.17436 6 6.38222 6C5.59009 6 4.95065 6.67 4.95065 7.5C4.95065 8.33 5.59009 9 6.38222 9ZM9.72261 15.5C11.9463 15.5 13.836 14.04 14.5995 12H4.84573C5.60923 14.04 7.4989 15.5 9.72261 15.5Z" fill="#898989"/>
</svg>
