<svg width="48" height="48" fill="none" xmlns="http://www.w3.org/2000/svg"><rect x="6" y="16" width="35" height="16" rx="3" fill="#fff" stroke="#D8D8D8" stroke-width="1.6"/><path d="M23.596 27h1.23v-2.403h2.366v-1.015h-2.366v-1.386h2.622v-1.014h-3.852V27Zm4.657 0h1.21v-4.364h-1.21V27Zm.607-4.926c.361 0 .657-.276.657-.614 0-.335-.296-.61-.657-.61-.357 0-.653.275-.653.61 0 .338.296.614.653.614Zm2.782-.892h-1.21V27h1.21v-5.818Zm2.958 5.903c1.08 0 1.807-.525 1.978-1.335l-1.12-.074c-.122.333-.434.506-.838.506-.605 0-.988-.4-.988-1.051v-.003h2.971v-.332c0-1.483-.897-2.216-2.05-2.216-1.285 0-2.117.912-2.117 2.258 0 1.384.82 2.247 2.164 2.247Zm-.968-2.707a.922.922 0 0 1 .94-.895c.526 0 .89.375.892.895h-1.832Z" fill="#8E8E8E"/><g clip-path="url(#a)"><path d="M20.167 21.917v3.333c0 .92-.747 1.667-1.667 1.667h-5.833c-.92 0-1.667-.747-1.667-1.667v-5h7.5c.92 0 1.667.746 1.667 1.667Z" fill="#BEBEBE"/><path d="M12 19h3a1 1 0 0 1 1 1v1.5h-5V20a1 1 0 0 1 1-1Z" fill="#BEBEBE"/><path fill="#fff" d="M19.334 25.667h.833v2.5h-.833zM18.5 26.5h.833v1.667H18.5zM16 26.5h2.5v1.667H16z"/><circle cx="17.667" cy="25.667" r="3.333" fill="#fff" stroke="#fff" stroke-width=".833"/><circle cx="17.666" cy="25.667" r="1.833" stroke="#BEBEBE" stroke-width="1.167"/><path d="m18.938 26.856 1.735 1.736" stroke="#BEBEBE" stroke-width="1.167"/></g><defs><clipPath id="a"><path fill="#fff" transform="translate(11 19)" d="M0 0h10v10H0z"/></clipPath></defs></svg>
