<svg width="48" height="48" fill="none" xmlns="http://www.w3.org/2000/svg"><rect x="2" y="17" width="44" height="16" rx="3" fill="#fff" stroke="#D8D8D8" stroke-width="1.6"/><path d="M2 20a3 3 0 0 1 3-3h15v16H5a3 3 0 0 1-3-3V20Z" fill="#fff" stroke="#D8D8D8" stroke-width="1.6"/><g clip-path="url(#a)"><path d="M15.167 22.917v3.333c0 .92-.746 1.667-1.667 1.667H7.667C6.747 27.917 6 27.17 6 26.25v-5h7.5c.92 0 1.667.746 1.667 1.667Z" fill="#BEBEBE"/><path d="M7 20h3a1 1 0 0 1 1 1v1.5H6V21a1 1 0 0 1 1-1Z" fill="#BEBEBE"/><path fill="#fff" d="M14.334 26.667h.833v2.5h-.833zM13.5 27.5h.833v1.667H13.5zM11 27.5h2.5v1.667H11z"/><circle cx="12.667" cy="26.667" r="3.333" fill="#fff" stroke="#fff" stroke-width=".833"/><circle cx="12.666" cy="26.667" r="1.833" stroke="#BEBEBE" stroke-width="1.167"/><path d="m13.938 27.856 1.735 1.736" stroke="#BEBEBE" stroke-width="1.167"/></g><defs><clipPath id="a"><path fill="#fff" transform="translate(6 20)" d="M0 0h10v10H0z"/></clipPath></defs></svg>
