<svg width="48" height="48" fill="none" xmlns="http://www.w3.org/2000/svg"><rect x="2" y="9" width="44" height="30" rx="5" fill="#F6F6F6" stroke="#D8D8D8" stroke-width="2" stroke-linecap="round" stroke-dasharray="2 6"/><path d="m10.493 33 .432-1.327h2.1L13.455 33h1.318l-2.005-5.818h-1.586L9.175 33h1.318Zm.744-2.287.716-2.202H12l.715 2.202h-1.477Zm5.62 2.358c.704 0 1.07-.406 1.238-.77h.051V33h1.194v-5.818h-1.208v2.187h-.037c-.162-.355-.511-.79-1.241-.79-.958 0-1.767.745-1.767 2.245 0 1.46.775 2.247 1.77 2.247Zm.383-.963c-.594 0-.918-.528-.918-1.29 0-.756.319-1.275.918-1.275.588 0 .918.497.918 1.275 0 .779-.336 1.29-.918 1.29Zm4.703.963c.704 0 1.07-.406 1.238-.77h.051V33h1.193v-5.818h-1.207v2.187h-.037c-.162-.355-.511-.79-1.241-.79-.958 0-1.767.745-1.767 2.245 0 1.46.775 2.247 1.77 2.247Zm.383-.963c-.594 0-.918-.528-.918-1.29 0-.756.319-1.275.918-1.275.588 0 .918.497.918 1.275 0 .779-.336 1.29-.918 1.29Zm7.293-3.472h-.867v-.292c0-.296.12-.469.475-.469.144 0 .292.031.389.063l.213-.91a3.19 3.19 0 0 0-.855-.119c-.821 0-1.432.463-1.432 1.412v.315h-.617v.91h.617V33h1.21v-3.454h.867v-.91ZM30.358 33h1.21v-4.364h-1.21V33Zm.608-4.926c.36 0 .656-.276.656-.614 0-.335-.295-.61-.656-.61-.358 0-.654.275-.654.61 0 .338.296.614.654.614Zm2.782-.892h-1.21V33h1.21v-5.818Zm2.958 5.903c1.08 0 1.807-.525 1.977-1.335l-1.12-.074c-.121.332-.434.506-.837.506-.605 0-.989-.4-.989-1.051v-.003h2.972v-.332c0-1.483-.898-2.216-2.051-2.216-1.284 0-2.117.912-2.117 2.258 0 1.384.821 2.247 2.165 2.247Zm-.969-2.707a.922.922 0 0 1 .94-.895c.526 0 .89.375.893.895h-1.833Z" fill="#8E8E8E"/><g clip-path="url(#a)"><path d="M28.167 16.917v3.333c0 .92-.747 1.667-1.667 1.667h-5.833c-.92 0-1.667-.747-1.667-1.667v-5h7.5c.92 0 1.667.746 1.667 1.667Z" fill="#BEBEBE"/><path d="M20 14h3a1 1 0 0 1 1 1v1.5h-5V15a1 1 0 0 1 1-1Z" fill="#BEBEBE"/><path fill="#fff" d="M27.334 20.667h.833v2.5h-.833zM26.5 21.5h.833v1.667H26.5zM24 21.5h2.5v1.667H24z"/><circle cx="25.667" cy="20.667" r="3.333" fill="#F5F5F5" stroke="#F5F5F5" stroke-width=".833"/><circle cx="25.666" cy="20.667" r="1.833" stroke="#BEBEBE" stroke-width="1.167"/><path d="m26.938 21.856 1.735 1.736" stroke="#BEBEBE" stroke-width="1.167"/></g><defs><clipPath id="a"><path fill="#fff" transform="translate(19 14)" d="M0 0h10v10H0z"/></clipPath></defs></svg>
