<svg width="24" height="24" viewBox="0 0 24 24" fill="none" xmlns="http://www.w3.org/2000/svg">
<rect width="24" height="24" rx="4" fill="#F9837C"/>
<g clip-path="url(#clip0_705_3)">
<path d="M14.7661 10.0348C14.67 9.73319 14.5407 9.46307 14.3783 9.22443C14.2192 8.98248 14.0286 8.77699 13.8066 8.60795C13.5845 8.43561 13.3309 8.30469 13.0459 8.2152C12.7642 8.12571 12.4543 8.08097 12.1162 8.08097C11.5428 8.08097 11.0258 8.22846 10.5651 8.52344C10.1044 8.81842 9.73979 9.25095 9.47132 9.82102C9.20617 10.3878 9.0736 11.0821 9.0736 11.9041C9.0736 12.7294 9.20783 13.4271 9.4763 13.9972C9.74476 14.5672 10.1127 14.9998 10.58 15.2947C11.0473 15.5897 11.5793 15.7372 12.1759 15.7372C12.7294 15.7372 13.2116 15.6245 13.6226 15.3991C14.0369 15.1738 14.3567 14.8556 14.5821 14.4446C14.8108 14.0303 14.9252 13.5431 14.9252 12.983L15.3229 13.0575H12.4095V11.7898H16.4117V12.9482C16.4117 13.8033 16.2294 14.5457 15.8648 15.1754C15.5035 15.8018 15.003 16.2857 14.3634 16.6271C13.727 16.9685 12.9978 17.1392 12.1759 17.1392C11.2545 17.1392 10.4458 16.9271 9.74973 16.5028C9.05703 16.0786 8.51678 15.477 8.129 14.6982C7.74121 13.916 7.54732 12.9879 7.54732 11.9141C7.54732 11.102 7.66001 10.3729 7.88539 9.72656C8.11077 9.08026 8.42729 8.53172 8.83496 8.08097C9.24595 7.62689 9.72819 7.28054 10.2817 7.0419C10.8385 6.79995 11.4467 6.67898 12.1063 6.67898C12.6565 6.67898 13.1685 6.76018 13.6425 6.92258C14.1198 7.08499 14.544 7.31534 14.9152 7.61364C15.2897 7.91193 15.5996 8.26657 15.8449 8.67756C16.0902 9.08523 16.2559 9.53764 16.3421 10.0348H14.7661Z" fill="white"/>
</g>
<defs>
<clipPath id="clip0_705_3">
<rect width="11" height="17" fill="white" transform="translate(6.5 3)"/>
</clipPath>
</defs>
</svg>
