<svg width="32" height="32" viewBox="0 0 32 32" fill="none" xmlns="http://www.w3.org/2000/svg">
<path fill-rule="evenodd" clip-rule="evenodd" d="M8.00004 13.3334C6.53337 13.3334 5.33337 14.5334 5.33337 16C5.33337 17.4667 6.53337 18.6667 8.00004 18.6667C9.46671 18.6667 10.6667 17.4667 10.6667 16C10.6667 14.5334 9.46671 13.3334 8.00004 13.3334ZM24 13.3334C22.5334 13.3334 21.3334 14.5334 21.3334 16C21.3334 17.4667 22.5334 18.6667 24 18.6667C25.4667 18.6667 26.6667 17.4667 26.6667 16C26.6667 14.5334 25.4667 13.3334 24 13.3334ZM16 13.3334C14.5334 13.3334 13.3334 14.5334 13.3334 16C13.3334 17.4667 14.5334 18.6667 16 18.6667C17.4667 18.6667 18.6667 17.4667 18.6667 16C18.6667 14.5334 17.4667 13.3334 16 13.3334Z" fill="#898989"/>
</svg>
