<svg width="48" height="48" viewBox="0 0 48 48" fill="none" xmlns="http://www.w3.org/2000/svg">
<path d="M41 6H7C4.79086 6 3 7.79086 3 10V38C3 40.2091 4.79086 42 7 42H41C43.2091 42 45 40.2091 45 38V10C45 7.79086 43.2091 6 41 6Z" fill="white" stroke="#D8D8D8" stroke-width="1.6"/>
<path d="M8.84601 19.9998C8.62164 19.9998 8.40646 19.9107 8.2478 19.752C8.08914 19.5933 8.00001 19.3782 8.00001 19.1538V12.8458C7.99611 12.7323 8.01509 12.6192 8.05582 12.5132C8.09655 12.4072 8.15821 12.3105 8.2371 12.2289C8.316 12.1472 8.41053 12.0823 8.51506 12.0379C8.61958 11.9936 8.73197 11.9707 8.84551 11.9707C8.95906 11.9707 9.07144 11.9936 9.17597 12.0379C9.28049 12.0823 9.37502 12.1472 9.45392 12.2289C9.53282 12.3105 9.59447 12.4072 9.6352 12.5132C9.67593 12.6192 9.69492 12.7323 9.69101 12.8458V15.2998H13.125V12.8438C13.125 12.6199 13.2139 12.4053 13.3722 12.247C13.5305 12.0887 13.7452 11.9998 13.969 11.9998C14.1929 11.9998 14.4075 12.0887 14.5658 12.247C14.7241 12.4053 14.813 12.6199 14.813 12.8438V19.1558C14.813 19.3796 14.7241 19.5943 14.5658 19.7526C14.4075 19.9109 14.1929 19.9998 13.969 19.9998C13.7452 19.9998 13.5305 19.9109 13.3722 19.7526C13.2139 19.5943 13.125 19.3796 13.125 19.1558V16.6958H9.69101V19.1538C9.69101 19.378 9.60202 19.593 9.44358 19.7516C9.28514 19.9103 9.07021 19.9995 8.84601 19.9998ZM16.93 13.3948C16.745 13.3948 16.5676 13.3213 16.4368 13.1905C16.306 13.0597 16.2325 12.8823 16.2325 12.6973C16.2325 12.5123 16.306 12.3349 16.4368 12.2041C16.5676 12.0733 16.745 11.9998 16.93 11.9998H22.105C22.29 11.9998 22.4674 12.0733 22.5982 12.2041C22.729 12.3349 22.8025 12.5123 22.8025 12.6973C22.8025 12.8823 22.729 13.0597 22.5982 13.1905C22.4674 13.3213 22.29 13.3948 22.105 13.3948H20.353V19.1648C20.353 19.3865 20.2649 19.5991 20.1082 19.7559C19.9514 19.9127 19.7387 20.0008 19.517 20.0008C19.2953 20.0008 19.0827 19.9127 18.9259 19.7559C18.7691 19.5991 18.681 19.3865 18.681 19.1648V13.3948H16.93ZM24.215 13.2218C24.215 12.5468 24.762 11.9998 25.437 11.9998H25.481C25.977 11.9998 26.423 12.2998 26.611 12.7588L28.504 17.3748H28.597L30.49 12.7588C30.5819 12.5345 30.7383 12.3425 30.9395 12.2074C31.1408 12.0722 31.3776 12 31.62 11.9998H31.664C32.339 11.9998 32.887 12.5468 32.887 13.2218V19.1798C32.887 19.3973 32.8006 19.6058 32.6468 19.7596C32.4931 19.9134 32.2845 19.9998 32.067 19.9998C31.8495 19.9998 31.641 19.9134 31.4872 19.7596C31.3334 19.6058 31.247 19.3973 31.247 19.1798V14.7928H31.18L29.317 19.4428C29.2557 19.5958 29.1499 19.727 29.0133 19.8194C28.8767 19.9117 28.7156 19.961 28.5507 19.9609C28.3858 19.9608 28.2247 19.9113 28.0882 19.8188C27.9518 19.7262 27.8461 19.5949 27.785 19.4418L25.922 14.7728H25.855V19.1798C25.855 19.3973 25.7686 19.6058 25.6148 19.7596C25.4611 19.9134 25.2525 19.9998 25.035 19.9998C24.8175 19.9998 24.609 19.9134 24.4552 19.7596C24.3014 19.6058 24.215 19.3973 24.215 19.1798V13.2218ZM35.832 19.9998C35.5079 19.9998 35.1971 19.871 34.9679 19.6419C34.7388 19.4127 34.61 19.1019 34.61 18.7778V12.8458C34.6061 12.7323 34.6251 12.6192 34.6658 12.5132C34.7066 12.4072 34.7682 12.3105 34.8471 12.2289C34.926 12.1472 35.0205 12.0823 35.1251 12.0379C35.2296 11.9936 35.342 11.9707 35.4555 11.9707C35.5691 11.9707 35.6814 11.9936 35.786 12.0379C35.8905 12.0823 35.985 12.1472 36.0639 12.2289C36.1428 12.3105 36.2045 12.4072 36.2452 12.5132C36.2859 12.6192 36.3049 12.7323 36.301 12.8458V18.6058H39.034C39.219 18.6058 39.3964 18.6793 39.5272 18.8101C39.658 18.9409 39.7315 19.1183 39.7315 19.3033C39.7315 19.4883 39.658 19.6657 39.5272 19.7965C39.3964 19.9273 39.219 20.0008 39.034 20.0008H35.832V19.9998Z" fill="#B2B2B2"/>
<path opacity="0.5" d="M39 30H8C7.73478 30 7.48043 30.1054 7.29289 30.2929C7.10536 30.4804 7 30.7348 7 31C7 31.2652 7.10536 31.5196 7.29289 31.7071C7.48043 31.8946 7.73478 32 8 32H39C39.2652 32 39.5196 31.8946 39.7071 31.7071C39.8946 31.5196 40 31.2652 40 31C40 30.7348 39.8946 30.4804 39.7071 30.2929C39.5196 30.1054 39.2652 30 39 30ZM39 25H8C7.73478 25 7.48043 25.1054 7.29289 25.2929C7.10536 25.4804 7 25.7348 7 26C7 26.2652 7.10536 26.5196 7.29289 26.7071C7.48043 26.8946 7.73478 27 8 27H39C39.2652 27 39.5196 26.8946 39.7071 26.7071C39.8946 26.5196 40 26.2652 40 26C40 25.7348 39.8946 25.4804 39.7071 25.2929C39.5196 25.1054 39.2652 25 39 25ZM28 35H8C7.73478 35 7.48043 35.1054 7.29289 35.2929C7.10536 35.4804 7 35.7348 7 36C7 36.2652 7.10536 36.5196 7.29289 36.7071C7.48043 36.8946 7.73478 37 8 37H28C28.2652 37 28.5196 36.8946 28.7071 36.7071C28.8946 36.5196 29 36.2652 29 36C29 35.7348 28.8946 35.4804 28.7071 35.2929C28.5196 35.1054 28.2652 35 28 35Z" fill="#D8D8D8"/>
</svg>
