<svg width="48" height="48" fill="none" xmlns="http://www.w3.org/2000/svg"><mask id="a" fill="#fff"><path d="M18.667 7.875H9.333A2.333 2.333 0 0 0 7 10.208V16.917a2.334 2.334 0 0 0 2.334 2.333h9.332A2.334 2.334 0 0 0 21 16.917V10.208a2.333 2.333 0 0 0-2.333-2.333Z"/></mask><path d="M9.333 9.625h9.334v-3.5H9.333v3.5Zm9.333 7.875H9.334V21h9.332v-3.5Zm-9.916-.583v-5.405h-3.5v5.405h3.5Zm0-5.405v-1.304h-3.5v1.304h3.5Zm10.5-1.304v1.304h3.5v-1.304h-3.5Zm0 1.304v5.405h3.5v-5.405h-3.5ZM9.334 17.5a.584.584 0 0 1-.584-.583h-3.5A4.084 4.084 0 0 0 9.334 21v-3.5Zm9.332 3.5a4.084 4.084 0 0 0 4.084-4.083h-3.5a.584.584 0 0 1-.584.583V21Zm0-11.375c.323 0 .584.261.584.583h3.5a4.083 4.083 0 0 0-4.083-4.083v3.5Zm-9.333-3.5a4.083 4.083 0 0 0-4.083 4.083h3.5c0-.322.261-.583.583-.583v-3.5Z" fill="#BEBEBE" mask="url(#a)"/><path fill="#BEBEBE" d="M7.875 9.625h12.25v1.75H7.875z"/><path d="M17.5 13.125h-7M14 15.75h-3.5" stroke="#BEBEBE" stroke-width="1.75" stroke-linecap="round"/><g clip-path="url(#b)"><path d="M27.222 11.043c1.558 5.326 4.44 8.207 9.765 9.766a1.717 1.717 0 0 0 1.69-.45l1.87-1.869a.892.892 0 0 0-.173-1.395l-1.958-1.175a.892.892 0 0 0-.977.04l-1.526 1.089a.88.88 0 0 1-.866.091c-2.37-1.047-3.11-1.787-4.156-4.157a.88.88 0 0 1 .091-.866l1.09-1.525a.892.892 0 0 0 .039-.977l-1.175-1.958a.892.892 0 0 0-1.396-.172l-1.868 1.868a1.716 1.716 0 0 0-.45 1.69Z" fill="#BEBEBE"/></g><path fill-rule="evenodd" clip-rule="evenodd" d="M15.033 27.149a1.784 1.784 0 0 0-2.051.021L7.3 31.253a.723.723 0 0 0 .422 1.31H8.75v4.813a.875.875 0 0 0 0 1.75h10.5a.875.875 0 1 0 0-1.75v-4.813h.89a.86.86 0 0 0 .487-1.568l-5.594-3.846ZM11.156 33a.656.656 0 0 0-.656.656v3.063a.656.656 0 0 0 1.313 0v-3.063a.656.656 0 0 0-.657-.656Zm2.188.656a.656.656 0 0 1 1.312 0v3.063a.656.656 0 0 1-1.312 0v-3.063Zm3.5-.656a.656.656 0 0 0-.656.656v3.063a.656.656 0 0 0 1.312 0v-3.063a.656.656 0 0 0-.656-.656ZM27.875 28.23a2.23 2.23 0 0 1 2.23-2.23h4.29a2.23 2.23 0 0 1 2.23 2.23V40H34v-1.733c0-.493-.4-.892-.892-.892h-1.716c-.493 0-.892.4-.892.892V40h-2.625V28.23Zm1.75 3.895a.875.875 0 1 1 1.75 0 .875.875 0 0 1-1.75 0Zm.875-3.5a.875.875 0 1 0 0 1.75.875.875 0 0 0 0-1.75Zm-.875 6.125a.875.875 0 1 1 1.75 0 .875.875 0 0 1-1.75 0ZM34 31.25A.875.875 0 1 0 34 33a.875.875 0 0 0 0-1.75Zm-.875-1.75a.875.875 0 1 1 1.75 0 .875.875 0 0 1-1.75 0ZM34 33.875a.875.875 0 1 0 0 1.75.875.875 0 0 0 0-1.75ZM36.843 40h.656v-9.625h.396a2.23 2.23 0 0 1 2.23 2.23V40h-3.282Z" fill="#BEBEBE"/><defs><clipPath id="b"><path fill="#fff" transform="rotate(-90 24 -3)" d="M0 0h14v14H0z"/></clipPath></defs></svg>