<svg width="48" height="48" viewBox="0 0 48 48" fill="none" xmlns="http://www.w3.org/2000/svg">
<path d="M41 6H7C4.79086 6 3 7.79086 3 10V38C3 40.2091 4.79086 42 7 42H41C43.2091 42 45 40.2091 45 38V10C45 7.79086 43.2091 6 41 6Z" fill="white" stroke="#D8D8D8" stroke-width="1.6"/>
<path d="M34 6H41C42.0609 6 43.0783 6.42143 43.8284 7.17157C44.5786 7.92172 45 8.93913 45 10V38C45 39.0609 44.5786 40.0783 43.8284 40.8284C43.0783 41.5786 42.0609 42 41 42H34V6Z" fill="#F7F7F7" stroke="#D8D8D8" stroke-width="1.6"/>
<path d="M37 27L39.5 30L42 27M42 21L39.5 18L37 21" stroke="#949494" stroke-width="1.6" stroke-linecap="round" stroke-linejoin="round"/>
<path d="M9 7H32V21H9V7Z" fill="white"/>
<path opacity="0.5" d="M28 30H8C7.73478 30 7.48043 30.1054 7.29289 30.2929C7.10536 30.4804 7 30.7348 7 31C7 31.2652 7.10536 31.5196 7.29289 31.7071C7.48043 31.8946 7.73478 32 8 32H28C28.2652 32 28.5196 31.8946 28.7071 31.7071C28.8946 31.5196 29 31.2652 29 31C29 30.7348 28.8946 30.4804 28.7071 30.2929C28.5196 30.1054 28.2652 30 28 30ZM28 25H8C7.73478 25 7.48043 25.1054 7.29289 25.2929C7.10536 25.4804 7 25.7348 7 26C7 26.2652 7.10536 26.5196 7.29289 26.7071C7.48043 26.8946 7.73478 27 8 27H28C28.2652 27 28.5196 26.8946 28.7071 26.7071C28.8946 26.5196 29 26.2652 29 26C29 25.7348 28.8946 25.4804 28.7071 25.2929C28.5196 25.1054 28.2652 25 28 25ZM21 35H8C7.73478 35 7.48043 35.1054 7.29289 35.2929C7.10536 35.4804 7 35.7348 7 36C7 36.2652 7.10536 36.5196 7.29289 36.7071C7.48043 36.8946 7.73478 37 8 37H21C21.2652 37 21.5196 36.8946 21.7071 36.7071C21.8946 36.5196 22 36.2652 22 36C22 35.7348 21.8946 35.4804 21.7071 35.2929C21.5196 35.1054 21.2652 35 21 35Z" fill="#D8D8D8"/>
<path d="M18.5611 14.0108L16.3681 11.7498C15.9126 11.2844 15.2943 11.0138 14.6433 10.9952C13.9923 10.9765 13.3595 11.2112 12.8781 11.6498L12.7711 11.7498C12.5365 11.9637 12.3474 12.2227 12.215 12.5112C12.0827 12.7998 12.0099 13.1121 12.0009 13.4294C11.992 13.7468 12.0471 14.0627 12.1629 14.3583C12.2787 14.6538 12.4529 14.9231 12.6751 15.1498L14.8671 17.4118M16.6301 19.2308L18.5371 21.1968C19.0064 21.6758 19.6432 21.954 20.3135 21.9731C20.9838 21.9921 21.6353 21.7504 22.1311 21.2988V21.2988C22.3728 21.0786 22.5677 20.8119 22.704 20.5147C22.8404 20.2176 22.9155 19.8959 22.9249 19.5691C22.9342 19.2422 22.8776 18.9168 22.7584 18.6123C22.6392 18.3078 22.4598 18.0305 22.2311 17.7968L20.3241 15.8298M19.1031 18.1258L15.8531 14.8758" stroke="#B2B2B2" stroke-width="1.625" stroke-linecap="round"/>
</svg>
