<svg width="48" height="48" viewBox="0 0 48 48" fill="none" xmlns="http://www.w3.org/2000/svg">
<rect x="0.8" y="6.8" width="20.4" height="14.4" rx="3.2" fill="white" stroke="#787878" stroke-width="1.6"/>
<circle cx="4.92106" cy="10.921" r="2.02632" fill="#EECA86"/>
<path d="M12.9203 11.4189C13.3051 10.7879 14.2178 10.7779 14.6163 11.4003L18.6987 17.7766C19.1249 18.4422 18.6469 19.3158 17.8565 19.3158H9.88623C9.10575 19.3158 8.62611 18.4615 9.03243 17.7952L12.9203 11.4189Z" fill="#82BF99"/>
<path d="M6.4127 15.8828C6.81004 15.3049 7.66343 15.3048 8.06079 15.8828L9.34402 17.7492C9.8002 18.4127 9.32518 19.3158 8.51999 19.3158H5.95363C5.14846 19.3158 4.67344 18.4128 5.12958 17.7493L6.4127 15.8828Z" fill="#82BF99"/>
<rect x="8" y="18.32" width="3" height="1" fill="#82BF99"/>
<rect x="0.8" y="26.8" width="20.4" height="14.4" rx="3.2" fill="white" stroke="#787878" stroke-width="1.6"/>
<circle cx="4.92106" cy="30.921" r="2.02632" fill="#EECA86"/>
<path d="M12.9203 31.4189C13.3051 30.7879 14.2178 30.7779 14.6163 31.4003L18.6987 37.7766C19.1249 38.4422 18.6469 39.3158 17.8565 39.3158H9.88623C9.10575 39.3158 8.62611 38.4615 9.03243 37.7952L12.9203 31.4189Z" fill="#82BF99"/>
<path d="M6.4127 35.8828C6.81004 35.3049 7.66343 35.3048 8.06079 35.8828L9.34402 37.7492C9.8002 38.4127 9.32518 39.3158 8.51999 39.3158H5.95363C5.14846 39.3158 4.67344 38.4128 5.12958 37.7493L6.4127 35.8828Z" fill="#82BF99"/>
<rect x="8" y="38.32" width="3" height="1" fill="#82BF99"/>
<rect x="26.8" y="6.8" width="20.4" height="14.4" rx="3.2" fill="white" stroke="#787878" stroke-width="1.6"/>
<circle cx="30.9211" cy="10.921" r="2.02632" fill="#EECA86"/>
<path d="M38.9203 11.4189C39.3051 10.7879 40.2178 10.7779 40.6163 11.4003L44.6987 17.7766C45.1249 18.4422 44.6469 19.3158 43.8565 19.3158H35.8862C35.1057 19.3158 34.6261 18.4615 35.0324 17.7952L38.9203 11.4189Z" fill="#82BF99"/>
<path d="M32.4127 15.8828C32.81 15.3049 33.6634 15.3048 34.0608 15.8828L35.344 17.7492C35.8002 18.4127 35.3252 19.3158 34.52 19.3158H31.9536C31.1485 19.3158 30.6734 18.4128 31.1296 17.7493L32.4127 15.8828Z" fill="#82BF99"/>
<rect x="34" y="18.32" width="3" height="1" fill="#82BF99"/>
<rect x="26.8" y="26.8" width="20.4" height="14.4" rx="3.2" fill="white" stroke="#787878" stroke-width="1.6"/>
<circle cx="30.9211" cy="30.921" r="2.02632" fill="#EECA86"/>
<path d="M38.9203 31.4189C39.3051 30.7879 40.2178 30.7779 40.6163 31.4003L44.6987 37.7766C45.1249 38.4422 44.6469 39.3158 43.8565 39.3158H35.8862C35.1057 39.3158 34.6261 38.4615 35.0324 37.7952L38.9203 31.4189Z" fill="#82BF99"/>
<path d="M32.4127 35.8828C32.81 35.3049 33.6634 35.3048 34.0608 35.8828L35.344 37.7492C35.8002 38.4127 35.3252 39.3158 34.52 39.3158H31.9536C31.1485 39.3158 30.6734 38.4128 31.1296 37.7493L32.4127 35.8828Z" fill="#82BF99"/>
<rect x="34" y="38.32" width="3" height="1" fill="#82BF99"/>
</svg>
