<svg width="16" height="16" viewBox="0 0 16 16" fill="none" xmlns="http://www.w3.org/2000/svg">
<path fill-rule="evenodd" clip-rule="evenodd" d="M7.33301 11.3333H8.66634V7.33325H7.33301V11.3333ZM7.99967 1.33325C4.31967 1.33325 1.33301 4.31992 1.33301 7.99992C1.33301 11.6799 4.31967 14.6666 7.99967 14.6666C11.6797 14.6666 14.6663 11.6799 14.6663 7.99992C14.6663 4.31992 11.6797 1.33325 7.99967 1.33325ZM7.99967 13.3333C5.05967 13.3333 2.66634 10.9399 2.66634 7.99992C2.66634 5.05992 5.05967 2.66659 7.99967 2.66659C10.9397 2.66659 13.333 5.05992 13.333 7.99992C13.333 10.9399 10.9397 13.3333 7.99967 13.3333ZM7.33301 5.99992H8.66634V4.66659H7.33301V5.99992Z" fill="#84818A"/>
</svg>
