<svg width="48" height="48" fill="none" xmlns="http://www.w3.org/2000/svg"><path d="M10 10H6a2 2 0 0 0-2 2v4M38 38h4a2 2 0 0 0 2-2v-4M44 16v-4a2 2 0 0 0-2-2h-4M4 32v4a2 2 0 0 0 2 2h4" stroke="#DEDEDE" stroke-width="1.6"/><path d="M16 34h19M16 29h24" stroke="#DEDEDE" stroke-width="2"/><path d="M13.174 30.757a1 1 0 0 1 0 1.486l-2.505 2.255c-.644.58-1.669.122-1.669-.743v-4.51c0-.865 1.025-1.322 1.669-.743l2.505 2.255Z" fill="#BEBEBE"/><path d="M13.44 15.454v4.564c-.003.63-.284.962-.795.962-.483 0-.796-.3-.806-.82h-1.377c-.007 1.306.927 1.93 2.112 1.93 1.327 0 2.231-.803 2.234-2.072v-4.564H13.44Zm6.333 1.883H21.1c-.02-1.166-.978-1.972-2.436-1.972-1.435 0-2.486.793-2.48 1.982-.003.965.678 1.518 1.784 1.783l.712.179c.713.172 1.11.377 1.112.818-.003.48-.457.806-1.16.806-.719 0-1.237-.333-1.281-.988h-1.34c.036 1.416 1.049 2.148 2.637 2.148 1.598 0 2.538-.764 2.541-1.963-.003-1.09-.825-1.668-1.962-1.924l-.588-.14c-.57-.131-1.045-.342-1.036-.812 0-.422.374-.732 1.052-.732.661 0 1.067.3 1.118.815Zm8.632 1.39c0-2.141-1.33-3.362-3.065-3.362-1.745 0-3.065 1.22-3.065 3.362 0 2.132 1.32 3.363 3.065 3.363 1.735 0 3.065-1.221 3.065-3.363Zm-1.403 0c0 1.387-.659 2.138-1.662 2.138-1.007 0-1.662-.75-1.662-2.138 0-1.387.655-2.138 1.662-2.138 1.003 0 1.662.751 1.662 2.138Zm8.173-3.273h-1.378v4.117h-.057l-2.826-4.117H29.7V22h1.384v-4.12h.048L33.979 22h1.196v-6.546Z" fill="#757575"/></svg>
