<svg width="89" height="20" viewBox="0 0 89 20" fill="none" xmlns="http://www.w3.org/2000/svg">
<path d="M1.91576 5.74729H2.18944C3.24311 5.74729 4.10521 6.60939 4.10521 7.66306V17.2419C4.10521 18.2955 3.24311 19.1576 2.18944 19.1576H1.91576C0.862094 19.1576 0 18.2955 0 17.2419V7.66306C0 6.60939 0.862094 5.74729 1.91576 5.74729ZM9.57882 0C10.6325 0 11.4946 0.862094 11.4946 1.91576V17.2419C11.4946 18.2955 10.6325 19.1576 9.57882 19.1576C8.52515 19.1576 7.66306 18.2955 7.66306 17.2419V1.91576C7.66306 0.862094 8.52515 0 9.57882 0ZM17.2419 10.9472C18.2955 10.9472 19.1576 11.8093 19.1576 12.863V17.2419C19.1576 18.2955 18.2955 19.1576 17.2419 19.1576C16.1882 19.1576 15.3261 18.2955 15.3261 17.2419V12.863C15.3261 11.8093 16.1882 10.9472 17.2419 10.9472Z" fill="#775DA6"/>
<path d="M24.9158 5.74729H25.1894C26.2431 5.74729 27.1052 6.60939 27.1052 7.66306V17.2419C27.1052 18.2955 26.2431 19.1576 25.1894 19.1576H24.9158C23.8621 19.1576 23 18.2955 23 17.2419V7.66306C23 6.60939 23.8621 5.74729 24.9158 5.74729ZM32.5788 0C33.6325 0 34.4946 0.862094 34.4946 1.91576V17.2419C34.4946 18.2955 33.6325 19.1576 32.5788 19.1576C31.5251 19.1576 30.6631 18.2955 30.6631 17.2419V1.91576C30.6631 0.862094 31.5251 0 32.5788 0ZM40.2419 10.9472C41.2955 10.9472 42.1576 11.8093 42.1576 12.863V17.2419C42.1576 18.2955 41.2955 19.1576 40.2419 19.1576C39.1882 19.1576 38.3261 18.2955 38.3261 17.2419V12.863C38.3261 11.8093 39.1882 10.9472 40.2419 10.9472Z" fill="#775DA6"/>
<path d="M47.9158 5.74729H48.1894C49.2431 5.74729 50.1052 6.60939 50.1052 7.66306V17.2419C50.1052 18.2955 49.2431 19.1576 48.1894 19.1576H47.9158C46.8621 19.1576 46 18.2955 46 17.2419V7.66306C46 6.60939 46.8621 5.74729 47.9158 5.74729ZM55.5788 0C56.6325 0 57.4946 0.862094 57.4946 1.91576V17.2419C57.4946 18.2955 56.6325 19.1576 55.5788 19.1576C54.5251 19.1576 53.6631 18.2955 53.6631 17.2419V1.91576C53.6631 0.862094 54.5251 0 55.5788 0ZM63.2419 10.9472C64.2955 10.9472 65.1576 11.8093 65.1576 12.863V17.2419C65.1576 18.2955 64.2955 19.1576 63.2419 19.1576C62.1882 19.1576 61.3261 18.2955 61.3261 17.2419V12.863C61.3261 11.8093 62.1882 10.9472 63.2419 10.9472Z" fill="#775DA6"/>
<path d="M70.9158 5.74729H71.1894C72.2431 5.74729 73.1052 6.60939 73.1052 7.66306V17.2419C73.1052 18.2955 72.2431 19.1576 71.1894 19.1576H70.9158C69.8621 19.1576 69 18.2955 69 17.2419V7.66306C69 6.60939 69.8621 5.74729 70.9158 5.74729ZM78.5788 0C79.6325 0 80.4946 0.862094 80.4946 1.91576V17.2419C80.4946 18.2955 79.6325 19.1576 78.5788 19.1576C77.5251 19.1576 76.6631 18.2955 76.6631 17.2419V1.91576C76.6631 0.862094 77.5251 0 78.5788 0ZM86.2419 10.9472C87.2955 10.9472 88.1576 11.8093 88.1576 12.863V17.2419C88.1576 18.2955 87.2955 19.1576 86.2419 19.1576C85.1882 19.1576 84.3261 18.2955 84.3261 17.2419V12.863C84.3261 11.8093 85.1882 10.9472 86.2419 10.9472Z" fill="#775DA6"/>
</svg>
