<svg width="17" height="15" viewBox="0 0 17 15" fill="none" xmlns="http://www.w3.org/2000/svg">
<path fill-rule="evenodd" clip-rule="evenodd" d="M2.00106 3.53557H1.97707C0.777634 3.53557 0 2.75661 0 1.76923C0 0.76263 0.800623 0 2.02405 0C3.24647 0 3.99812 0.76071 4.02211 1.76634C4.02211 2.75373 3.24647 3.53557 2.00106 3.53557ZM17 15H13.2428V9.7269C13.2428 8.34667 12.655 7.40443 11.3627 7.40443C10.3741 7.40443 9.82438 8.04028 9.5685 8.65307C9.48401 8.84673 9.48554 9.1074 9.48711 9.37608V9.37609V9.37614C9.48732 9.4126 9.48754 9.44921 9.48754 9.48582V15H5.76529C5.76529 15 5.81326 5.65922 5.76529 4.81014H9.48754V6.40936C9.70743 5.71012 10.8969 4.71217 12.795 4.71217C15.1499 4.71217 17 6.17788 17 9.33406V15ZM3.74224 4.81014H0.428798V15H3.74224V4.81014Z" fill="#007EBB"/>
</svg>
