<svg width="48" height="48" viewBox="0 0 48 48" fill="none" xmlns="http://www.w3.org/2000/svg">
<rect x="5" y="5" width="39" height="36" rx="3" fill="white" stroke="#D8D8D8" stroke-width="1.6"/>
<line x1="12" y1="34" x2="37" y2="34" stroke="#DEDEDE" stroke-width="2" stroke-linecap="round"/>
<line x1="12" y1="29" x2="27" y2="29" stroke="#DEDEDE" stroke-width="2" stroke-linecap="round"/>
<rect x="11" y="10" width="13" height="13" rx="2" fill="#F7CE3B" fill-opacity="0.3"/>
<path fill-rule="evenodd" clip-rule="evenodd" d="M16.8988 13.1234C16.8988 12.7921 17.1674 12.5234 17.4988 12.5234C17.8302 12.5234 18.0988 12.7921 18.0988 13.1234V16.1749L18.762 15.5117C18.9964 15.2774 19.3763 15.2774 19.6106 15.5117C19.8449 15.746 19.8449 16.1259 19.6106 16.3602L17.9231 18.0477C17.6888 18.282 17.3089 18.282 17.0745 18.0477L15.387 16.3602C15.1527 16.1259 15.1527 15.746 15.387 15.5117C15.6214 15.2774 16.0013 15.2774 16.2356 15.5117L16.8988 16.1749V13.1234ZM14.7249 18.7499V18.1874C14.7249 17.856 14.4563 17.5874 14.1249 17.5874C13.7935 17.5874 13.5249 17.856 13.5249 18.1874V18.7499C13.5249 19.7026 14.2972 20.4749 15.2499 20.4749L19.7499 20.4749C20.7026 20.4749 21.4749 19.7026 21.4749 18.7499L21.4749 18.1874C21.4749 17.856 21.2063 17.5874 20.8749 17.5874C20.5435 17.5874 20.2749 17.856 20.2749 18.1874L20.2749 18.7499C20.2749 19.0399 20.0399 19.2749 19.7499 19.2749L15.2499 19.2749C14.96 19.2749 14.7249 19.0399 14.7249 18.7499Z" fill="#F7CE3B"/>
</svg>
