<svg width="24" height="24" viewBox="0 0 24 24" fill="none" xmlns="http://www.w3.org/2000/svg">
<path fill-rule="evenodd" clip-rule="evenodd" d="M5.94621 17.9741C4.73706 16.7649 4.7862 14.75 6.05581 13.4804L9.02566 10.5106L7.68216 9.16708L4.71231 12.1369C2.66312 14.1861 2.58392 17.4332 4.53553 19.3848C6.48715 21.3364 9.73418 21.2572 11.7834 19.208L14.7532 16.2382L13.4097 14.8946L10.4399 17.8645C9.17027 19.1341 7.15536 19.1833 5.94621 17.9741ZM9.69741 15.6371L15.6371 9.69741L14.2229 8.2832L8.2832 14.2229L9.69741 15.6371ZM12.1369 4.71231L9.16708 7.68216L10.5106 9.02566L13.4804 6.05581C14.75 4.7862 16.7649 4.73706 17.9741 5.94621C19.1833 7.15537 19.1341 9.17027 17.8645 10.4399L14.8946 13.4097L16.2382 14.7532L19.208 11.7834C21.2572 9.73418 21.3364 6.48715 19.3848 4.53553C17.4332 2.58392 14.1861 2.66312 12.1369 4.71231Z" fill="#898989"/>
</svg>
