<svg width="48" height="48" fill="none" xmlns="http://www.w3.org/2000/svg"><path stroke="#DEDEDE" stroke-width="2" stroke-linecap="round" d="M20 12h14M20 24h22.5M20 36h18"/><path fill-rule="evenodd" clip-rule="evenodd" d="M8.52 13.371a2.768 2.768 0 0 0 3.916 0 .6.6 0 0 1 .848.849 3.969 3.969 0 1 1-.117-5.725l.627-.619a.394.394 0 0 1 .67.282l-.007 2.034a.394.394 0 0 1-.395.392l-2.045-.007a.394.394 0 0 1-.275-.673l.57-.564a2.769 2.769 0 0 0-3.791 4.031ZM9.899 20.173a.6.6 0 1 1 1.2 0v3.052l.663-.663a.6.6 0 1 1 .849.848l-1.688 1.688a.6.6 0 0 1-.848 0L8.387 23.41a.6.6 0 1 1 .849-.848l.663.663v-3.052ZM7.725 25.8v-.563a.6.6 0 1 0-1.2 0v.563c0 .953.772 1.725 1.725 1.725h4.5c.953 0 1.725-.772 1.725-1.725v-.563a.6.6 0 1 0-1.2 0v.563c0 .29-.235.525-.525.525h-4.5a.525.525 0 0 1-.525-.525ZM13.866 36.828a3.376 3.376 0 0 1-3.034 3.102l1.77-1.77a.984.984 0 0 0 .289-.696v-.049a.984.984 0 0 0-.985-.984h-.61a.14.14 0 0 1-.1-.041l-.514-.515a.985.985 0 0 0-.696-.288H8.832c-.007 0-.014 0-.02-.002l-.286-.38.42-.42a.141.141 0 0 1 .1-.042h.659a.984.984 0 0 0 .696-.288.978.978 0 0 0 .112-1.259 3.368 3.368 0 0 1 2.553 1.182.737.737 0 0 0-.597.741c0 .118.027.234.08.34l.504 1.008a.7.7 0 0 0 .813.36Zm-6.741-.257a3.377 3.377 0 0 0 2.39 3.23v-1.309a.14.14 0 0 0-.04-.1l-.316-.316a.985.985 0 0 1-.218-.33l-.492-1.23a.142.142 0 0 0-.018-.032l.124-.093-.124.093-.186-.248a.983.983 0 0 1-.232-.244l-.291-.437a.928.928 0 0 1-.372-.198 3.367 3.367 0 0 0-.225 1.214Zm7.875 0a4.5 4.5 0 1 1-9 0 4.5 4.5 0 0 1 9 0Z" fill="#B2B2B2"/></svg>
