<svg width="48" height="48" fill="none" xmlns="http://www.w3.org/2000/svg"><g clip-path="url(#a)"><rect x="4" y="7" width="40" height="32" rx="2" fill="#fff"/><path d="M10 7H6a2 2 0 0 0-2 2v4M38 39h4a2 2 0 0 0 2-2v-4M44 13V9a2 2 0 0 0-2-2h-4M4 33v4a2 2 0 0 0 2 2h4" stroke="#DEDEDE" stroke-width="1.6"/><circle cx="14" cy="22" r="3" stroke="#615286" stroke-width="2"/><circle cx="10.5" cy="17.5" r="1.7" stroke="#615286" stroke-width="1.6"/><circle cx="13" cy="14" r="1.3" stroke="#615286" stroke-width="1.4"/><circle cx="11.5" cy="11.5" r=".9" stroke="#615286" stroke-width="1.2"/><rect x="25" y="12" width="22" height="3" rx="1" transform="rotate(90 25 12)" fill="#D8D8D8"/><rect x="35" y="17" width="17" height="3" rx="1" transform="rotate(90 35 17)" fill="#D8D8D8"/><rect x="30" y="20" width="14" height="3" rx="1" transform="rotate(90 30 20)" fill="#D8D8D8"/><rect x="40" y="20" width="14" height="3" rx="1" transform="rotate(90 40 20)" fill="#D8D8D8"/></g><defs><clipPath id="a"><path fill="#fff" d="M0 0h48v48H0z"/></clipPath></defs></svg>