<svg width="16" height="16" viewBox="0 0 16 16" fill="none" xmlns="http://www.w3.org/2000/svg">
<path fill-rule="evenodd" clip-rule="evenodd" d="M13.3333 4.00004H11.3333V2.66671C11.3333 1.92671 10.7399 1.33337 9.99992 1.33337H5.99992C5.25992 1.33337 4.66659 1.92671 4.66659 2.66671V4.00004H2.66659C1.92659 4.00004 1.33325 4.59337 1.33325 5.33337V12.6667C1.33325 13.4067 1.92659 14 2.66659 14H13.3333C14.0733 14 14.6666 13.4067 14.6666 12.6667V5.33337C14.6666 4.59337 14.0733 4.00004 13.3333 4.00004ZM5.99992 2.66671H9.99992V4.00004H5.99992V2.66671ZM13.3333 12.6667H2.66659V11.3334H13.3333V12.6667ZM13.3333 9.33337H2.66659V5.33337H4.66659V6.66671H5.99992V5.33337H9.99992V6.66671H11.3333V5.33337H13.3333V9.33337Z" fill="#898989"/>
</svg>
