<svg width="48" height="48" fill="none" xmlns="http://www.w3.org/2000/svg"><rect x="6" y="6" width="36" height="36" rx="2" fill="#fff"/><path d="m19.05 12.923 7.65-5.538h14.4V36L19.05 12.923Z" fill="#F5BED0"/><path d="m7.35 23.076 11.25-9.23 14.85 15.23-12.15 12H7.35v-18Z" fill="#A0D3EC"/><path d="M7.35 21.692V7.384l18.45-.461-18.45 14.77Z" fill="#EECA86"/><path d="M13.24 30c-2.01 0-3.64 1.653-3.64 3.692 0 2.04 1.63 3.693 3.64 3.693 2.01 0 3.638-1.653 3.638-3.693 0-2.039-1.629-3.692-3.639-3.692Zm1.727 4.598c-1.245 1.262-3.468.86-3.468.86s-.4-2.252.848-3.518c.692-.702 1.838-.673 2.562.058.725.73.75 1.898.058 2.6Z" fill="#fff"/><path d="m13.657 32.164-.356.743-.733.362.733.361.356.744.356-.744.733-.361-.733-.361-.356-.744Z" fill="#fff"/><path d="M26.741 7.9a.824.824 0 0 0 .146-1.135.777.777 0 0 0-1.108-.142L26.74 7.9Zm-19.8 15.693 19.8-15.692-.962-1.278-19.8 15.692.962 1.278Z" fill="#6A6A6A"/><path transform="matrix(.72237 -.6915 .67304 .7396 21.3 42)" stroke="#6A6A6A" stroke-width="1.6" d="M0-.8h18.688"/><path transform="matrix(.6981 .716 -.6981 .716 17.7 13.385)" stroke="#6A6A6A" stroke-width="1.6" d="M0-.8h33.52"/><path d="m28.793 23.511-.454.659.457.316.456-.32-.459-.655Zm0 0 .46.656v-.002l.004-.002.009-.006.027-.02a7.554 7.554 0 0 0 .41-.327c.256-.22.6-.54.944-.944.674-.788 1.44-1.992 1.447-3.446.01-1.787-1.491-3.176-3.273-3.162-1.767.015-3.275 1.397-3.285 3.18-.008 1.46.746 2.66 1.415 3.444a8.42 8.42 0 0 0 1.346 1.258l.028.02.008.006.003.002h.002v.001l.455-.658ZM12.793 16.511l-.454.659.457.316.456-.32-.459-.655Zm0 0 .46.656v-.002l.004-.002.009-.006.027-.02a7.554 7.554 0 0 0 .41-.327c.256-.22.6-.54.944-.944.674-.788 1.44-1.992 1.447-3.446.01-1.787-1.491-3.176-3.273-3.161-1.767.014-3.275 1.396-3.285 3.179-.007 1.46.746 2.66 1.415 3.444a8.42 8.42 0 0 0 1.346 1.258l.028.02.008.006.003.002h.002v.001l.455-.658ZM25.793 38.511l-.454.659.457.316.456-.32-.459-.655Zm0 0 .46.656v-.002l.004-.002.009-.006.027-.02a7.554 7.554 0 0 0 .41-.327c.256-.22.6-.54.944-.944.674-.788 1.44-1.992 1.447-3.446.01-1.787-1.491-3.176-3.273-3.162-1.767.015-3.275 1.397-3.285 3.18-.008 1.46.746 2.66 1.415 3.444a8.42 8.42 0 0 0 1.346 1.258l.028.02.008.006.003.002h.002v.001l.455-.658Z" fill="#E46D61" stroke="#fff" stroke-width="1.6"/><rect x="6.8" y="6.8" width="34.4" height="34.4" rx="3.2" stroke="#6A6A6A" stroke-width="1.6"/></svg>
