<svg width="28" height="30" viewBox="0 0 28 30" fill="none" xmlns="http://www.w3.org/2000/svg">
<g filter="url(#filter0_d_0_15616)">
<path fill-rule="evenodd" clip-rule="evenodd" d="M24 16V4C24 2.9 23.1 2 22 2H10C8.9 2 8 2.9 8 4V16C8 17.1 8.9 18 10 18H22C23.1 18 24 17.1 24 16ZM13 12L15.03 14.71L18 11L22 16H10L13 12ZM4 6V20C4 21.1 4.9 22 6 22H20V20H6V6H4Z" fill="#898989"/>
</g>
<defs>
<filter id="filter0_d_0_15616" x="0" y="2" width="28" height="28" filterUnits="userSpaceOnUse" color-interpolation-filters="sRGB">
<feFlood flood-opacity="0" result="BackgroundImageFix"/>
<feColorMatrix in="SourceAlpha" type="matrix" values="0 0 0 0 0 0 0 0 0 0 0 0 0 0 0 0 0 0 127 0" result="hardAlpha"/>
<feOffset dy="4"/>
<feGaussianBlur stdDeviation="2"/>
<feComposite in2="hardAlpha" operator="out"/>
<feColorMatrix type="matrix" values="0 0 0 0 0 0 0 0 0 0 0 0 0 0 0 0 0 0 0.25 0"/>
<feBlend mode="normal" in2="BackgroundImageFix" result="effect1_dropShadow_0_15616"/>
<feBlend mode="normal" in="SourceGraphic" in2="effect1_dropShadow_0_15616" result="shape"/>
</filter>
</defs>
</svg>
