<svg width="48" height="48" fill="none" xmlns="http://www.w3.org/2000/svg"><rect x="1" y="16" width="46" height="16" rx="3" fill="#fff" stroke="#D8D8D8" stroke-width="1.6"/><path d="M15.646 27h1.23v-2.063h.898L18.876 27h1.358L19 24.739c.662-.285 1.028-.861 1.028-1.657 0-1.156-.764-1.9-2.085-1.9h-2.296V27Zm1.23-3.051v-1.762h.83c.71 0 1.054.316 1.054.895 0 .577-.344.867-1.048.867h-.836Zm5.916 3.136c1.08 0 1.807-.525 1.977-1.335l-1.12-.074c-.121.333-.434.506-.837.506-.605 0-.989-.4-.989-1.051v-.003h2.972v-.332c0-1.483-.898-2.216-2.051-2.216-1.285 0-2.117.912-2.117 2.258 0 1.384.821 2.247 2.165 2.247Zm-.969-2.707a.922.922 0 0 1 .94-.895c.526 0 .89.375.892.895h-1.832Zm5.733 2.707c1.162 0 1.892-.682 1.949-1.684h-1.142c-.071.465-.378.727-.793.727-.565 0-.931-.475-.931-1.31 0-.824.369-1.295.931-1.295.444 0 .728.292.793.727h1.142c-.051-1.009-.815-1.67-1.955-1.67-1.323 0-2.142.917-2.142 2.255 0 1.327.804 2.25 2.148 2.25Zm4.695 0c1.324 0 2.148-.906 2.148-2.25 0-1.352-.824-2.256-2.148-2.256-1.323 0-2.147.904-2.147 2.256 0 1.344.824 2.25 2.147 2.25Zm.006-.937c-.61 0-.923-.56-.923-1.321 0-.762.312-1.324.923-1.324.6 0 .912.562.912 1.324 0 .761-.313 1.32-.912 1.32Zm2.93.852h1.21v-2.469c0-.537.391-.906.925-.906.168 0 .398.028.512.065v-1.074a1.814 1.814 0 0 0-.38-.042c-.49 0-.89.284-1.05.824h-.045v-.762h-1.173V27Zm4.677.071c.705 0 1.071-.406 1.239-.77h.051V27h1.193v-5.818H41.14v2.187h-.037c-.162-.355-.511-.79-1.242-.79-.957 0-1.767.745-1.767 2.245 0 1.46.776 2.247 1.77 2.247Zm.384-.963c-.594 0-.918-.529-.918-1.29 0-.756.318-1.275.918-1.275.588 0 .918.497.918 1.275 0 .779-.336 1.29-.918 1.29Z" fill="#8E8E8E"/><g opacity=".8"><path d="M6.513 21.058a1.891 1.891 0 1 1 3.782 0v2.27a1.891 1.891 0 1 1-3.782 0v-2.27Z" fill="#757575"/><path d="M5 23.705c0 2.151 1.702 3.31 3.404 3.35m3.404-3.35c0 2.317-1.702 3.392-3.404 3.35m0 0V29" stroke="#757575" stroke-width="1.6" stroke-linejoin="round"/></g></svg>
