<svg width="48" height="48" fill="none" xmlns="http://www.w3.org/2000/svg"><rect x="1" y="15" width="46" height="19" rx="3" fill="#FCFCFC" stroke="#D8D8D8" stroke-width="1.6"/><path d="m38 24 2.5 2 2.5-2" stroke="#BEBEBE" stroke-width="1.6" stroke-linecap="round" stroke-linejoin="round"/><path d="M5.79 21v8h1.39v-5.508h.074l2.21 5.485h1.04l2.21-5.473h.075V29h1.39v-8h-1.773l-2.375 5.797h-.094L7.563 21H5.788Zm11.632 8.121c.941 0 1.504-.441 1.762-.945h.046V29h1.36v-4.016c0-1.586-1.293-2.062-2.438-2.062-1.261 0-2.23.562-2.543 1.656l1.32.188c.141-.41.54-.762 1.231-.762.656 0 1.016.336 1.016.926v.023c0 .406-.426.426-1.485.54-1.164.124-2.277.472-2.277 1.823 0 1.18.863 1.805 2.008 1.805Zm.367-1.039c-.59 0-1.012-.27-1.012-.789 0-.543.473-.77 1.106-.86.37-.05 1.113-.144 1.297-.292v.707c0 .668-.54 1.234-1.39 1.234Zm4.223.918h1.414v-3.527c0-.762.574-1.301 1.351-1.301.239 0 .535.043.657.082v-1.3a3.401 3.401 0 0 0-.508-.04c-.688 0-1.262.39-1.48 1.086h-.063v-1h-1.371v6Z" fill="#757575"/></svg>
