<svg width="29" height="31" viewBox="0 0 29 31" fill="none" xmlns="http://www.w3.org/2000/svg">
<g filter="url(#filter0_d_0_526)">
<path fill-rule="evenodd" clip-rule="evenodd" d="M12.5 23C13.6 23 14.5 22.1 14.5 21H10.5C10.5 22.1 11.4 23 12.5 23ZM19 17V11.5C19 8.43 16.87 5.86 14 5.18V4.5C14 3.67 13.33 3 12.5 3C11.67 3 11 3.67 11 4.5V5.18C8.13 5.86 6 8.43 6 11.5V17L4 19V20H21V19L19 17Z" fill="#898989"/>
<circle cx="20" cy="5" r="4" fill="#F9837C" stroke="white" stroke-width="2"/>
</g>
<defs>
<filter id="filter0_d_0_526" x="0" y="0" width="29" height="31" filterUnits="userSpaceOnUse" color-interpolation-filters="sRGB">
<feFlood flood-opacity="0" result="BackgroundImageFix"/>
<feColorMatrix in="SourceAlpha" type="matrix" values="0 0 0 0 0 0 0 0 0 0 0 0 0 0 0 0 0 0 127 0" result="hardAlpha"/>
<feOffset dy="4"/>
<feGaussianBlur stdDeviation="2"/>
<feComposite in2="hardAlpha" operator="out"/>
<feColorMatrix type="matrix" values="0 0 0 0 0 0 0 0 0 0 0 0 0 0 0 0 0 0 0.25 0"/>
<feBlend mode="normal" in2="BackgroundImageFix" result="effect1_dropShadow_0_526"/>
<feBlend mode="normal" in="SourceGraphic" in2="effect1_dropShadow_0_526" result="shape"/>
</filter>
</defs>
</svg>
