<svg width="48" height="48" fill="none" xmlns="http://www.w3.org/2000/svg"><path d="M8 17.2A4.8 4.8 0 0 0 3.2 22v6A4.8 4.8 0 0 0 8 32.8h6a4.8 4.8 0 0 0 4.8-4.8v-6a4.8 4.8 0 0 0-4.8-4.8H8Z" fill="#fff" stroke="#D8D8D8" stroke-width="1.6"/><path d="M8.787 28v-.857l2.272-2.227c.218-.22.399-.415.543-.585.145-.17.254-.336.326-.495.073-.16.11-.33.11-.512a.966.966 0 0 0-.142-.53.936.936 0 0 0-.386-.346 1.247 1.247 0 0 0-.56-.12 1.15 1.15 0 0 0-.565.133.924.924 0 0 0-.377.374 1.203 1.203 0 0 0-.131.579H8.748c0-.416.095-.777.285-1.084.19-.307.45-.544.783-.712a2.526 2.526 0 0 1 1.15-.253c.44 0 .825.082 1.157.246.333.164.59.389.774.674.185.286.278.612.278.979 0 .245-.047.485-.14.722-.095.236-.26.498-.496.786a12.51 12.51 0 0 1-.988 1.045l-1.128 1.148v.044h2.851V28H8.787Zm17.063.096c-.48 0-.895-.106-1.247-.317a2.15 2.15 0 0 1-.818-.885c-.192-.38-.288-.822-.288-1.33 0-.506.096-.95.288-1.332.194-.381.467-.678.818-.889.352-.21.767-.316 1.247-.316.479 0 .894.105 1.246.316.352.211.623.508.815.889.194.381.29.826.29 1.333s-.096.95-.29 1.33a2.125 2.125 0 0 1-.815.884c-.352.211-.767.317-1.246.317Zm.006-.927c.26 0 .477-.071.652-.214.175-.145.305-.339.39-.582.087-.243.13-.513.13-.812 0-.3-.043-.572-.13-.815a1.29 1.29 0 0 0-.39-.584.987.987 0 0 0-.652-.218c-.266 0-.488.073-.665.218-.174.145-.306.34-.393.584a2.448 2.448 0 0 0-.128.815c0 .299.043.57.128.812.087.243.219.437.393.582.177.143.399.214.665.214Zm5.814-4.078v.895h-2.902v-.895h2.902ZM29.494 28v-5.372c0-.33.068-.606.204-.825a1.29 1.29 0 0 1 .556-.492 1.8 1.8 0 0 1 .774-.163c.2 0 .378.016.534.048.155.032.27.06.345.086l-.23.895a2.002 2.002 0 0 0-.186-.045 1.122 1.122 0 0 0-.249-.026c-.215 0-.367.053-.457.157-.087.102-.131.25-.131.441V28h-1.16Zm7.574-6.635c.314.002.618.058.915.166.298.107.566.282.805.524.239.241.428.564.569.969.14.405.21.905.21 1.502a5.633 5.633 0 0 1-.178 1.508 3.35 3.35 0 0 1-.515 1.12 2.272 2.272 0 0 1-.808.696c-.316.16-.67.24-1.065.24a2.4 2.4 0 0 1-1.1-.243 2.064 2.064 0 0 1-1.13-1.63h1.166c.06.26.181.466.364.62.186.15.419.227.7.227.454 0 .804-.198 1.049-.592.245-.394.367-.942.367-1.643h-.045a1.68 1.68 0 0 1-.405.486 1.847 1.847 0 0 1-.566.31 2 2 0 0 1-.665.109 1.98 1.98 0 0 1-1.035-.275 2.007 2.007 0 0 1-.726-.754 2.252 2.252 0 0 1-.269-1.096c0-.427.099-.809.295-1.148.198-.34.474-.61.827-.805.354-.198.767-.295 1.24-.29Zm.004.959a1.202 1.202 0 0 0-1.058.623c-.105.19-.157.402-.157.636.002.232.054.443.157.633a1.16 1.16 0 0 0 1.045.617 1.179 1.179 0 0 0 .872-.374 1.3 1.3 0 0 0 .262-.406 1.18 1.18 0 0 0 .093-.48c0-.223-.053-.43-.16-.62a1.233 1.233 0 0 0-.431-.457 1.137 1.137 0 0 0-.623-.172Zm5.832-.959c.314.002.618.058.914.166.299.107.567.282.806.524.238.241.428.564.569.969.14.405.21.905.21 1.502a5.634 5.634 0 0 1-.178 1.508c-.12.442-.291.814-.515 1.12a2.272 2.272 0 0 1-.809.696c-.315.16-.67.24-1.064.24a2.4 2.4 0 0 1-1.1-.243 2.064 2.064 0 0 1-1.13-1.63h1.166c.06.26.181.466.364.62.186.15.419.227.7.227.454 0 .803-.198 1.048-.592.245-.394.368-.942.368-1.643h-.045a1.68 1.68 0 0 1-.406.486 1.846 1.846 0 0 1-.565.31c-.21.073-.43.109-.665.109-.384 0-.729-.092-1.036-.275a2.008 2.008 0 0 1-.725-.754 2.251 2.251 0 0 1-.269-1.096c0-.427.099-.809.294-1.148.199-.34.475-.61.828-.805.354-.198.767-.295 1.24-.29Zm.003.959a1.201 1.201 0 0 0-1.058.623c-.104.19-.156.402-.156.636.002.232.054.443.157.633a1.16 1.16 0 0 0 1.045.617 1.18 1.18 0 0 0 .872-.374 1.3 1.3 0 0 0 .262-.406 1.18 1.18 0 0 0 .093-.48c0-.223-.053-.43-.16-.62a1.234 1.234 0 0 0-.431-.457 1.138 1.138 0 0 0-.623-.172Z" fill="#787878"/></svg>
