<svg width="48" height="48" fill="none" xmlns="http://www.w3.org/2000/svg"><rect x="31" y="18" width="17" height="13" rx="3" fill="#3C92DC"/><path d="M5.582 21.454V28H4.396v-5.392h-.038l-1.531.978V22.5l1.627-1.046h1.128ZM11.787 28v-.857l2.272-2.227c.218-.22.399-.415.543-.585.145-.17.254-.336.326-.495.073-.16.11-.33.11-.512a.966.966 0 0 0-.142-.53.936.936 0 0 0-.386-.346 1.247 1.247 0 0 0-.56-.12 1.15 1.15 0 0 0-.565.133.924.924 0 0 0-.377.374 1.203 1.203 0 0 0-.131.579h-1.129c0-.416.095-.777.285-1.084.19-.307.45-.544.783-.712a2.526 2.526 0 0 1 1.15-.253c.44 0 .825.082 1.157.246.333.164.59.389.774.674.185.286.278.612.278.979 0 .245-.047.485-.14.722-.095.236-.26.498-.496.786a12.51 12.51 0 0 1-.988 1.045l-1.128 1.148v.044h2.851V28h-4.487Z" fill="#787878"/><path d="M36.518 21.365a2.7 2.7 0 0 1 .914.166c.298.107.567.282.806.524.238.241.428.564.569.969.14.405.21.905.21 1.502a5.633 5.633 0 0 1-.179 1.508 3.35 3.35 0 0 1-.514 1.12 2.272 2.272 0 0 1-.809.696c-.315.16-.67.24-1.064.24a2.4 2.4 0 0 1-1.1-.243 2.064 2.064 0 0 1-1.13-1.63h1.166c.06.26.18.466.364.62.185.15.419.227.7.227.454 0 .803-.198 1.048-.592.245-.394.368-.942.368-1.643h-.045a1.68 1.68 0 0 1-.406.486 1.847 1.847 0 0 1-.566.31c-.208.073-.43.109-.664.109a1.98 1.98 0 0 1-1.036-.275 2.007 2.007 0 0 1-.725-.754 2.252 2.252 0 0 1-.269-1.096c0-.427.098-.809.294-1.148.198-.34.474-.61.828-.805.354-.198.767-.295 1.24-.29Zm.003.959a1.202 1.202 0 0 0-1.058.623c-.104.19-.156.402-.156.636.002.232.054.443.156.633.105.19.246.34.425.45.182.111.388.167.62.167a1.179 1.179 0 0 0 .873-.374 1.3 1.3 0 0 0 .262-.406 1.18 1.18 0 0 0 .093-.48c0-.223-.053-.43-.16-.62a1.233 1.233 0 0 0-.431-.457 1.137 1.137 0 0 0-.624-.172Zm5.833-.959a2.7 2.7 0 0 1 .914.166c.298.107.567.282.806.524.238.241.428.564.568.969.141.405.211.905.211 1.502a5.634 5.634 0 0 1-.179 1.508c-.119.442-.29.814-.514 1.12a2.272 2.272 0 0 1-.809.696c-.315.16-.67.24-1.064.24a2.4 2.4 0 0 1-1.1-.243 2.064 2.064 0 0 1-1.13-1.63h1.166c.06.26.18.466.364.62.185.15.419.227.7.227.454 0 .803-.198 1.048-.592.245-.394.368-.942.368-1.643h-.045a1.68 1.68 0 0 1-.406.486 1.846 1.846 0 0 1-.566.31c-.208.073-.43.109-.664.109a1.98 1.98 0 0 1-1.036-.275 2.007 2.007 0 0 1-.725-.754 2.25 2.25 0 0 1-.269-1.096c0-.427.098-.809.294-1.148.198-.34.474-.61.828-.805.354-.198.767-.295 1.24-.29Zm.003.959a1.201 1.201 0 0 0-1.058.623c-.104.19-.156.402-.156.636.002.232.054.443.156.633.105.19.246.34.425.45.182.111.388.167.62.167a1.18 1.18 0 0 0 .873-.374 1.3 1.3 0 0 0 .262-.406 1.18 1.18 0 0 0 .093-.48c0-.223-.053-.43-.16-.62a1.234 1.234 0 0 0-.431-.457 1.138 1.138 0 0 0-.624-.172Z" fill="#fff"/><path d="M21.392 26.07a.686.686 0 0 1-.499-.204.663.663 0 0 1-.204-.499.655.655 0 0 1 .204-.492.685.685 0 0 1 .499-.204c.187 0 .35.068.489.204a.672.672 0 0 1 .111.847.733.733 0 0 1-.255.256.665.665 0 0 1-.345.092Zm2.61 0a.686.686 0 0 1-.499-.204.662.662 0 0 1-.204-.499.655.655 0 0 1 .204-.492.685.685 0 0 1 .499-.204c.188 0 .35.068.489.204a.672.672 0 0 1 .112.847.734.734 0 0 1-.256.256.665.665 0 0 1-.345.092Zm2.61 0a.686.686 0 0 1-.498-.204.663.663 0 0 1-.205-.499.655.655 0 0 1 .205-.492.685.685 0 0 1 .498-.204c.188 0 .35.068.49.204a.672.672 0 0 1 .111.847.733.733 0 0 1-.256.256.665.665 0 0 1-.345.092Z" fill="#B2B2B2"/></svg>
