<svg width="48" height="48" fill="none" xmlns="http://www.w3.org/2000/svg"><rect x="5.2" y="7.2" width="37.6" height="33.6" rx="4.8" fill="#fff" stroke="#757575" stroke-width="1.6"/><path d="M6 27h36v9a4 4 0 0 1-4 4H10a4 4 0 0 1-4-4v-9Z" fill="#D3675F"/><path d="M17.666 37h1.23v-1.886h1.034c1.338 0 2.117-.799 2.117-1.96 0-1.157-.765-1.972-2.086-1.972h-2.295V37Zm1.23-2.872v-1.94h.83c.71 0 1.053.386 1.053.965 0 .577-.343.975-1.048.975h-.835ZM24.908 37c1.773 0 2.847-1.097 2.847-2.915 0-1.812-1.074-2.903-2.83-2.903h-2.08V37h2.063Zm-.832-1.054v-3.71h.784c1.09 0 1.667.557 1.667 1.85 0 1.297-.576 1.86-1.67 1.86h-.781ZM28.666 37h1.23v-2.403h2.366v-1.015h-2.366v-1.386h2.622v-1.014h-3.852V37Z" fill="#fff"/><path d="M23.756 14.845c-1.034 3.423-3.517 10.026-5.173 9.06-1.655-.967.604-2.497 1.94-3.141 1.552-.604 5.044-1.836 6.596-1.933 1.94-.12 3.104-.12 2.845.725-.258.846-.776 1.208-1.422.846-.647-.363-4.139-3.503-4.786-5.557Zm0 0c-.776-.966-1.991-3.068-.646-3.744 1.345-.677.991 2.214.646 3.744Z" stroke="#D3675F" stroke-width="1.4"/></svg>
