<svg width="48" height="48" fill="none" xmlns="http://www.w3.org/2000/svg"><rect x="4" y="18" width="40" height="5" rx="2.5" fill="#DEDEDE"/><path d="M4 20.5A2.5 2.5 0 0 1 6.5 18h10a2.5 2.5 0 0 1 0 5h-10A2.5 2.5 0 0 1 4 20.5Z" fill="#3C92DC"/><path d="M29.605 34.08c1.244 0 2.15-.713 2.148-1.697.003-.727-.452-1.25-1.267-1.366v-.045c.63-.137 1.054-.606 1.05-1.259.004-.886-.752-1.61-1.914-1.61-1.13 0-2.006.673-2.028 1.647h1.014c.017-.489.471-.793 1.008-.793.543 0 .904.33.901.819.003.508-.418.846-1.02.846h-.514v.813h.514c.736 0 1.174.369 1.17.895.003.514-.443.866-1.065.866-.585 0-1.037-.304-1.062-.778h-1.068c.028.983.906 1.662 2.133 1.662Zm5.274.03c1.403.004 2.241-1.104 2.241-3.013 0-1.898-.844-2.995-2.241-2.995-1.398 0-2.24 1.094-2.242 2.995 0 1.906.838 3.014 2.242 3.014Zm0-.888c-.725 0-1.18-.728-1.177-2.125.003-1.387.455-2.117 1.177-2.117.724 0 1.176.73 1.178 2.117 0 1.397-.451 2.125-1.178 2.125Zm6.296-.313c.003.676.431 1.253 1.23 1.253.795 0 1.233-.577 1.23-1.253v-.307c.003-.681-.423-1.253-1.23-1.253-.787 0-1.227.577-1.23 1.253v.307Zm-2.958-3.33c.003.677.432 1.248 1.233 1.248.793 0 1.23-.566 1.228-1.248v-.306c.002-.682-.424-1.253-1.228-1.253-.784 0-1.23.57-1.233 1.253v.306ZM38.473 34h.713l4-5.818h-.713l-4 5.818Zm3.443-1.398c.003-.3.13-.605.489-.605.375 0 .486.304.483.605v.307c.003.301-.12.6-.483.6-.364 0-.486-.302-.489-.6v-.307Zm-2.951-3.33c.002-.298.124-.604.485-.604.375 0 .483.304.48.605v.306c.003.302-.116.6-.48.6-.363 0-.483-.298-.486-.6v-.306Z" fill="#757575"/></svg>
