<svg width="61" height="60" viewBox="0 0 61 60" fill="none" xmlns="http://www.w3.org/2000/svg">
<g clip-path="url(#clip0_1143_1649)">
<g opacity="0.15">
<circle cx="30.5791" cy="30" r="30" fill="#D8D8D8"/>
<mask id="mask0_1143_1649" style="mask-type:luminance" maskUnits="userSpaceOnUse" x="0" y="0" width="61" height="60">
<circle cx="30.5791" cy="30" r="30" fill="white"/>
</mask>
<g mask="url(#mask0_1143_1649)">
<rect x="-2.4209" y="-6" width="63" height="70" fill="#FFAB2B"/>
</g>
</g>
<circle cx="30.5791" cy="30" r="24" fill="#D8D8D8"/>
<mask id="mask1_1143_1649" style="mask-type:luminance" maskUnits="userSpaceOnUse" x="6" y="6" width="49" height="48">
<circle cx="30.5791" cy="30" r="24" fill="white"/>
</mask>
<g mask="url(#mask1_1143_1649)">
<rect x="4.17871" y="1.19995" width="50.4" height="56" fill="#FFAB2B"/>
</g>
<path d="M66.2041 20.8125H68.9541C69.3265 20.8125 69.6416 20.9557 69.8994 21.2422C70.1859 21.5 70.3291 21.8151 70.3291 22.1875V22.875H72.3916V22.1875H73.7666V22.875H75.1416C75.514 22.875 75.8291 23.0182 76.0869 23.3047C76.3734 23.5625 76.5166 23.8776 76.5166 24.25V35.25C76.5166 35.6224 76.3734 35.9518 76.0869 36.2383C75.8291 36.4961 75.514 36.625 75.1416 36.625H60.0166C59.6442 36.625 59.3148 36.4961 59.0283 36.2383C58.7705 35.9518 58.6416 35.6224 58.6416 35.25V24.25C58.6416 23.8776 58.7705 23.5625 59.0283 23.3047C59.3148 23.0182 59.6442 22.875 60.0166 22.875H61.3916V22.1875H62.7666V22.875H64.8291V22.1875C64.8291 21.8151 64.958 21.5 65.2158 21.2422C65.5023 20.9557 65.8317 20.8125 66.2041 20.8125ZM66.2041 22.1875V22.875H68.9541V22.1875H66.2041ZM60.0166 24.25V35.25H61.3916V24.9375H62.7666V35.25H72.3916V24.9375H73.7666V35.25H75.1416V24.25H60.0166Z" fill="#FAFBFF"/>
</g>
<defs>
<clipPath id="clip0_1143_1649">
<rect width="60" height="60" fill="white" transform="translate(0.579102)"/>
</clipPath>
</defs>
</svg>
