<svg width="32" height="32" viewBox="0 0 32 32" fill="none" xmlns="http://www.w3.org/2000/svg">
<path fill-rule="evenodd" clip-rule="evenodd" d="M6 21.4211C6 22.5789 6.51187 23.6184 7.3125 24.3421V26.6842C7.3125 27.4079 7.90313 28 8.625 28H9.9375C10.6594 28 11.25 27.4079 11.25 26.6842V25.3684H21.75V26.6842C21.75 27.4079 22.3406 28 23.0625 28H24.375C25.0969 28 25.6875 27.4079 25.6875 26.6842V24.3421C26.4881 23.6184 27 22.5789 27 21.4211V8.26316C27 3.65789 22.3013 3 16.5 3C10.6988 3 6 3.65789 6 8.26316V21.4211ZM10.5938 22.7368C9.50437 22.7368 8.625 21.8553 8.625 20.7632C8.625 19.6711 9.50437 18.7895 10.5938 18.7895C11.6831 18.7895 12.5625 19.6711 12.5625 20.7632C12.5625 21.8553 11.6831 22.7368 10.5938 22.7368ZM22.4062 22.7368C21.3169 22.7368 20.4375 21.8553 20.4375 20.7632C20.4375 19.6711 21.3169 18.7895 22.4062 18.7895C23.4956 18.7895 24.375 19.6711 24.375 20.7632C24.375 21.8553 23.4956 22.7368 22.4062 22.7368ZM24.375 14.8421H8.625V8.26316H24.375V14.8421Z" fill="#70B6C1"/>
</svg>
