<svg width="48" height="48" viewBox="0 0 48 48" fill="none" xmlns="http://www.w3.org/2000/svg">
<rect x="4" y="7" width="40" height="34" rx="2" fill="white"/>
<path d="M10 7H6C4.89543 7 4 7.89543 4 9V13" stroke="#DEDEDE" stroke-width="1.6" stroke-linecap="round"/>
<path d="M38 41L42 41C43.1046 41 44 40.1046 44 39L44 35" stroke="#DEDEDE" stroke-width="1.6" stroke-linecap="round"/>
<path d="M44 13L44 9C44 7.89543 43.1046 7 42 7L38 7" stroke="#DEDEDE" stroke-width="1.6" stroke-linecap="round"/>
<path d="M4 35L4 39C4 40.1046 4.89543 41 6 41L10 41" stroke="#DEDEDE" stroke-width="1.6" stroke-linecap="round"/>
<path fill-rule="evenodd" clip-rule="evenodd" d="M9.26807 9.90846C9.26807 9.68287 9.45094 9.5 9.67653 9.5H10.3038H18.5897H19.217C19.4426 9.5 19.6255 9.68287 19.6255 9.90846V10.5357V18.8217V19.4489C19.6255 19.6745 19.4426 19.8574 19.217 19.8574H18.5897H10.3038H9.67653C9.45094 19.8574 9.26807 19.6745 9.26807 19.4489V18.8217V10.5357V9.90846ZM11.748 11.5715C11.5224 11.5715 11.3395 11.7544 11.3395 11.9799V17.3775C11.3395 17.603 11.5224 17.7859 11.748 17.7859H17.1455C17.3711 17.7859 17.554 17.603 17.554 17.3775V11.9799C17.554 11.7544 17.3711 11.5715 17.1455 11.5715H11.748ZM15.4825 15.306C15.4825 15.5316 15.2996 15.7144 15.074 15.7144H13.8195C13.5939 15.7144 13.411 15.5316 13.411 15.306V14.0514C13.411 13.8258 13.5939 13.643 13.8195 13.643H15.074C15.2996 13.643 15.4825 13.8258 15.4825 14.0514V15.306ZM9.26807 28.5501C9.26807 28.3245 9.45094 28.1416 9.67653 28.1416H10.3038H18.5897H19.217C19.4426 28.1416 19.6255 28.3245 19.6255 28.5501V29.1773V37.4633V38.0905C19.6255 38.3161 19.4426 38.499 19.217 38.499H18.5897H10.3038H9.67653C9.45094 38.499 9.26807 38.3161 9.26807 38.0905V37.4633V29.1773V28.5501ZM11.748 30.2131C11.5224 30.2131 11.3395 30.396 11.3395 30.6215V36.0191C11.3395 36.2446 11.5224 36.4275 11.748 36.4275H17.1455C17.3711 36.4275 17.554 36.2446 17.554 36.0191V30.6215C17.554 30.396 17.3711 30.2131 17.1455 30.2131H11.748ZM15.4825 33.9476C15.4825 34.1732 15.2996 34.356 15.074 34.356H13.8195C13.5939 34.356 13.411 34.1732 13.411 33.9476V32.693C13.411 32.4674 13.5939 32.2846 13.8195 32.2846H15.074C15.2996 32.2846 15.4825 32.4674 15.4825 32.693V33.9476ZM28.9469 9.5H28.3196C28.094 9.5 27.9111 9.68287 27.9111 9.90846V10.5357V18.8217V19.4489C27.9111 19.6745 28.094 19.8574 28.3196 19.8574H28.9469H37.2328H37.8601C38.0856 19.8574 38.2685 19.6745 38.2685 19.4489V18.8217V10.5357V9.90846C38.2685 9.68287 38.0856 9.5 37.8601 9.5H37.2328H28.9469ZM29.9826 11.9799C29.9826 11.7544 30.1655 11.5715 30.3911 11.5715H35.7886C36.0142 11.5715 36.197 11.7544 36.197 11.9799V17.3775C36.197 17.603 36.0142 17.7859 35.7886 17.7859H30.3911C30.1655 17.7859 29.9826 17.603 29.9826 17.3775V11.9799ZM32.0541 15.306C32.0541 15.5316 32.237 15.7144 32.4625 15.7144H33.7171C33.9427 15.7144 34.1256 15.5316 34.1256 15.306V14.0514C34.1256 13.8258 33.9427 13.643 33.7171 13.643H32.4626C32.237 13.643 32.0541 13.8258 32.0541 14.0514V15.306ZM21.6978 9.90846C21.6978 9.68287 21.8806 9.5 22.1062 9.5H22.7335H25.4323C25.6578 9.5 25.8407 9.68287 25.8407 9.90846V11.163C25.8407 11.3886 25.6578 11.5715 25.4323 11.5715H24.1777C23.9521 11.5715 23.7692 11.7544 23.7692 11.9799V13.2345C23.7692 13.4601 23.9521 13.643 24.1777 13.643H24.805H25.4323C25.6578 13.643 25.8407 13.8258 25.8407 14.0514V14.6787V18.8217V19.4489C25.8407 19.6745 25.6578 19.8574 25.4323 19.8574H24.805H24.1777C23.9521 19.8574 23.7692 20.0403 23.7692 20.2659V21.3442C23.7692 21.5698 23.5864 21.7526 23.3608 21.7526H22.1062C21.8806 21.7526 21.6978 21.5698 21.6978 21.3442V18.8217V18.1944C21.6978 17.9688 21.8806 17.7859 22.1062 17.7859H22.7335H23.3608C23.5864 17.7859 23.7692 17.603 23.7692 17.3775V16.1229C23.7692 15.8973 23.5864 15.7144 23.3608 15.7144H22.7335H22.1062C21.8806 15.7144 21.6978 15.5316 21.6978 15.306V14.6787V10.5357V9.90846ZM34.1261 26.6542C34.1261 26.4286 34.309 26.2457 34.5345 26.2457H35.7891C36.0147 26.2457 36.1976 26.4286 36.1976 26.6542V28.1416C36.1976 28.1416 36.1976 28.1416 36.1975 28.1416C36.1975 28.1416 36.1975 28.1416 36.1975 28.1416V29.8046C36.1975 30.0302 36.0146 30.2131 35.7891 30.2131H28.3201C28.0945 30.2131 27.9116 30.0302 27.9116 29.8046V28.5501C27.9116 28.3245 27.7287 28.1416 27.5031 28.1416H26.2486C26.023 28.1416 25.8402 27.9587 25.8402 27.7332V26.6542C25.8402 26.4286 26.023 26.2457 26.2486 26.2457H27.5032C27.7288 26.2457 27.9116 26.4286 27.9116 26.6542V27.7331C27.9116 27.9587 28.0945 28.1416 28.3201 28.1416H33.7176C33.9432 28.1416 34.1261 27.9587 34.1261 27.7331V26.6542ZM21.6972 26.6542C21.6972 26.4286 21.8801 26.2457 22.1057 26.2457H23.3602C23.5858 26.2457 23.7687 26.4286 23.7687 26.6542V27.7331C23.7687 27.9587 23.9516 28.1416 24.1772 28.1416H25.4317C25.6573 28.1416 25.8401 28.3245 25.8401 28.5501V29.8046C25.8401 30.0302 25.6573 30.2131 25.4317 30.2131H24.1771C23.9515 30.2131 23.7686 30.0302 23.7686 29.8046V28.5501C23.7686 28.3245 23.5858 28.1416 23.3602 28.1416H22.1057C21.8801 28.1416 21.6972 27.9587 21.6972 27.7332V26.6542ZM23.7688 30.6233C23.7688 30.3977 23.586 30.2148 23.3604 30.2148H22.1058C21.8802 30.2148 21.6974 30.3977 21.6974 30.6233V32.2852V32.2863V34.3555V34.3566V36.0185C21.6974 36.2441 21.8802 36.4269 22.1058 36.4269H23.3604C23.586 36.4269 23.7688 36.2441 23.7688 36.0185V34.7651C23.7688 34.5395 23.9517 34.3566 24.1773 34.3566H25.4319C25.6574 34.3566 25.8403 34.1738 25.8403 33.9482V32.6948C25.8403 32.4692 26.0232 32.2863 26.2488 32.2863H27.5033C27.7289 32.2863 27.9118 32.4692 27.9118 32.6948V33.9482C27.9118 34.1738 28.0947 34.3566 28.3203 34.3566H29.5748C29.8004 34.3566 29.9833 34.5395 29.9833 34.7651L29.9833 36.0185C29.9833 36.2441 30.1661 36.4269 30.3917 36.4269H31.6463C31.8719 36.4269 32.0548 36.2441 32.0548 36.0185V34.7651C32.0548 34.5395 32.2376 34.3566 32.4632 34.3566H35.7892C36.0148 34.3566 36.1977 34.5395 36.1977 34.7651L36.1977 36.0185C36.1977 36.2441 36.3806 36.4269 36.6062 36.4269H37.8607C38.0863 36.4269 38.2692 36.2441 38.2692 36.0185V34.7639C38.2692 34.5383 38.0863 34.3555 37.8607 34.3555H36.6062C36.3806 34.3555 36.1977 34.1726 36.1977 33.947V32.6948C36.1977 32.4692 36.3806 32.2863 36.6062 32.2863H37.8607C38.0863 32.2863 38.2692 32.1034 38.2692 31.8779V30.6233C38.2692 30.3977 38.0863 30.2148 37.8607 30.2148H36.6062C36.3806 30.2148 36.1977 30.3977 36.1977 30.6233L36.1977 31.8767C36.1977 32.1023 36.0148 32.2852 35.7892 32.2852H34.5347C34.3091 32.2852 34.1262 32.1023 34.1262 31.8767V30.6233C34.1262 30.3977 33.9434 30.2148 33.7178 30.2148H32.4632C32.2376 30.2148 32.0548 30.3977 32.0548 30.6233V32.2852V32.2863V33.947C32.0548 34.1726 31.8719 34.3555 31.6463 34.3555H30.3917C30.1661 34.3555 29.9833 34.1726 29.9833 33.947L29.9833 32.6936C29.9833 32.468 29.8004 32.2852 29.5748 32.2852H28.3203C28.0947 32.2852 27.9118 32.1023 27.9118 31.8767V30.6233C27.9118 30.3977 27.7289 30.2148 27.5033 30.2148H26.2488C26.0232 30.2148 25.8403 30.3977 25.8403 30.6233V31.8767C25.8403 32.1023 25.6574 32.2852 25.4319 32.2852H24.1773C23.9517 32.2852 23.7688 32.1023 23.7688 31.8767V30.6233ZM31.6461 36.4277C31.8717 36.4277 32.0546 36.6106 32.0546 36.8362V38.0908C32.0546 38.3163 31.8717 38.4992 31.6461 38.4992H24.1771C23.9515 38.4992 23.7686 38.3163 23.7686 38.0908V36.8362C23.7686 36.6106 23.9515 36.4277 24.1771 36.4277H31.6461ZM36.1975 38.0908C36.1975 38.3163 36.0146 38.4992 35.7891 38.4992H34.5345C34.3089 38.4992 34.126 38.3163 34.126 38.0908V36.8362C34.126 36.6106 34.3089 36.4277 34.5345 36.4277H35.7891C36.0146 36.4277 36.1975 36.6106 36.1975 36.8362V38.0908Z" fill="#D8D8D8"/>
<path d="M6.81689 23.7939H41" stroke="#D8D8D8" stroke-width="1.63384" stroke-linecap="round"/>
</svg>
