<svg width="48" height="48" fill="none" xmlns="http://www.w3.org/2000/svg"><rect x="3" y="7" width="22" height="13" rx="3" fill="#FCFCFC" stroke="#D8D8D8" stroke-width="1.6"/><rect x="28" y="7" width="17" height="13" rx="3" fill="#FCFCFC" stroke="#D8D8D8" stroke-width="1.6"/><path d="m6.985 16 .432-1.327h2.1L9.947 16h1.318l-2.005-5.818H7.675L5.667 16h1.318Zm.744-2.287.716-2.202h.046l.716 2.202H7.729Zm5.425-.236c.003-.562.338-.892.827-.892.486 0 .778.318.775.852V16h1.21v-2.778c0-1.018-.596-1.643-1.505-1.643-.648 0-1.117.319-1.313.827h-.05v-.77h-1.154V16h1.21v-2.523Zm5.374 2.594c.705 0 1.071-.406 1.239-.77h.051V16h1.193v-5.818h-1.207v2.187h-.037c-.162-.355-.511-.79-1.241-.79-.958 0-1.767.745-1.767 2.245 0 1.46.775 2.247 1.77 2.247Zm.384-.963c-.594 0-.918-.529-.918-1.29 0-.755.319-1.275.918-1.275.588 0 .918.497.918 1.275 0 .779-.336 1.29-.918 1.29ZM37.587 13.09c0-1.902-1.182-2.988-2.725-2.988-1.55 0-2.724 1.085-2.724 2.989 0 1.895 1.173 2.989 2.724 2.989 1.543 0 2.725-1.086 2.725-2.99Zm-1.248 0c0 1.234-.585 1.902-1.477 1.902-.895 0-1.477-.668-1.477-1.901s.582-1.9 1.477-1.9c.892 0 1.477.667 1.477 1.9ZM38.476 16h1.21v-2.469c0-.537.392-.906.926-.906.168 0 .398.028.512.065v-1.073a1.815 1.815 0 0 0-.38-.043c-.49 0-.89.284-1.05.824h-.045v-.762h-1.173V16Z" fill="#757575"/><rect x="3" y="26" width="42" height="13" rx="3" fill="#FCFCFC" stroke="#DEDEDE" stroke-width="1.6"/><path d="m36 32 2.5 2 2.5-2" stroke="#BEBEBE" stroke-width="1.6" stroke-linecap="round" stroke-linejoin="round"/><path stroke="#757575" stroke-width="2" stroke-linecap="round" d="M7 33h17"/></svg>
