<svg width="12" height="13" viewBox="0 0 12 13" fill="none" xmlns="http://www.w3.org/2000/svg">
<path d="M6 3.96631V6.21631" stroke="#444444" stroke-linecap="round" stroke-linejoin="round"/>
<path d="M7.95 7.34131L6 6.21631" stroke="#444444" stroke-linecap="round" stroke-linejoin="round"/>
<path d="M8.63428 4.88977H10.5093V3.01477" stroke="#444444" stroke-linecap="round" stroke-linejoin="round"/>
<path d="M8.91556 9.13194C8.33881 9.70916 7.60381 10.1024 6.80354 10.2618C6.00328 10.4212 5.17371 10.3397 4.41977 10.0276C3.66583 9.71552 3.02139 9.18681 2.56798 8.50839C2.11457 7.82996 1.87256 7.0323 1.87256 6.21631C1.87256 5.40032 2.11457 4.60266 2.56798 3.92423C3.02139 3.24581 3.66583 2.7171 4.41977 2.40499C5.17371 2.09287 6.00328 2.01138 6.80354 2.17082C7.60381 2.33025 8.33881 2.72346 8.91556 3.30069L10.5093 4.88975" stroke="#444444" stroke-linecap="round" stroke-linejoin="round"/>
</svg>
