<svg width="48" height="48" fill="none" xmlns="http://www.w3.org/2000/svg"><rect x="3.2" y="7.2" width="41.6" height="34.6" rx="3.8" fill="#fff" stroke="#D8D8D8" stroke-width="1.6"/><path opacity=".5" d="M7 30v6a2 2 0 0 0 2 2h30a2 2 0 0 0 2-2v-6a2 2 0 0 0-2-2H9a2 2 0 0 0-2 2ZM7 13v6a2 2 0 0 0 2 2h30a2 2 0 0 0 2-2v-6a2 2 0 0 0-2-2H9a2 2 0 0 0-2 2Z" fill="#D8D8D8"/><rect x="14.2" y="17.2" width="32.6" height="15.6" rx="1.8" fill="#fff" stroke="#D8D8D8" stroke-width="1.6"/><path opacity=".5" d="M17 22v6a2 2 0 0 0 2 2h23a2 2 0 0 0 2-2v-6a2 2 0 0 0-2-2H19a2 2 0 0 0-2 2Z" fill="#D8D8D8"/></svg>
