<svg width="48" height="48" fill="none" xmlns="http://www.w3.org/2000/svg"><rect x="2.5" y="16.5" width="43" height="15" rx="1.5" fill="#F2BD3B" stroke="#E9AB11"/><path d="M21.236 21.91v3.176c0 .53-.376.91-.925.91-.552 0-.925-.38-.925-.91v-3.177h-1.23v3.284c0 1.138.86 1.872 2.155 1.872 1.285 0 2.153-.734 2.153-1.872v-3.284h-1.228zm1.999 6.522h1.216V26.38h.024c.154.353.497.674 1.074.674.845 0 1.527-.662 1.527-1.962 0-1.347-.721-1.96-1.52-1.96-.603 0-.934.352-1.08.703h-.038v-.654h-1.203v5.25zm1.19-3.341c0-.624.26-1.01.704-1.01.45 0 .699.396.699 1.01 0 .616-.249 1.017-.699 1.017-.445 0-.703-.398-.703-1.017zm4.503-3.182h-1.216V27h1.216v-5.09zm2.556 5.163c1.2 0 1.929-.793 1.929-1.969 0-1.178-.728-1.97-1.929-1.97-1.2 0-1.929.792-1.929 1.97 0 1.176.728 1.97 1.929 1.97zm.007-.917c-.45 0-.698-.428-.698-1.06 0-.633.248-1.063.698-1.063.436 0 .684.43.684 1.064 0 .631-.248 1.059-.683 1.059zm3.621.91c.532 0 .9-.207 1.109-.597h.03V27h1.143v-2.595c0-.808-.718-1.273-1.69-1.273-1.027 0-1.609.517-1.706 1.213l1.122.04c.052-.244.253-.393.574-.393.298 0 .487.144.487.4v.013c0 .233-.254.283-.905.34-.773.065-1.42.35-1.42 1.196 0 .756.525 1.124 1.256 1.124zm.375-.796c-.28 0-.48-.134-.48-.388 0-.246.195-.395.54-.447.226-.032.505-.082.641-.154v.363c0 .373-.313.626-.7.626zm4.045.786c.577 0 .92-.321 1.074-.674h.037V27h1.203v-5.09h-1.215v1.926h-.025c-.145-.35-.478-.704-1.08-.704-.797 0-1.52.614-1.52 1.961 0 1.3.683 1.962 1.526 1.962zm.422-.947c-.45 0-.7-.4-.7-1.017 0-.614.248-1.01.7-1.01.445 0 .704.386.704 1.01 0 .619-.261 1.017-.704 1.017z" fill="#fff"/><path d="m15 22-4.5 2L6 22l4.5-2 4.5 2z" fill="#E46D61"/><path d="m15 27-4.5 2v-5l4.5-2v5z" fill="#E05243"/><path d="m6 27 4.5 2v-5L6 22v5z" fill="#8C3123"/></svg>