<svg width="216" height="56" viewBox="0 0 216 56" fill="none" xmlns="http://www.w3.org/2000/svg">
<path opacity="0.12" fill-rule="evenodd" clip-rule="evenodd" d="M216 56H0V17.4498C0.913294 17.3734 2.61484 18.1528 4.52631 18.1731C5.96167 18.1883 7.42036 17.3536 9.27792 17.739C10.3036 17.9518 11.3442 18.7215 12.684 18.8093C13.818 18.8836 15.2239 18.2827 16.4208 18.3697C17.9879 18.4835 18.4036 23.741 19.6388 23.7249C20.4661 23.7141 22.0553 22.3552 22.391 22.5052C24.7221 23.5467 26.2415 26.1084 26.3635 26.3183C31.021 34.3265 27.9276 21.9436 34.502 28.2895C34.8869 28.661 36.6175 27.7201 37.1023 28.065C39.7116 29.9219 38.4286 28.5752 42.7812 29.4596C45.7722 30.0673 45.6283 29.6611 48.2035 28.7242C48.3247 28.6801 51.2364 33.7479 55.121 33.0027C56.7105 32.6977 58.5212 32.6783 59.9691 32.2453C64.1868 30.9841 66.0755 36.7099 69.9518 35.2275C70.6237 34.9706 71.6047 36.0285 72.2788 35.7728C73.1554 35.4404 73.9737 34.2689 74.7998 33.9092L78.0444 34.6047C82.1594 32.8128 83.8681 31.0378 86.374 29.4596C87.7674 28.582 87.465 29.3943 90.7458 28.7242C91.7078 28.5277 93.3437 27.5847 94.5752 27.3409C96.3262 26.9941 97.1341 28.7677 98.8023 28.3406C100.667 27.8631 101.344 26.8066 102.679 26.3183C103.711 25.9408 105.446 26.178 106.486 25.5612C107.764 24.8026 109.219 23.0262 110.906 22.5052C112.185 22.1104 113.955 23.3218 115.039 23.3069C116.577 23.2857 117.319 22.1996 118.342 22.6446C120.708 23.6731 121.319 26.7846 124.795 26.0268C126.83 25.5833 127.19 24.0938 128.364 23.5467C129.542 22.9979 131.042 24.3199 131.833 23.7249C132.857 22.9555 133.432 20.7252 134.856 19.7509C136.191 18.8375 138.327 19.1733 140.669 18.622C141.143 18.5104 141.371 17.3416 141.977 16.4022C142.47 15.6373 143.561 15.8459 144.039 15.0412C144.527 14.2185 144.398 12.3829 144.478 11.6429C144.671 9.83786 148.488 10.4293 148.664 8.98057C148.871 7.27254 151.804 7.27594 154.7 6.13768C155.606 5.78183 156.468 6.73268 158.115 6.76258C159.987 6.79655 160.598 5.72985 162.442 5.57669C163.678 5.47409 164.47 6.34785 165.642 6.13768C168.763 5.57812 170.573 0.343178 173.841 0.0159527C175.727 -0.172862 176.113 1.37483 178.031 1.47069C179.698 1.55404 180.661 6.26896 182.365 6.13768C183.316 6.06444 184.033 5.31884 185.023 5.13795C186.538 4.86118 186.986 5.26858 188.558 5.13795C189.797 5.03493 191.021 4.08111 192.494 3.86602C194.002 3.64581 195.171 4.16757 196.256 4.35413C196.256 4.35413 198.828 5.51985 199.965 5.57669C200.713 5.61407 202.004 4.54981 203.274 4.35413C204.108 4.22569 205.327 5.57669 205.327 5.57669C207.309 5.91769 206.533 6.98314 208.274 7.54322C209.618 7.97545 211.359 9.16162 212.445 9.731C214.208 10.6545 216 12.8174 216 12.8174V56Z" fill="#775DA6"/>
</svg>
