<svg width="48" height="48" fill="none" xmlns="http://www.w3.org/2000/svg"><rect x="3" y="6" width="42" height="36" rx="4" fill="#fff" stroke="#D8D8D8" stroke-width="1.6"/><path d="M8 29v7a1 1 0 0 0 1 1h2a1 1 0 0 0 1-1v-7a1 1 0 0 0-1-1H9a1 1 0 0 0-1 1ZM8 12v7a1 1 0 0 0 1 1h2a1 1 0 0 0 1-1v-7a1 1 0 0 0-1-1H9a1 1 0 0 0-1 1ZM14 28.5v8a.5.5 0 0 0 .5.5h1a.5.5 0 0 0 .5-.5v-8a.5.5 0 0 0-.5-.5h-1a.5.5 0 0 0-.5.5ZM14 12v7a1 1 0 1 0 2 0v-7a1 1 0 1 0-2 0ZM28 29v7a1 1 0 0 0 1 1h1a1 1 0 0 0 1-1v-7a1 1 0 0 0-1-1h-1a1 1 0 0 0-1 1ZM28 12v7a1 1 0 0 0 1 1h1a1 1 0 0 0 1-1v-7a1 1 0 0 0-1-1h-1a1 1 0 0 0-1 1ZM6.8 24.6h34.4a.8.8 0 0 0 0-1.6H6.8a.8.8 0 0 0 0 1.6ZM18 29v7a1 1 0 1 0 2 0v-7a1 1 0 1 0-2 0ZM18 12v7a1 1 0 1 0 2 0v-7a1 1 0 1 0-2 0ZM22 29v7a1 1 0 0 0 1 1h2a1 1 0 0 0 1-1v-7a1 1 0 0 0-1-1h-2a1 1 0 0 0-1 1ZM22 12v7a1 1 0 0 0 1 1h2a1 1 0 0 0 1-1v-7a1 1 0 0 0-1-1h-2a1 1 0 0 0-1 1ZM33 29v7a1 1 0 0 0 1 1h5a1 1 0 0 0 1-1v-7a1 1 0 0 0-1-1h-5a1 1 0 0 0-1 1ZM33 12v7a1 1 0 0 0 1 1h5a1 1 0 0 0 1-1v-7a1 1 0 0 0-1-1h-5a1 1 0 0 0-1 1Z" fill="#8E8E8E"/></svg>
