<svg width="48" height="48" fill="none" xmlns="http://www.w3.org/2000/svg"><rect x="4" y="7" width="40" height="33" rx="2" fill="#fff"/><path d="M10 7H6a2 2 0 0 0-2 2v4M38 40h4a2 2 0 0 0 2-2v-4M44 13V9a2 2 0 0 0-2-2h-4M4 34v4a2 2 0 0 0 2 2h4" stroke="#DEDEDE" stroke-width="1.6" stroke-linecap="round"/><path d="M10 29.377c2.807-.143 8.421-2.143 8.421-9s-3.65-7.714-5.474-7.285c-1.263.428-3.368 2.314-1.684 6.428 2.105 5.143 6.737 9.857 9.684 10.285 2.948.429 5.053.429 6.316-3 1.263-3.428 2.526-3.857 3.79-3 1.486 1.01.447 5.572 2.947 6 2.5.429 3.3-.207 4.5-4.305" stroke="#6A6A6A" stroke-width="2" stroke-linecap="round"/></svg>
