<svg width="156" height="46" viewBox="0 0 156 46" fill="none" xmlns="http://www.w3.org/2000/svg">
<path d="M3.39005 13.5473H3.87435C5.73888 13.5473 7.2644 15.5794 7.2644 18.0631V40.6419C7.2644 43.1255 5.73888 45.1576 3.87435 45.1576H3.39005C1.52552 45.1576 0 43.1255 0 40.6419V18.0631C0 15.5794 1.52552 13.5473 3.39005 13.5473ZM16.9503 0C18.8148 0 20.3403 2.03209 20.3403 4.51576V40.6419C20.3403 43.1255 18.8148 45.1576 16.9503 45.1576C15.0857 45.1576 13.5602 43.1255 13.5602 40.6419V4.51576C13.5602 2.03209 15.0857 0 16.9503 0ZM30.5105 25.8044C32.375 25.8044 33.9005 27.8365 33.9005 30.3201V40.6419C33.9005 43.1255 32.375 45.1576 30.5105 45.1576C28.646 45.1576 27.1204 43.1255 27.1204 40.6419V30.3201C27.1204 27.8365 28.646 25.8044 30.5105 25.8044Z" fill="#775DA6"/>
<path d="M44.0898 13.5473H44.5741C46.4386 13.5473 47.9641 15.5794 47.9641 18.0631V40.6419C47.9641 43.1255 46.4386 45.1576 44.5741 45.1576H44.0898C42.2252 45.1576 40.6997 43.1255 40.6997 40.6419V18.0631C40.6997 15.5794 42.2252 13.5473 44.0898 13.5473ZM57.65 0C59.5145 0 61.04 2.03209 61.04 4.51576V40.6419C61.04 43.1255 59.5145 45.1576 57.65 45.1576C55.7854 45.1576 54.2599 43.1255 54.2599 40.6419V4.51576C54.2599 2.03209 55.7854 0 57.65 0ZM71.2102 25.8044C73.0747 25.8044 74.6003 27.8365 74.6003 30.3201V40.6419C74.6003 43.1255 73.0747 45.1576 71.2102 45.1576C69.3457 45.1576 67.8201 43.1255 67.8201 40.6419V30.3201C67.8201 27.8365 69.3457 25.8044 71.2102 25.8044Z" fill="#775DA6"/>
<path d="M84.7895 13.5473H85.2738C87.1383 13.5473 88.6638 15.5794 88.6638 18.0631V40.6419C88.6638 43.1255 87.1383 45.1576 85.2738 45.1576H84.7895C82.9249 45.1576 81.3994 43.1255 81.3994 40.6419V18.0631C81.3994 15.5794 82.9249 13.5473 84.7895 13.5473ZM98.3497 0C100.214 0 101.74 2.03209 101.74 4.51576V40.6419C101.74 43.1255 100.214 45.1576 98.3497 45.1576C96.4852 45.1576 94.9596 43.1255 94.9596 40.6419V4.51576C94.9596 2.03209 96.4852 0 98.3497 0ZM111.91 25.8044C113.774 25.8044 115.3 27.8365 115.3 30.3201V40.6419C115.3 43.1255 113.774 45.1576 111.91 45.1576C110.045 45.1576 108.52 43.1255 108.52 40.6419V30.3201C108.52 27.8365 110.045 25.8044 111.91 25.8044Z" fill="#775DA6"/>
<path d="M125.49 13.5473H125.974C127.838 13.5473 129.364 15.5794 129.364 18.0631V40.6419C129.364 43.1255 127.838 45.1576 125.974 45.1576H125.49C123.625 45.1576 122.1 43.1255 122.1 40.6419V18.0631C122.1 15.5794 123.625 13.5473 125.49 13.5473ZM139.05 0C140.914 0 142.44 2.03209 142.44 4.51576V40.6419C142.44 43.1255 140.914 45.1576 139.05 45.1576C137.185 45.1576 135.66 43.1255 135.66 40.6419V4.51576C135.66 2.03209 137.185 0 139.05 0ZM152.61 25.8044C154.475 25.8044 156 27.8365 156 30.3201V40.6419C156 43.1255 154.475 45.1576 152.61 45.1576C150.746 45.1576 149.22 43.1255 149.22 40.6419V30.3201C149.22 27.8365 150.746 25.8044 152.61 25.8044Z" fill="#775DA6"/>
</svg>
