<svg width="16" height="16" viewBox="0 0 16 16" fill="none" xmlns="http://www.w3.org/2000/svg">
<path fill-rule="evenodd" clip-rule="evenodd" d="M13.2727 8.875V3.375C13.2727 2.61875 12.6591 2 11.9091 2H2.36364C1.61364 2 1 2.61875 1 3.375V8.875C1 9.63125 1.61364 10.25 2.36364 10.25H11.9091C12.6591 10.25 13.2727 9.63125 13.2727 8.875ZM7.13636 8.1875C6.00455 8.1875 5.09091 7.26625 5.09091 6.125C5.09091 4.98375 6.00455 4.0625 7.13636 4.0625C8.26818 4.0625 9.18182 4.98375 9.18182 6.125C9.18182 7.26625 8.26818 8.1875 7.13636 8.1875ZM16 4.0625V11.625C16 12.3813 15.3864 13 14.6364 13H3.04545V11.625H14.6364V4.0625H16Z" fill="#898989"/>
</svg>
