<svg width="24" height="24" viewBox="0 0 24 24" fill="none" xmlns="http://www.w3.org/2000/svg">
<rect width="24" height="24" rx="12" fill="#775DA6"/>
<g clip-path="url(#clip0_0_4737)">
<path d="M15.0637 11C14.97 10.7131 14.8464 10.456 14.693 10.2287C14.5424 9.99858 14.362 9.80256 14.1518 9.64062C13.9444 9.47869 13.7086 9.35511 13.4444 9.26989C13.1802 9.18466 12.8904 9.14205 12.5751 9.14205C12.0581 9.14205 11.5879 9.27557 11.1646 9.54261C10.7413 9.80966 10.4047 10.2031 10.1547 10.723C9.90465 11.2429 9.77965 11.8807 9.77965 12.6364C9.77965 13.392 9.90607 14.0298 10.1589 14.5497C10.4118 15.0696 10.7541 15.4631 11.1859 15.7301C11.6177 15.9972 12.1035 16.1307 12.6433 16.1307C13.1433 16.1307 13.5836 16.0241 13.9643 15.8111C14.3478 15.5952 14.6461 15.2912 14.8592 14.8991C15.0751 14.5043 15.1831 14.0398 15.1831 13.5057L15.5069 13.5739H12.8819V12.6364H16.2058V13.5739C16.2058 14.2926 16.0524 14.9176 15.7456 15.4489C15.4416 15.9801 15.0211 16.392 14.4842 16.6847C13.9501 16.9744 13.3365 17.1193 12.6433 17.1193C11.8706 17.1193 11.1916 16.9375 10.6064 16.5739C10.024 16.2102 9.56942 15.6932 9.24272 15.0227C8.91886 14.3523 8.75692 13.5568 8.75692 12.6364C8.75692 11.946 8.84925 11.3253 9.03391 10.7741C9.22141 10.2202 9.48562 9.74858 9.82653 9.35938C10.1674 8.97017 10.5708 8.67188 11.0368 8.46449C11.5027 8.2571 12.0154 8.15341 12.5751 8.15341C13.0353 8.15341 13.4643 8.22301 13.862 8.36222C14.2626 8.49858 14.6191 8.69318 14.9316 8.94602C15.247 9.19602 15.5098 9.49574 15.72 9.84517C15.9302 10.1918 16.0751 10.5767 16.1547 11H15.0637Z" fill="white"/>
</g>
<defs>
<clipPath id="clip0_0_4737">
<rect width="9" height="15" fill="white" transform="translate(8 5)"/>
</clipPath>
</defs>
</svg>
