<svg width="27" height="27" viewBox="0 0 27 27" fill="none" xmlns="http://www.w3.org/2000/svg">
<path fill-rule="evenodd" clip-rule="evenodd" d="M0 13.5C0 6.048 6.048 0 13.5 0C20.952 0 27 6.048 27 13.5C27 20.952 20.952 27 13.5 27C6.048 27 0 20.952 0 13.5ZM16.5375 6.4125C16.5375 4.7385 15.174 3.375 13.5 3.375C11.826 3.375 10.4625 4.7385 10.4625 6.4125C10.4625 8.0865 11.826 9.45 13.5 9.45C15.174 9.45 16.5375 8.0865 16.5375 6.4125ZM20.25 21.006V17.631V15.228C20.25 13.095 16.6995 11.475 13.5 11.475C10.3005 11.475 6.75 13.095 6.75 15.228V21.006C6.75 21.0735 7.074 21.2895 7.128 21.3165L7.5465 21.6405C7.83 21.8565 8.127 22.0455 8.424 22.221C9.0315 22.572 9.6795 22.869 10.341 23.085C10.9755 23.301 11.637 23.4495 12.312 23.5305C12.771 23.5845 13.23 23.598 13.7025 23.598C13.7941 23.598 13.889 23.6019 13.9853 23.6058C14.3287 23.6199 14.6898 23.6347 14.985 23.4765C15.309 23.301 15.525 22.977 15.525 22.5855C15.525 22.059 15.1335 21.627 14.634 21.573L12.8385 21.3705C11.61 21.2355 10.4625 20.898 9.4095 20.2635L9.693 20.034L9.9225 19.872C10.854 19.2645 12.204 18.8865 13.5 18.8865C15.0525 18.8865 16.7265 19.4265 17.604 20.2635C17.9955 20.628 18.225 21.0465 18.225 21.5055V22.4235C18.954 22.0455 19.6425 21.5595 20.25 21.006ZM13.5 17.5365C14.6184 17.5365 15.525 16.6299 15.525 15.5115C15.525 14.3931 14.6184 13.4865 13.5 13.4865C12.3816 13.4865 11.475 14.3931 11.475 15.5115C11.475 16.6299 12.3816 17.5365 13.5 17.5365Z" fill="#70B6C1"/>
</svg>
