<svg width="14" height="14" viewBox="0 0 14 14" fill="none" xmlns="http://www.w3.org/2000/svg">
<path d="M6.4375 0.280029V1.61597V11.741V13.0769L5.45312 12.1628L2.81641 9.49097H0.8125H0.25V8.92847V4.42847V3.86597H0.8125H2.81641L5.45312 1.19409L6.4375 0.280029ZM11.5703 1.2644C13.0234 2.78784 13.75 4.59253 13.75 6.67847C13.75 8.7644 13.0234 10.5691 11.5703 12.0925L10.7969 11.3191C12.0156 10.0066 12.625 8.45972 12.625 6.67847C12.625 4.89722 12.0156 3.35034 10.7969 2.03784L11.5703 1.2644ZM9.98828 2.84644C10.9961 3.92456 11.5 5.2019 11.5 6.67847C11.5 8.15503 10.9961 9.43237 9.98828 10.5105L9.17969 9.7019C9.97656 8.83472 10.375 7.8269 10.375 6.67847C10.375 5.53003 9.97656 4.52222 9.17969 3.65503L9.98828 2.84644ZM5.3125 2.98706L3.48438 4.85034L3.27344 4.99097H3.0625H1.375V8.36597H3.0625H3.27344L3.48438 8.50659L5.3125 10.3699V2.98706ZM8.40625 4.42847C8.96875 5.08472 9.25 5.83472 9.25 6.67847C9.25 7.52222 8.96875 8.27222 8.40625 8.92847L7.59766 8.08472C7.94922 7.66284 8.125 7.19409 8.125 6.67847C8.125 6.16284 7.94922 5.69409 7.59766 5.27222L8.40625 4.42847Z" fill="#778CA2"/>
</svg>
