<svg width="48" height="48" fill="none" xmlns="http://www.w3.org/2000/svg"><g clip-path="url(#a)"><rect x="2.5" y="15.5" width="44" height="18" rx="3.5" fill="#4AA1ED" stroke="#4AA1ED"/><path d="m7.434 27.69.432-1.327h2.1l.431 1.326h1.319L9.71 21.871H8.125L6.116 27.69h1.318Zm.745-2.288.716-2.201h.045l.716 2.201H8.179Zm5.983 2.373c1.161 0 1.892-.682 1.948-1.685h-1.142c-.07.466-.377.727-.792.727-.566 0-.932-.474-.932-1.31 0-.823.37-1.295.932-1.295.443 0 .727.293.792.727h1.142c-.05-1.008-.815-1.67-1.954-1.67-1.324 0-2.142.918-2.142 2.256 0 1.326.804 2.25 2.148 2.25Zm5.044-4.45h-.82V22.28h-1.21v1.046h-.598v.909h.597v2.273c-.006.855.577 1.278 1.455 1.241a2.36 2.36 0 0 0 .656-.113l-.19-.901c-.06.011-.188.04-.302.04-.241 0-.409-.091-.409-.426v-2.114h.821v-.91Zm.789 4.364h1.21v-4.363h-1.21v4.363Zm.608-4.926c.36 0 .656-.275.656-.613 0-.335-.296-.611-.656-.611-.358 0-.654.275-.654.61 0 .339.296.614.654.614Zm3.543 5.012c1.324 0 2.148-.907 2.148-2.25 0-1.353-.824-2.256-2.148-2.256-1.324 0-2.148.903-2.148 2.256 0 1.343.824 2.25 2.148 2.25Zm.006-.938c-.611 0-.924-.56-.924-1.32 0-.762.313-1.325.924-1.325.6 0 .912.563.912 1.324 0 .762-.313 1.321-.912 1.321Zm4.139-1.67c.003-.563.338-.892.826-.892.486 0 .779.318.776.852v2.563h1.21V24.91c0-1.017-.596-1.642-1.505-1.642-.648 0-1.117.318-1.313.827h-.051v-.77h-1.153v4.363h1.21v-2.522Z" fill="#fff"/><path d="m38.75 24.966 2 1.6 2-1.6" stroke="#F5F5F5" stroke-width="1.2" stroke-linecap="square"/><path opacity=".2" d="M34.5 15v19" stroke="#fff"/></g><defs><clipPath id="a"><path fill="#fff" d="M0 0h48v48H0z"/></clipPath></defs></svg>
