<svg width="48" height="48" fill="none" xmlns="http://www.w3.org/2000/svg"><path stroke="#BEBEBE" stroke-width="2" stroke-linecap="round" d="M7 16h24"/><path stroke="#DEDEDE" stroke-width="2" stroke-linecap="round" d="M7 36h13"/><path d="M12.177 22h-1.38L8.81 23.277v1.328l1.87-1.195h.047V30h1.45v-8Zm3.266 6.906h-1.25l-.027.438c-.066 1.058-.344 2.136-.457 2.61h.953c.188-.493.621-1.634.73-2.618l.051-.43Zm4.214 1.246c1.93.004 3.082-1.52 3.082-4.144 0-2.61-1.16-4.117-3.082-4.117s-3.078 1.504-3.082 4.117c0 2.62 1.152 4.144 3.082 4.144Zm0-1.222c-.996 0-1.62-1-1.617-2.922.004-1.906.625-2.91 1.617-2.91.996 0 1.617 1.004 1.621 2.91 0 1.922-.62 2.922-1.62 2.922Zm7.337 1.222c1.93.004 3.082-1.52 3.082-4.144 0-2.61-1.16-4.117-3.082-4.117s-3.078 1.504-3.082 4.117c0 2.62 1.152 4.144 3.082 4.144Zm0-1.222c-.996 0-1.621-1-1.617-2.922.004-1.906.625-2.91 1.617-2.91.996 0 1.617 1.004 1.621 2.91 0 1.922-.62 2.922-1.62 2.922Zm7.337 1.222c1.93.004 3.082-1.52 3.082-4.144 0-2.61-1.16-4.117-3.082-4.117s-3.078 1.504-3.082 4.117c0 2.62 1.152 4.144 3.082 4.144Zm0-1.222c-.996 0-1.621-1-1.617-2.922.004-1.906.625-2.91 1.617-2.91.996 0 1.617 1.004 1.621 2.91 0 1.922-.62 2.922-1.62 2.922Z" fill="#757575"/><mask id="a" maskUnits="userSpaceOnUse" x="1" y="20.989" width="6" height="10" fill="#000"><path fill="#fff" d="M1 20.989h6v10H1z"/><path fill-rule="evenodd" clip-rule="evenodd" d="M4.31 21.99v1.355c.95.091 1.595.683 1.617 1.474h-.783c-.057-.496-.496-.785-1.112-.785-.662 0-1.08.338-1.08.795-.002.515.557.712.977.82l.525.136c.682.168 1.546.543 1.546 1.511 0 .837-.613 1.465-1.69 1.562v1.194h-.672v-1.201c-.986-.113-1.591-.686-1.638-1.555h.814c.047.586.567.864 1.191.864.69 0 1.192-.347 1.192-.872 0-.477-.444-.666-1.019-.818l-.635-.174c-.863-.233-1.399-.671-1.399-1.42 0-.804.624-1.375 1.494-1.511v-1.376h.672Z"/></mask><path fill-rule="evenodd" clip-rule="evenodd" d="M4.31 21.99v1.355c.95.091 1.595.683 1.617 1.474h-.783c-.057-.496-.496-.785-1.112-.785-.662 0-1.08.338-1.08.795-.002.515.557.712.977.82l.525.136c.682.168 1.546.543 1.546 1.511 0 .837-.613 1.465-1.69 1.562v1.194h-.672v-1.201c-.986-.113-1.591-.686-1.638-1.555h.814c.047.586.567.864 1.191.864.69 0 1.192-.347 1.192-.872 0-.477-.444-.666-1.019-.818l-.635-.174c-.863-.233-1.399-.671-1.399-1.42 0-.804.624-1.375 1.494-1.511v-1.376h.672Z" fill="#757575"/><path d="M4.31 23.345h-.2v.182l.18.017.02-.199Zm0-1.356h.2v-.2h-.2v.2Zm1.617 2.83v.2h.205l-.006-.206-.2.006Zm-.783 0-.198.023.02.177h.178v-.2Zm-2.191.01.2.001h-.2Zm.976.82.05-.195-.05.194Zm.525.136-.05.193h.002l.048-.193Zm-.144 3.073-.018-.2-.182.017v.183h.2Zm0 1.194v.2h.2v-.2h-.2Zm-.672 0h-.2v.2h.2v-.2Zm0-1.201h.2v-.179l-.178-.02-.022.199ZM2 27.296v-.2h-.211l.011.211.2-.01Zm.814 0 .199-.016-.015-.184h-.184v.2Zm1.364-.826-.052.193h.001l.051-.193Zm-.635-.174.053-.193-.053.193Zm.095-2.931.03.197.17-.026v-.171h-.2Zm0-1.376v-.2h-.2v.2h.2Zm.872 1.356V21.99h-.4v1.356h.4Zm1.616 1.468c-.025-.918-.775-1.569-1.797-1.667l-.038.398c.88.085 1.417.617 1.436 1.28l.4-.01Zm-.982.206h.783v-.4h-.783v.4Zm-1.112-.785c.279 0 .5.065.652.17.148.103.24.248.262.438l.397-.046a.995.995 0 0 0-.432-.72c-.235-.163-.542-.242-.88-.242v.4Zm-.88.595a.5.5 0 0 1 .213-.41c.144-.109.368-.185.667-.185v-.4c-.364 0-.679.093-.909.267a.9.9 0 0 0-.37.728h.4Zm.827.625c-.207-.053-.424-.122-.586-.23-.156-.103-.241-.225-.24-.394l-.4-.002c-.002.346.19.58.42.73.22.147.493.23.706.284l.1-.388Zm.525.137-.525-.137-.1.388.525.136.1-.387ZM6.2 27.296c0-.554-.252-.945-.594-1.213-.334-.262-.753-.406-1.104-.493l-.096.389c.331.081.685.209.954.419.26.204.44.485.44.898h.4Zm-1.872 1.761c.573-.051 1.041-.246 1.369-.558.33-.313.503-.733.503-1.203h-.4c0 .367-.133.68-.379.913-.248.236-.625.404-1.13.45l.037.398Zm-.218-.199v1.194h.4v-1.194h-.4Zm.2.994h-.672v.4h.672v-.4Zm-.472.2v-1.201h-.4v1.201h.4ZM1.8 27.307c.026.481.208.891.53 1.195.318.302.76.487 1.285.547l.045-.397c-.46-.053-.814-.21-1.056-.44-.24-.228-.383-.538-.404-.926l-.4.021Zm1.014-.21H2v.4h.814v-.4Zm1.191.863c-.285 0-.53-.064-.701-.179a.634.634 0 0 1-.291-.5l-.399.032c.03.356.206.626.468.801.256.17.584.246.923.246v-.4Zm.992-.672a.563.563 0 0 1-.254.47c-.17.123-.424.202-.738.202v.4c.376 0 .718-.094.972-.277a.962.962 0 0 0 .42-.794h-.4Zm-.87-.625c.287.076.511.154.663.259.139.096.207.205.207.366h.4c0-.316-.154-.54-.38-.696-.214-.147-.499-.24-.787-.316l-.103.387Zm-.636-.174.635.174.105-.386-.635-.174-.105.386Zm-1.547-1.613c0 .429.156.777.437 1.048.276.264.661.444 1.11.565l.105-.386c-.415-.112-.73-.268-.937-.468a1 1 0 0 1-.315-.759h-.4Zm1.663-1.709c-.937.147-1.663.778-1.663 1.71h.4c0-.678.52-1.189 1.325-1.315l-.062-.395Zm-.17-1.178v1.376h.4v-1.376h-.4Zm.873-.2h-.672v.4h.672v-.4Z" fill="#757575" mask="url(#a)"/><path d="m42.174 25.418-1.672 1.858a.833.833 0 0 0 .62 1.39H44.878a.833.833 0 0 0 .62-1.39l-1.673-1.858a1.111 1.111 0 0 0-1.652 0Z" fill="#1CA65B"/></svg>
