<svg width="48" height="48" viewBox="0 0 48 48" fill="none" xmlns="http://www.w3.org/2000/svg">
<circle cx="28.7648" cy="18.5875" r="2.58824" transform="rotate(-180 28.7648 18.5875)" fill="#E5E5E5"/>
<path d="M30.7061 18.5879L13.2355 18.5878" stroke="#3C92DC" stroke-width="2.58824"/>
<circle cx="28.765" cy="18.5877" r="1.94118" transform="rotate(-180 28.765 18.5877)" fill="#3C92DC" stroke="#3C92DC" stroke-width="1.29412"/>
<circle cx="14.2943" cy="18.5877" r="2.26471" transform="rotate(-180 14.2943 18.5877)" fill="#3C92DC" stroke="#3C92DC" stroke-width="1.94118"/>
<circle cx="31.5" cy="18.5" r="5.5" fill="#3C92DC"/>
<circle cx="31.5" cy="18.5" r="5.5" fill="#3C92DC"/>
<path d="M30 18.3611L31.3611 19.4954L33.6296 17" stroke="white" stroke-width="1.4" stroke-linecap="round" stroke-linejoin="round"/>
<path d="M14.5819 28.4545H13.4537L11.8269 29.4996V30.5863L13.3578 29.6083H13.3961V35H14.5819V28.4545Z" fill="#787878"/>
<path d="M29.5817 35H34.0689V34.0092H31.218V33.9645L32.3462 32.8171C33.6183 31.5962 33.9698 31.0018 33.9698 30.2635C33.9698 29.1673 33.0781 28.3651 31.7614 28.3651C30.4638 28.3651 29.5433 29.1705 29.5433 30.4137H30.6715C30.6715 29.7457 31.0934 29.3271 31.7454 29.3271C32.3686 29.3271 32.832 29.7074 32.832 30.3242C32.832 30.8707 32.4996 31.2607 31.854 31.9158L29.5817 34.1435V35Z" fill="#787878"/>
</svg>
