<svg width="48" height="48" viewBox="0 0 48 48" fill="none" xmlns="http://www.w3.org/2000/svg">
<circle cx="27.7648" cy="8.58852" r="2.58824" transform="rotate(-180 27.7648 8.58852)" fill="#E5E5E5"/>
<path d="M29.7061 8.58887L12.2355 8.58879" stroke="#3C92DC" stroke-width="2.58824"/>
<circle cx="27.765" cy="8.58869" r="1.94118" transform="rotate(-180 27.765 8.58869)" fill="#3C92DC" stroke="#3C92DC" stroke-width="1.29412"/>
<circle cx="13.2943" cy="8.58869" r="2.26471" transform="rotate(-180 13.2943 8.58869)" fill="#3C92DC" stroke="#3C92DC" stroke-width="1.94118"/>
<circle cx="30.5" cy="8.5" r="5.5" fill="#3C92DC"/>
<circle cx="30.5" cy="8.5" r="5.5" fill="#3C92DC"/>
<rect x="4.2" y="17.2" width="39.6" height="25.6" rx="4.8" fill="white" stroke="#D8D8D8" stroke-width="1.6"/>
<path d="M10 24L10 36C10 37.1046 10.8954 38 12 38L36 38C37.1046 38 38 37.1046 38 36L38 24C38 22.8954 37.1046 22 36 22L12 22C10.8954 22 10 22.8954 10 24Z" fill="#E5E5E5"/>
<path d="M28.5 8.86111L29.8611 9.99537L32.1296 7.5" stroke="white" stroke-width="1.4" stroke-linecap="round" stroke-linejoin="round"/>
</svg>
