<svg width="48" height="48" fill="none" xmlns="http://www.w3.org/2000/svg"><rect x="4" y="7" width="40" height="34" rx="2" fill="#fff"/><path d="M10 7H6a2 2 0 0 0-2 2v4M38 41h4a2 2 0 0 0 2-2v-4M44 13V9a2 2 0 0 0-2-2h-4M4 35v4a2 2 0 0 0 2 2h4" stroke="#DEDEDE" stroke-width="1.6" stroke-linecap="round"/><rect x="8.8" y="19.8" width="30.4" height="6.4" rx="1.2" fill="#fff" stroke="#DEDEDE" stroke-width="1.6"/><rect x="8" y="29" width="32" height="7" rx="2" fill="#6772E5"/><path d="M12.7 11.918c-.4 0-.7.164-.7.493 0 .986 3.05.493 3 3.123C15 17.124 13.9 18 12.25 18c-.7 0-1.4-.164-2.15-.493v-2.082c.65.383 1.5.712 2.15.712.45 0 .75-.164.75-.548 0-1.096-3-.658-3-3.069 0-1.588 1.1-2.52 2.7-2.52.65 0 1.35.164 2 .438v2.082c-.6-.383-1.4-.602-2-.602Z" fill="#6772E5"/></svg>
