<svg width="48" height="48" fill="none" xmlns="http://www.w3.org/2000/svg"><g clip-path="url(#a)"><rect x="4" y="7" width="40" height="32" rx="2" fill="#fff"/><path d="M10 7H6a2 2 0 0 0-2 2v4M38 39h4a2 2 0 0 0 2-2v-4M44 13V9a2 2 0 0 0-2-2h-4M4 33v4a2 2 0 0 0 2 2h4" stroke="#DEDEDE" stroke-width="1.6"/><path d="M12.42 19.5v.15h1.134v-2.123h2.096v-1.054h-2.096V14.35h-1.133v2.123H10.35v1.054h2.07V19.5z" fill="#E8762D" stroke="#E8762D" stroke-width=".3"/><path d="M9.032 22.5v.15h.936V20.715h1.682v-.905H9.968v-1.96h-.936v1.96H7.35v.904h1.682V22.5z" fill="#C72037" stroke="#C72037" stroke-width=".3"/><path d="M16.022 16v.15h.933v-1.946H18.65v-.884H16.955v-1.97h-.933v1.97H14.35v.884h1.672V16z" fill="#5B879B" stroke="#5B879B" stroke-width=".3"/><path d="M12.55 24v.15h.876v-1.478h1.224V21.828h-1.224V20.35h-.876v1.478h-1.2V22.672h1.2V24z" fill="#5C6692" stroke="#5C6692" stroke-width=".3"/><path d="M9.055 16v.15h.89v-1.97H11.65V13.32H9.945v-1.97h-.89v1.97H7.35V14.18H9.055V16z" fill="#EB9129" stroke="#EB9129" stroke-width=".3"/><path d="M18.35 18.5v.15h.78v-1.254h1.02v-.792h-1.02V15.35h-.78v1.254h-1v.792h1V18.5z" fill="#5C6692" stroke="#5C6692" stroke-width=".3"/><path d="M16.022 22.5v.15h.933V20.715H18.65v-.905H16.955v-1.96h-.933v1.96H14.35v.904h1.672V22.5z" fill="#1F457E" stroke="#1F457E" stroke-width=".3"/><path d="M14.5 11.855h.15V11.152H13.473V9.85h-.724V11.152H11.572V11.855H12.749V13.157h.724V11.855H14.5zM7.027 18.5v.15h.724V17.348H8.928V16.645H7.751V15.367h-.724V16.645H5.85v.73l.153-.004 1.024-.02V18.5z" fill="#7199A6" stroke="#7199A6" stroke-width=".3"/><rect x="26" y="13" width="22" height="3" rx="1" transform="rotate(90 26 13)" fill="#D8D8D8"/><rect x="36" y="18" width="17" height="3" rx="1" transform="rotate(90 36 18)" fill="#D8D8D8"/><rect x="31" y="21" width="14" height="3" rx="1" transform="rotate(90 31 21)" fill="#D8D8D8"/><rect x="41" y="21" width="14" height="3" rx="1" transform="rotate(90 41 21)" fill="#D8D8D8"/></g><defs><clipPath id="a"><path fill="#fff" d="M0 0h48v48H0z"/></clipPath></defs></svg>