<svg width="48" height="48" viewBox="0 0 48 48" fill="none" xmlns="http://www.w3.org/2000/svg">
<path d="M22.6881 27H25.3376C26.8365 27 27.5716 26.2362 27.5716 25.2166C27.5716 24.2259 26.8685 23.6442 26.1717 23.609V23.5451C26.8109 23.3949 27.3159 22.9474 27.3159 22.1516C27.3159 21.1768 26.6128 20.4545 25.1938 20.4545H22.6881V27ZM23.8738 26.0092V24.0916H25.181C25.9129 24.0916 26.3667 24.5391 26.3667 25.1239C26.3667 25.6449 26.0087 26.0092 25.149 26.0092H23.8738ZM23.8738 23.2383V21.4325H25.0723C25.769 21.4325 26.1302 21.8001 26.1302 22.305C26.1302 22.8803 25.6636 23.2383 25.0467 23.2383H23.8738Z" fill="#2B2B2B"/>
<path d="M40.404 22.663C40.2026 21.2088 39.084 20.3651 37.633 20.3651C35.9232 20.3651 34.6352 21.6115 34.6352 23.7273C34.6352 25.8398 35.9072 27.0895 37.633 27.0895C39.1895 27.0895 40.2218 26.0827 40.404 24.8331L39.2087 24.8267C39.0585 25.5938 38.432 26.0252 37.649 26.0252C36.5879 26.0252 35.8273 25.2294 35.8273 23.7273C35.8273 22.2507 36.5815 21.4293 37.6522 21.4293C38.448 21.4293 39.0712 21.88 39.2087 22.663H40.404Z" fill="#2B2B2B"/>
<rect x="2" y="18" width="17" height="12" rx="6" fill="#DAECFC"/>
<path d="M8.7298 27L9.26993 25.386H11.7309L12.2742 27H13.5398L11.2323 20.4545H9.76851L7.46418 27H8.7298ZM9.58953 24.4336L10.4748 21.7969H10.526L11.4113 24.4336H9.58953Z" fill="#3C92DC"/>
</svg>
