<svg width="48" height="48" fill="none" xmlns="http://www.w3.org/2000/svg"><rect x="2" y="11" width="21" height="11" rx="5.5" fill="#F8DBD8"/><path d="M6.219 14.908h1.546V19h1.213v-4.092h1.544v-.999H6.219v1Zm5.46 4.157c.532 0 .9-.207 1.11-.597h.029V19h1.143v-2.595c0-.808-.718-1.273-1.69-1.273-1.027 0-1.608.517-1.705 1.213l1.12.04c.053-.244.254-.393.575-.393.298 0 .487.144.487.4v.013c0 .233-.253.283-.904.34-.774.065-1.42.35-1.42 1.196 0 .756.525 1.124 1.255 1.124Zm.376-.796c-.281 0-.48-.134-.48-.388 0-.246.194-.395.54-.447.226-.032.504-.082.64-.154v.363c0 .373-.312.626-.7.626Zm4.43 2.242c1.15 0 1.936-.524 1.936-1.496v-3.833h-1.21v.654h-.035c-.147-.35-.48-.704-1.082-.704-.798 0-1.521.614-1.521 1.954 0 1.298.688 1.862 1.526 1.862.562 0 .937-.261 1.081-.614h.043v.671c0 .487-.299.664-.706.664-.39 0-.624-.15-.689-.386l-1.15.065c.089.669.718 1.163 1.806 1.163Zm.037-2.448c-.45 0-.701-.366-.701-.977 0-.61.248-1.004.7-1.004.446 0 .704.385.704 1.004 0 .614-.26.977-.703.977Z" fill="#AC3930"/><rect x="25" y="11" width="21" height="11" rx="5.5" fill="#FBEDC8"/><path d="M29.219 14.908h1.546V19h1.213v-4.092h1.544v-.999h-4.303v1Zm5.46 4.157c.532 0 .9-.207 1.11-.597h.029V19h1.143v-2.595c0-.808-.718-1.273-1.69-1.273-1.027 0-1.608.517-1.705 1.213l1.12.04c.053-.244.254-.393.575-.393.298 0 .487.144.487.4v.013c0 .233-.253.283-.904.34-.774.065-1.42.35-1.42 1.196 0 .756.525 1.124 1.255 1.124Zm.376-.796c-.281 0-.48-.134-.48-.388 0-.246.194-.395.54-.447.226-.032.504-.082.64-.154v.363c0 .373-.312.626-.7.626Zm4.43 2.242c1.15 0 1.936-.524 1.936-1.496v-3.833h-1.21v.654h-.035c-.147-.35-.48-.704-1.082-.704-.798 0-1.521.614-1.521 1.954 0 1.298.688 1.862 1.526 1.862.562 0 .937-.261 1.082-.614h.042v.671c0 .487-.299.664-.706.664-.39 0-.624-.15-.689-.386l-1.15.065c.089.669.718 1.163 1.806 1.163Zm.037-2.448c-.45 0-.701-.366-.701-.977 0-.61.248-1.004.7-1.004.446 0 .704.385.704 1.004 0 .614-.26.977-.703.977Z" fill="#885C09"/><rect x="2" y="25" width="21" height="11" rx="5.5" fill="#E4DCF5"/><path d="M6.219 28.908h1.546V33h1.213v-4.092h1.544v-.999H6.219v1Zm5.46 4.157c.532 0 .9-.207 1.11-.597h.029V33h1.143v-2.595c0-.808-.718-1.273-1.69-1.273-1.027 0-1.608.517-1.705 1.213l1.12.04c.053-.244.254-.393.575-.393.298 0 .487.144.487.4v.013c0 .233-.253.283-.904.34-.774.065-1.42.35-1.42 1.196 0 .756.525 1.124 1.255 1.124Zm.376-.796c-.281 0-.48-.134-.48-.388 0-.246.194-.395.54-.447.226-.032.504-.082.64-.154v.363c0 .373-.312.626-.7.626Zm4.43 2.242c1.15 0 1.936-.524 1.936-1.496v-3.833h-1.21v.654h-.035c-.147-.35-.48-.704-1.082-.704-.798 0-1.521.614-1.521 1.954 0 1.297.688 1.862 1.526 1.862.562 0 .937-.261 1.081-.614h.043v.671c0 .487-.299.664-.706.664-.39 0-.624-.15-.689-.386l-1.15.065c.089.669.718 1.163 1.806 1.163Zm.037-2.448c-.45 0-.701-.366-.701-.977 0-.61.248-1.004.7-1.004.446 0 .704.385.704 1.004 0 .614-.26.977-.703.977Z" fill="#7553B3"/><rect x="25" y="25" width="21" height="11" rx="5.5" fill="#FADBEC"/><path d="M29.219 28.908h1.546V33h1.213v-4.092h1.544v-.999h-4.303v1Zm5.46 4.157c.532 0 .9-.207 1.11-.597h.029V33h1.143v-2.595c0-.808-.718-1.273-1.69-1.273-1.027 0-1.608.517-1.705 1.213l1.12.04c.053-.244.254-.393.575-.393.298 0 .487.144.487.4v.013c0 .233-.253.283-.904.34-.774.065-1.42.35-1.42 1.196 0 .756.525 1.124 1.255 1.124Zm.376-.796c-.281 0-.48-.134-.48-.388 0-.246.194-.395.54-.447.226-.032.504-.082.64-.154v.363c0 .373-.312.626-.7.626Zm4.43 2.242c1.15 0 1.936-.524 1.936-1.496v-3.833h-1.21v.654h-.035c-.147-.35-.48-.704-1.082-.704-.798 0-1.521.614-1.521 1.954 0 1.297.688 1.862 1.526 1.862.562 0 .937-.261 1.082-.614h.042v.671c0 .487-.299.664-.706.664-.39 0-.624-.15-.689-.386l-1.15.065c.089.669.718 1.163 1.806 1.163Zm.037-2.448c-.45 0-.701-.366-.701-.977 0-.61.248-1.004.7-1.004.446 0 .704.385.704 1.004 0 .614-.26.977-.703.977Z" fill="#9E4878"/></svg>
