<svg width="48" height="48" fill="none" xmlns="http://www.w3.org/2000/svg"><rect x="1" y="15" width="46" height="18" rx="3" fill="#FCFCFC" stroke="#D8D8D8" stroke-width="1.6"/><path fill-rule="evenodd" clip-rule="evenodd" d="M6.55 24a4.45 4.45 0 1 1 8.9 0 4.45 4.45 0 0 1-8.9 0ZM11 17.95a6.05 6.05 0 1 0 0 12.1 6.05 6.05 0 0 0 0-12.1ZM10.2 21a.8.8 0 1 1 1.6 0v3.02a.8.8 0 0 1-.49.737l-2.624 1.106a.8.8 0 0 1-.621-1.475l2.135-.9V21Z" fill="#B2B2B2"/><path stroke="#D8D8D8" stroke-width="2" stroke-linecap="round" d="M21 24h12"/><path d="M38 20h1.5m1.5 0h-1.5m0 0v8m0 0H38m1.5 0H41" stroke="#949494" stroke-width="1.6" stroke-linecap="round"/></svg>
