<svg width="48" height="48" fill="none" xmlns="http://www.w3.org/2000/svg"><rect x="8" y="24" width="32" height="16" rx="4" fill="#fff" stroke="#D8D8D8" stroke-width="1.6"/><path d="M17.648 30.926h1.346c-.011-1.088-.878-1.824-2.23-1.824-1.33 0-2.287.725-2.278 1.807-.003.884.616 1.38 1.622 1.61l.608.143c.64.148.926.321.932.648-.006.355-.338.602-.904.602-.622 0-1.03-.29-1.062-.85h-1.347c.017 1.361.963 2.012 2.426 2.012 1.45 0 2.307-.656 2.313-1.761-.006-.93-.634-1.498-1.781-1.75l-.5-.114c-.529-.114-.864-.29-.853-.637.003-.318.276-.548.821-.548.549 0 .85.247.887.662Zm4.6-.29h-.788v-1.045h-1.389v1.045h-.577v1.023h.577v2.122c-.009.884.565 1.327 1.545 1.282.336-.018.577-.086.71-.126l-.21-1.002a1.53 1.53 0 0 1-.303.042c-.225 0-.353-.09-.353-.35V31.66h.787v-1.023Zm1.938 4.438c.608 0 1.029-.236 1.267-.682h.034V35h1.307v-2.966c0-.923-.821-1.454-1.932-1.454-1.173 0-1.838.59-1.949 1.386l1.282.045c.06-.278.29-.449.656-.449.34 0 .557.165.557.458v.014c0 .267-.29.324-1.034.39-.884.073-1.623.4-1.623 1.366 0 .863.6 1.284 1.435 1.284Zm.43-.91c-.322 0-.55-.153-.55-.442 0-.282.222-.452.617-.512.259-.037.577-.093.733-.176v.415c0 .426-.358.716-.8.716Zm3.027.836h1.39v-2.37c0-.52.369-.869.866-.869.165 0 .412.029.546.074v-1.207a1.59 1.59 0 0 0-.39-.051c-.477 0-.858.278-1.017.855h-.045v-.796h-1.35V35Zm6.026-4.364h-.787v-1.045h-1.39v1.045h-.576v1.023h.577v2.122c-.009.884.565 1.327 1.545 1.282.336-.018.577-.086.71-.126l-.21-1.002a1.53 1.53 0 0 1-.304.042c-.224 0-.352-.09-.352-.35V31.66h.787v-1.023Z" fill="#8E8E8E"/><path d="M12.864 18.144c1.646 0 2.64-1.253 2.643-3.41.003-2.142-1.003-3.369-2.643-3.369-1.643 0-2.64 1.224-2.643 3.369-.007 2.15.994 3.407 2.643 3.41Zm0-1.148c-.751 0-1.237-.754-1.234-2.262.004-1.486.486-2.234 1.234-2.234.745 0 1.23.748 1.23 2.234.004 1.508-.482 2.262-1.23 2.262Zm6.196 1.148c1.646 0 2.64-1.253 2.643-3.41.004-2.142-1.003-3.369-2.643-3.369-1.642 0-2.64 1.224-2.643 3.369-.006 2.15.994 3.407 2.643 3.41Zm0-1.148c-.75 0-1.236-.754-1.233-2.262.003-1.486.485-2.234 1.233-2.234.745 0 1.23.748 1.23 2.234.004 1.508-.482 2.262-1.23 2.262Zm4.439-2.965c.409 0 .764-.342.767-.768a.776.776 0 0 0-.767-.76.764.764 0 1 0 0 1.527Zm0 3.208c.409 0 .764-.342.767-.767a.776.776 0 0 0-.767-.76.764.764 0 1 0 0 1.527Zm4.438.905c1.646 0 2.64-1.253 2.643-3.41.004-2.142-1.003-3.369-2.643-3.369-1.643 0-2.64 1.224-2.643 3.369-.006 2.15.994 3.407 2.643 3.41Zm0-1.148c-.75 0-1.237-.754-1.233-2.262.003-1.486.485-2.234 1.233-2.234.745 0 1.23.748 1.23 2.234.004 1.508-.482 2.262-1.23 2.262Zm6.197 1.148c1.645 0 2.64-1.253 2.643-3.41.003-2.142-1.004-3.369-2.643-3.369-1.643 0-2.64 1.224-2.643 3.369-.007 2.15.993 3.407 2.643 3.41Zm0-1.148c-.752 0-1.237-.754-1.234-2.262.003-1.486.486-2.234 1.234-2.234.744 0 1.23.748 1.23 2.234.003 1.508-.483 2.262-1.23 2.262Z" fill="#6A6A6A"/></svg>
