<svg width="48" height="48" viewBox="0 0 48 48" fill="none" xmlns="http://www.w3.org/2000/svg">
<rect x="2.8" y="15.8" width="43.4" height="16.4" rx="3.2" stroke="#D8D8D8" stroke-width="1.6"/>
<path d="M9.6843 27H8.36612L10.3746 21.1818H11.9599L13.9656 27H12.6474L11.19 22.5114H11.1445L9.6843 27ZM9.60192 24.7131H12.7156V25.6733H9.60192V24.7131ZM16.4116 27.0852C15.9646 27.0852 15.5801 26.9905 15.2582 26.8011C14.9381 26.6098 14.6919 26.3447 14.5195 26.0057C14.3491 25.6667 14.2638 25.2765 14.2638 24.8352C14.2638 24.3883 14.35 23.9962 14.5224 23.6591C14.6966 23.3201 14.9438 23.0559 15.2638 22.8665C15.5839 22.6752 15.9646 22.5795 16.4059 22.5795C16.7866 22.5795 17.1199 22.6487 17.4059 22.7869C17.6919 22.9252 17.9182 23.1193 18.0849 23.3693C18.2515 23.6193 18.3434 23.9129 18.3604 24.25H17.2184C17.1862 24.0322 17.101 23.857 16.9627 23.7244C16.8263 23.59 16.6474 23.5227 16.4258 23.5227C16.2383 23.5227 16.0745 23.5739 15.9343 23.6761C15.796 23.7765 15.6881 23.9233 15.6104 24.1165C15.5328 24.3097 15.494 24.5436 15.494 24.8182C15.494 25.0966 15.5318 25.3333 15.6076 25.5284C15.6853 25.7235 15.7942 25.8722 15.9343 25.9744C16.0745 26.0767 16.2383 26.1278 16.4258 26.1278C16.564 26.1278 16.6881 26.0994 16.7979 26.0426C16.9097 25.9858 17.0015 25.9034 17.0735 25.7955C17.1474 25.6856 17.1957 25.554 17.2184 25.4006H18.3604C18.3415 25.7339 18.2506 26.0275 18.0877 26.2812C17.9267 26.5331 17.7042 26.7301 17.4201 26.8722C17.136 27.0142 16.7998 27.0852 16.4116 27.0852ZM21.4563 22.6364V23.5455H18.8285V22.6364H21.4563ZM19.4251 21.5909H20.6353V25.6591C20.6353 25.7708 20.6523 25.858 20.6864 25.9205C20.7205 25.9811 20.7679 26.0237 20.8285 26.0483C20.891 26.0729 20.9629 26.0852 21.0444 26.0852C21.1012 26.0852 21.158 26.0805 21.2148 26.071C21.2717 26.0597 21.3152 26.0511 21.3455 26.0455L21.5359 26.946C21.4753 26.965 21.39 26.9867 21.2802 27.0114C21.1703 27.0379 21.0368 27.054 20.8796 27.0597C20.5879 27.071 20.3323 27.0322 20.1126 26.9432C19.8948 26.8542 19.7253 26.7159 19.604 26.5284C19.4828 26.3409 19.4232 26.1042 19.4251 25.8182V21.5909ZM22.2447 27V22.6364H23.4549V27H22.2447ZM22.8526 22.0739C22.6727 22.0739 22.5183 22.0142 22.3896 21.8949C22.2627 21.7737 22.1992 21.6288 22.1992 21.4602C22.1992 21.2936 22.2627 21.1506 22.3896 21.0312C22.5183 20.91 22.6727 20.8494 22.8526 20.8494C23.0326 20.8494 23.186 20.91 23.3129 21.0312C23.4416 21.1506 23.506 21.2936 23.506 21.4602C23.506 21.6288 23.4416 21.7737 23.3129 21.8949C23.186 22.0142 23.0326 22.0739 22.8526 22.0739ZM26.396 27.0852C25.9547 27.0852 25.573 26.9915 25.2511 26.804C24.931 26.6146 24.6838 26.3513 24.5096 26.0142C24.3353 25.6752 24.2482 25.2822 24.2482 24.8352C24.2482 24.3845 24.3353 23.9905 24.5096 23.6534C24.6838 23.3144 24.931 23.0511 25.2511 22.8636C25.573 22.6742 25.9547 22.5795 26.396 22.5795C26.8372 22.5795 27.2179 22.6742 27.538 22.8636C27.86 23.0511 28.1081 23.3144 28.2823 23.6534C28.4566 23.9905 28.5437 24.3845 28.5437 24.8352C28.5437 25.2822 28.4566 25.6752 28.2823 26.0142C28.1081 26.3513 27.86 26.6146 27.538 26.804C27.2179 26.9915 26.8372 27.0852 26.396 27.0852ZM26.4016 26.1477C26.6024 26.1477 26.77 26.0909 26.9045 25.9773C27.0389 25.8617 27.1403 25.7045 27.2085 25.5057C27.2785 25.3068 27.3136 25.0805 27.3136 24.8267C27.3136 24.5729 27.2785 24.3466 27.2085 24.1477C27.1403 23.9489 27.0389 23.7917 26.9045 23.6761C26.77 23.5606 26.6024 23.5028 26.4016 23.5028C26.199 23.5028 26.0285 23.5606 25.8903 23.6761C25.7539 23.7917 25.6507 23.9489 25.5806 24.1477C25.5124 24.3466 25.4783 24.5729 25.4783 24.8267C25.4783 25.0805 25.5124 25.3068 25.5806 25.5057C25.6507 25.7045 25.7539 25.8617 25.8903 25.9773C26.0285 26.0909 26.199 26.1477 26.4016 26.1477ZM30.5408 24.4773V27H29.3306V22.6364H30.484V23.4062H30.5352C30.6317 23.1525 30.7937 22.9517 31.021 22.804C31.2482 22.6544 31.5238 22.5795 31.8477 22.5795C32.1507 22.5795 32.4149 22.6458 32.6403 22.7784C32.8656 22.911 33.0408 23.1004 33.1658 23.3466C33.2908 23.5909 33.3533 23.8826 33.3533 24.2216V27H32.1431V24.4375C32.145 24.1705 32.0768 23.9621 31.9386 23.8125C31.8003 23.661 31.61 23.5852 31.3675 23.5852C31.2047 23.5852 31.0607 23.6203 30.9357 23.6903C30.8126 23.7604 30.716 23.8627 30.646 23.9972C30.5778 24.1297 30.5427 24.2898 30.5408 24.4773Z" fill="#949494"/>
<path d="M37 24L39 25.6L41 24" stroke="#B3B3B3" stroke-width="1.2" stroke-linecap="square"/>
</svg>
