<svg width="16" height="22" viewBox="0 0 16 22" fill="none" xmlns="http://www.w3.org/2000/svg">
<path fill-rule="evenodd" clip-rule="evenodd" d="M9.5 0.0877134C-3.9 -0.582287 10.24 2.73771 10.24 4.88771C10.24 6.94771 8.89 8.61771 6.83 8.61771C4.76 8.61771 3.2 6.94771 3.2 4.88771L3.23 4.52771C1.21 6.92771 0 10.0377 0 13.4177C0 17.8377 3.58 21.4177 8 21.4177C12.42 21.4177 16 17.8377 16 13.4177C16 8.02771 13.41 3.21771 9.5 0.0877134ZM7.71 18.4177C5.93 18.4177 4.49 17.0177 4.49 15.2777C4.49 13.6577 5.54 12.5177 7.3 12.1577C9.07 11.7977 10.9 10.9477 11.92 9.57771C12.31 10.8677 12.51 12.2277 12.51 13.6177C12.51 16.2677 10.36 18.4177 7.71 18.4177Z" fill="#898989"/>
</svg>
