<svg width="15" height="11" viewBox="0 0 15 11" fill="none" xmlns="http://www.w3.org/2000/svg">
<path d="M14.4537 1.3022C13.9563 1.52308 13.4207 1.67244 12.8589 1.73918C13.4326 1.39596 13.8729 0.851715 14.0803 0.203395C13.5431 0.521199 12.9495 0.752402 12.3153 0.876345C11.8099 0.336873 11.0876 0 10.2882 0C8.75531 0 7.51168 1.24341 7.51168 2.77681C7.51168 2.99451 7.53552 3.20585 7.5832 3.40925C5.27474 3.29325 3.22851 2.18888 1.85774 0.506898C1.61855 0.918454 1.48187 1.39596 1.48187 1.90444C1.48187 2.86739 1.97217 3.71752 2.71755 4.21567C2.26301 4.20217 1.8339 4.07584 1.45882 3.86927V3.90343C1.45882 5.24933 2.41638 6.37198 3.68782 6.62622C3.45499 6.69137 3.20944 6.72394 2.95595 6.72394C2.77715 6.72394 2.60233 6.70726 2.43307 6.67468C2.78669 7.77746 3.81178 8.58072 5.0276 8.60217C4.0772 9.34742 2.87886 9.79155 1.57802 9.79155C1.35393 9.79155 1.13222 9.77884 0.915283 9.75341C2.14461 10.54 3.60518 11 5.17302 11C10.2826 11 13.0758 6.76923 13.0758 3.09939C13.0758 2.97862 13.0734 2.85785 13.0687 2.73947C13.6114 2.34778 14.0826 1.85915 14.4537 1.3022Z" fill="#00AAEC"/>
</svg>
