<svg width="16" height="16" viewBox="0 0 16 16" fill="none" xmlns="http://www.w3.org/2000/svg">
<path fill-rule="evenodd" clip-rule="evenodd" d="M13.3334 4H11.3334V2.66667C11.3334 1.92667 10.74 1.33334 10 1.33334H6.00004C5.26004 1.33334 4.66671 1.92667 4.66671 2.66667V4H2.66671C1.92671 4 1.33337 4.59334 1.33337 5.33334V12.6667C1.33337 13.4067 1.92671 14 2.66671 14H13.3334C14.0734 14 14.6667 13.4067 14.6667 12.6667V5.33334C14.6667 4.59334 14.0734 4 13.3334 4ZM6.00004 2.66667H10V4H6.00004V2.66667ZM13.3334 12.6667H2.66671V11.3333H13.3334V12.6667ZM13.3334 9.33334H2.66671V5.33334H4.66671V6.66667H6.00004V5.33334H10V6.66667H11.3334V5.33334H13.3334V9.33334Z" fill="#898989"/>
</svg>
