<svg width="24" height="24" viewBox="0 0 24 24" fill="none" xmlns="http://www.w3.org/2000/svg">
<rect width="24" height="24" rx="4" fill="#202020"/>
<path d="M11.6 5.12V16.16C11.6 16.6267 11.5167 17.0567 11.35 17.45C11.1833 17.8433 10.9467 18.1933 10.64 18.5C10.3333 18.8067 9.98 19.0467 9.58 19.22C9.18 19.3933 8.75333 19.48 8.3 19.48C7.84667 19.48 7.42333 19.3933 7.03 19.22C6.63667 19.0467 6.28667 18.8067 5.98 18.5C5.67333 18.1933 5.43333 17.8433 5.26 17.45C5.08667 17.0567 5 16.6267 5 16.16V5.12H7.04V15.96C7.04 16.4667 7.16 16.84 7.4 17.08C7.64 17.32 7.94 17.44 8.3 17.44C8.66 17.44 8.96 17.32 9.2 17.08C9.44 16.84 9.56 16.4667 9.56 15.96V5.12H11.6Z" fill="white"/>
<path d="M20 15.3V16.18C20 16.62 19.9167 17.0367 19.75 17.43C19.5834 17.8233 19.3534 18.1733 19.06 18.48C18.7667 18.7867 18.4234 19.03 18.03 19.21C17.6367 19.39 17.2134 19.48 16.76 19.48C16.3734 19.48 15.98 19.4267 15.58 19.32C15.18 19.2133 14.82 19.0267 14.5 18.76C14.18 18.4933 13.9167 18.15 13.71 17.73C13.5034 17.31 13.4 16.7733 13.4 16.12V8.28C13.4 7.81333 13.48 7.38 13.64 6.98C13.8 6.58 14.0267 6.23333 14.32 5.94C14.6134 5.64667 14.9634 5.41667 15.37 5.25C15.7767 5.08333 16.2267 5 16.72 5C17.68 5 18.46 5.31333 19.06 5.94C19.3534 6.24667 19.5834 6.61 19.75 7.03C19.9167 7.45 20 7.90667 20 8.4V9.2H17.96V8.52C17.96 8.12 17.8467 7.77333 17.62 7.48C17.3934 7.18667 17.0867 7.04 16.7 7.04C16.1934 7.04 15.8567 7.19667 15.69 7.51C15.5234 7.82333 15.44 8.22 15.44 8.7V15.98C15.44 16.3933 15.53 16.74 15.71 17.02C15.89 17.3 16.2134 17.44 16.68 17.44C16.8134 17.44 16.9567 17.4167 17.11 17.37C17.2634 17.3233 17.4067 17.2467 17.54 17.14C17.66 17.0333 17.76 16.8867 17.84 16.7C17.92 16.5133 17.96 16.28 17.96 16V15.3H20Z" fill="white"/>
</svg>
