<svg width="23" height="18" viewBox="0 0 23 18" fill="none" xmlns="http://www.w3.org/2000/svg">
<path d="M1.7 15.4V16.3H10.8C10.7 17.3 10.6 17.5 10.8 18H1.7C0.8 18 0 17.2 0 16.3V15.4C0 12.8 2.1 10.7 4.7 10.7C5.7 10.7 6.2 11.3 7.8 11.3C9.4 11.3 9.9 10.7 10.9 10.7C12 10.7 12.9 11.1 13.7 11.6L12.5 12.8C12 12.5 11.5 12.3 10.9 12.3C10.4 12.3 9.6 12.9 7.8 12.9C6 12.9 5.2 12.3 4.7 12.3C3.1 12.4 1.7 13.7 1.7 15.4ZM2.8 5.1C2.8 2.3 5.1 0 7.9 0C10.7 0 13 2.3 13 5.1C13 7.9 10.7 10.2 7.9 10.2C5.1 10.1 2.8 7.8 2.8 5.1ZM4.5 4.9C4.4 6.9 6 8.5 8 8.4C9.7 8.3 11.1 6.9 11.2 5.2C11.3 3.2 9.7 1.6 7.7 1.7C6 1.8 4.6 3.2 4.5 4.9ZM17.5 10.4L20 12.9L15.2 17.7L13 18C12.6 18 12.3 17.7 12.4 17.4L12.6 15.3L17.5 10.4ZM22.3 10.6L20.8 12.1L18.3 9.6L19.8 8.1C20.1 7.8 20.7 7.8 21 8.1L22.3 9.4C22.6 9.8 22.6 10.3 22.3 10.6Z" fill="#444444"/>
</svg>
