<svg width="48" height="48" fill="none" xmlns="http://www.w3.org/2000/svg"><circle cx="27.765" cy="8.589" r="2.588" transform="rotate(-180 27.765 8.589)" fill="#EEE"/><path d="M29.706 8.589h-17.47" stroke="#3C92DC" stroke-width="2.588"/><circle cx="27.765" cy="8.589" r="1.941" transform="rotate(-180 27.765 8.589)" fill="#3C92DC" stroke="#3C92DC" stroke-width="1.294"/><circle cx="13.294" cy="8.589" r="2.265" transform="rotate(-180 13.294 8.589)" fill="#3C92DC" stroke="#3C92DC" stroke-width="1.941"/><circle cx="30.5" cy="8.5" r="5.5" fill="#3C92DC"/><circle cx="30.5" cy="8.5" r="5.5" fill="#3C92DC"/><rect x="4.2" y="17.2" width="39.6" height="25.6" rx="4.8" fill="#fff" stroke="#D8D8D8" stroke-width="1.6"/><path d="M10 24v12a2 2 0 0 0 2 2h24a2 2 0 0 0 2-2V24a2 2 0 0 0-2-2H12a2 2 0 0 0-2 2Z" fill="#EEE"/><path d="m28.5 8.861 1.361 1.134L32.13 7.5" stroke="#fff" stroke-width="1.4" stroke-linecap="round" stroke-linejoin="round"/></svg>
