<svg width="48" height="48" fill="none" xmlns="http://www.w3.org/2000/svg"><rect x="1" y="15" width="46" height="19" rx="3" fill="#FCFCFC" stroke="#D8D8D8" stroke-width="1.6"/><path d="m38 24 2.5 2 2.5-2" stroke="#BEBEBE" stroke-width="1.6" stroke-linecap="round" stroke-linejoin="round"/><path d="M8.965 21h-1.38l-1.987 1.277v1.328l1.87-1.195h.048V29h1.449v-8Zm4.808-.11c-1.734-.011-2.886 1.18-2.886 2.743.004 1.508 1.078 2.598 2.48 2.598.863 0 1.613-.419 2-1.106h.055c-.004 1.71-.625 2.73-1.73 2.73-.692 0-1.157-.398-1.301-1.035h-1.426c.164 1.325 1.21 2.29 2.726 2.29 1.918 0 3.141-1.602 3.137-4.356-.004-2.914-1.52-3.856-3.055-3.863Zm.004 1.172c.856 0 1.485.711 1.485 1.528.004.828-.657 1.539-1.5 1.539-.852 0-1.465-.672-1.469-1.527 0-.86.637-1.54 1.484-1.54Zm7.13-1.171c-1.735-.012-2.887 1.18-2.887 2.742.003 1.508 1.078 2.598 2.48 2.598.863 0 1.613-.419 2-1.106h.055c-.004 1.71-.625 2.73-1.73 2.73-.692 0-1.157-.398-1.302-1.035h-1.425c.164 1.325 1.21 2.29 2.726 2.29 1.918 0 3.14-1.602 3.137-4.356-.004-2.914-1.52-3.856-3.055-3.863Zm.003 1.172c.856 0 1.485.71 1.485 1.527.003.828-.657 1.539-1.5 1.539-.852 0-1.465-.672-1.47-1.527 0-.86.637-1.54 1.485-1.54Zm7.309 7.09c1.93.003 3.082-1.52 3.082-4.145 0-2.61-1.16-4.117-3.082-4.117s-3.078 1.504-3.082 4.117c0 2.62 1.152 4.144 3.082 4.144Zm0-1.223c-.996 0-1.621-1-1.617-2.922.003-1.906.625-2.91 1.617-2.91.996 0 1.617 1.004 1.62 2.91 0 1.922-.62 2.922-1.62 2.922Z" fill="#757575"/></svg>
